{
.appVersion = "3516";
.formatVersion = 3;
DisplayStrings = (
"/Cacute.loclPLK/Esdescender-cy.loclBSH/Esdescender-cy.loclCHU/Zedescender-cy.loclBSH/Nacute.loclPLK/Oacute.loclPLK/Sacute.loclPLK/Zacute.loclPLK/Gestroke-cy.loclBSH/Gje-cy.loclMKD/Ii-cy.loclBGR/Iishort-cy.loclBGR/Ef-cy.loclBGR/en-cy.loclBGR/ge-cy.loclMKD/de-cy.loclMKD/pe-cy.loclMKD/te-cy.loclMKD/gestroke-cy.loclBSH/gje-cy.loclMKD/nacute.loclPLK/oacute.loclPLK/sacute.loclPLK/zacute.loclPLK/cacute.loclPLK/esdescender-cy.loclBSH/esdescender-cy.loclCHU/zedescender-cy.loclBSH/Ii-cy.ss04/Ii-cy.loclBGR.ss04/Iigrave-cy.ss04/Iishort-cy.ss04/Iishort-cy.loclBGR.ss04/Iishorttail-cy.ss04/ii-cy.ss04/iigrave-cy.ss04/iishort-cy.ss04/iishorttail-cy.ss04/ge-cy.loclSRB/de-cy.loclSRB/pe-cy.loclSRB/te-cy.loclSRB 

ÆA ǼǢӔ АΑΆÁÀĂӐǍÂÄӒȦẠẬẶĄẢĀ/A_macroncomb-cy ÃÅǺẨẲẪẰẴẮẤẦ
VΛW ṼԜẂẀŴẄ
ДЛЉΔ ∆/De-cy.loclBGR/El-cy.loclBGR ɅԒ
У/U-cy.ss02 ƔY ЎӮӰӲ /Ushort-cy.ss02/Umacron-cy.ss02/Udieresis-cy.ss02/Uhungarumlaut-cy.ss02  ҮΥΎΫҰÝŶŸỲȲỸỶỴƳ
XӼZΣ∑Ξ ХΧ/Ha_U_Iishort-cy/Ha_u_iishort-cy ҲӾ ŹŽŻẐẒƵΖƩ
IƖⅠꞋ ΙІӀΊÍÌİÏΪЇĬĨỈĪǏÎĮỊƗ /I.cv05/Iota.cv05/I-cy.cv05 Ɪ/Iotatonos.cv05/Iacute.cv05/Igrave.cv05/Idotaccent.cv05/Yi-cy.cv05/Iotadieresis.cv05/Ibreve.cv05/Icaron.cv05/Icircumflex.cv05/Ihookabove.cv05/Imacron.cv05/Itilde.cv05/Iogonek.cv05/Idotbelow.cv05 
NŊ№И ƝŃŇŅ/Ncommaaccent.loclMAH ÑΝṄṈǸ ЙҊЍӢӤǊǋ
HҤ ĦꞪӇԨḨĤНҢӉΗΉḢȞḤ
UƲ ÚŬÛÜỤÙŰŪŲŮŨỦƯỨỪỬỮỰǕǗǓǙǛɄ
∏ПЦЏШ ҦΠԤҴЩ
ЧҸ ҺЋԦꞍҶӋӴ/Chedescender_brevecomb-cy 
M ΜМӍḾ
EFƑ ƎΕЕΈÉĔĚÊËĖẸÈĒĘẼẺỂỀỄẾỆЀЁӖ
T ТΤ/T_circumflexcomb ṪҬŦŤŢȚЂṬƮ
L ΓГҐ ĹĽĿŁꞭĻ/Lcommaaccent.loclMAH ḶḺǇǈ ЃӶҒҔӺ
J ЈͿ/Jacute ĴĲꞲ
SʔɁ/half-section §&ẞ ЅṢŚŠŞŜȘʕʢʡ
PÞЬЫЪҌЊ РΡ/P_circumflexcomb ṖҎӸԀѢ
BБR/R.ss01/Ya-cy.ss04 Ф/Ef-cy.ss04 Ψ ḂВΒƁŔŘŖɌṚⱤƦЯ/Racute.ss01/Rcaron.ss01/Rcommaaccent.ss01/Rstroke.ss01/Rdotbelow.ss01/Ya-cy.ss01 ӸΦ
OQ/Q.ss02 ΩŒҨЮ ОΟØӨΘʘƟΌΏƱԚ/Qa-cy.ss02/Q_dotaccentcomb/Q_circumflexcomb/Q_dotaccentcomb.ss02/Q_circumflexcomb.ss02 ỔỐỒỖỘƠỚỜỞỠỢÓŎÔÖỌÒŐŌǪǾÕỎӦӪ/Obarred_macroncomb-cy Ǒ
CЭ ĆČÇĈĊСҪЄƆӬ/Ereversed_macroncomb-cy 

glyphs = (
{
color = 9;
glyphname = A;
kernLeft = A;
kernRight = A;
lastChange = "2026-04-07 14:26:59 +0000";
layers = (
{
anchors = (
{
name = bottom;
pos = (350,0);
},
{
name = ogonek;
pos = (586,0);
},
{
name = top;
pos = (350,700);
}
);
layerId = m003;
shapes = (
{
closed = 1;
nodes = (
(250,700,l),
(16,0,l),
(198,0,l),
(234,124,l),
(462,124,l),
(498,0,l),
(684,0,l),
(446,700,l)
);
},
{
closed = 1;
nodes = (
(348,512,l),
(420,268,l),
(276,268,l)
);
}
);
width = 700;
},
{
anchors = (
{
name = bottom;
pos = (350,0);
},
{
name = ogonek;
pos = (628,0);
},
{
name = top;
pos = (350,700);
}
);
layerId = m004;
shapes = (
{
closed = 1;
nodes = (
(290,700,l),
(30,0,l),
(134,0,l),
(196,174,l),
(498,174,l),
(560,0,l),
(670,0,l),
(408,700,l)
);
},
{
closed = 1;
nodes = (
(348,598,l),
(466,266,l),
(230,266,l)
);
}
);
width = 700;
},
{
anchors = (
{
name = bottom;
pos = (350,0);
},
{
name = ogonek;
pos = (644,0);
},
{
name = top;
pos = (350,700);
}
);
layerId = m007;
shapes = (
{
closed = 1;
nodes = (
(322,700,l),
(36,0,l),
(82,0,l),
(164,200,l),
(536,200,l),
(618,0,l),
(664,0,l),
(374,700,l)
);
},
{
closed = 1;
nodes = (
(348,654,l),
(518,240,l),
(180,240,l)
);
}
);
width = 700;
}
);
metricLeft = X;
metricRight = X;
unicode = 65;
userData = {
KernOnName = A;
};
},
{
color = 8;
glyphname = Aogonek;
kernLeft = A;
kernRight = A;
lastChange = "2026-04-07 14:26:59 +0000";
layers = (
{
anchors = (
{
name = bottom;
pos = (350,0);
},
{
name = ogonek;
pos = (586,-200);
},
{
name = top;
pos = (350,700);
}
);
layerId = m003;
shapes = (
{
closed = 1;
nodes = (
(250,700,l),
(16,0,l),
(198,0,l),
(234,124,l),
(462,124,l),
(492,20,l),
(466,-4,o),
(448,-36,o),
(448,-78,cs),
(448,-82,ls),
(448,-152,o),
(496,-200,o),
(582,-200,cs),
(680,-200,o),
(722,-144,o),
(726,-68,c),
(624,-68,l),
(624,-102,o),
(612,-118,o),
(586,-118,cs),
(562,-118,o),
(550,-106,o),
(550,-78,cs),
(550,-74,ls),
(550,-36,o),
(580,-16,o),
(632,0,c),
(684,0,l),
(446,700,l)
);
},
{
closed = 1;
nodes = (
(348,512,l),
(420,268,l),
(276,268,l)
);
}
);
width = 700;
},
{
anchors = (
{
name = bottom;
pos = (350,0);
},
{
name = ogonek;
pos = (628,-200);
},
{
name = top;
pos = (350,700);
}
);
layerId = m004;
shapes = (
{
closed = 1;
nodes = (
(290,700,l),
(30,0,l),
(134,0,l),
(196,174,l),
(498,174,l),
(556,8,l),
(528,-18,o),
(510,-54,o),
(510,-94,cs),
(510,-98,ls),
(510,-154,o),
(546,-200,o),
(626,-200,cs),
(710,-200,o),
(740,-142,o),
(748,-86,c),
(664,-86,l),
(662,-110,o),
(654,-130,o),
(626,-130,cs),
(600,-130,o),
(592,-112,o),
(592,-94,cs),
(592,-90,ls),
(592,-62,o),
(608,-28,o),
(660,0,c),
(670,0,l),
(408,700,l)
);
},
{
closed = 1;
nodes = (
(348,598,l),
(466,266,l),
(230,266,l)
);
}
);
width = 700;
},
{
anchors = (
{
name = bottom;
pos = (350,0);
},
{
name = ogonek;
pos = (644,-200);
},
{
name = top;
pos = (350,700);
}
);
layerId = m007;
shapes = (
{
closed = 1;
nodes = (
(322,700,l),
(36,0,l),
(82,0,l),
(164,200,l),
(536,200,l),
(612,14,l),
(572,-14,o),
(544,-60,o),
(544,-106,cs),
(544,-110,ls),
(544,-160,o),
(576,-200,o),
(640,-200,cs),
(704,-200,o),
(738,-154,o),
(742,-100,c),
(698,-100,l),
(694,-138,o),
(678,-160,o),
(640,-160,cs),
(602,-160,o),
(584,-136,o),
(584,-110,cs),
(584,-106,ls),
(584,-68,o),
(616,-22,o),
(660,0,c),
(664,0,l),
(374,700,l)
);
},
{
closed = 1;
nodes = (
(348,654,l),
(518,240,l),
(180,240,l)
);
}
);
width = 700;
}
);
unicode = 260;
},
{
color = 8;
glyphname = Aring;
kernLeft = A;
kernRight = A;
lastChange = "2026-04-07 14:26:59 +0000";
layers = (
{
anchors = (
{
name = bottom;
pos = (350,0);
},
{
name = ogonek;
pos = (586,0);
},
{
name = top;
pos = (350,900);
}
);
layerId = m003;
shapes = (
{
closed = 1;
nodes = (
(348,726,ls),
(328,726,o),
(316,742,o),
(316,762,cs),
(316,766,ls),
(316,786,o),
(328,802,o),
(348,802,cs),
(352,802,ls),
(372,802,o),
(384,786,o),
(384,766,cs),
(384,762,ls),
(384,742,o),
(372,726,o),
(352,726,cs)
);
},
{
closed = 1;
nodes = (
(198,0,l),
(234,124,l),
(462,124,l),
(498,0,l),
(684,0,l),
(450,686,l),
(472,706,o),
(482,734,o),
(482,762,cs),
(482,766,ls),
(482,822,o),
(446,872,o),
(352,872,cs),
(348,872,ls),
(258,872,o),
(218,822,o),
(218,766,cs),
(218,762,ls),
(218,736,o),
(228,712,o),
(248,692,c),
(16,0,l)
);
},
{
closed = 1;
nodes = (
(348,512,l),
(420,268,l),
(276,268,l)
);
}
);
width = 700;
},
{
anchors = (
{
name = bottom;
pos = (350,0);
},
{
name = ogonek;
pos = (628,0);
},
{
name = top;
pos = (350,900);
}
);
layerId = m004;
shapes = (
{
closed = 1;
nodes = (
(348,738,ls),
(326,738,o),
(312,756,o),
(312,774,cs),
(312,778,ls),
(312,794,o),
(322,814,o),
(348,814,cs),
(352,814,ls),
(378,814,o),
(388,794,o),
(388,778,cs),
(388,774,ls),
(388,756,o),
(378,738,o),
(352,738,cs)
);
},
{
closed = 1;
nodes = (
(134,0,l),
(196,174,l),
(498,174,l),
(560,0,l),
(670,0,l),
(412,692,l),
(442,708,o),
(460,738,o),
(460,774,cs),
(460,778,ls),
(460,830,o),
(420,874,o),
(352,874,cs),
(348,874,ls),
(280,874,o),
(240,830,o),
(240,778,cs),
(240,774,ls),
(240,740,o),
(256,710,o),
(288,692,c),
(30,0,l)
);
},
{
closed = 1;
nodes = (
(348,598,l),
(466,266,l),
(230,266,l)
);
}
);
width = 700;
},
{
anchors = (
{
name = bottom;
pos = (350,0);
},
{
name = ogonek;
pos = (644,0);
},
{
name = top;
pos = (350,900);
}
);
layerId = m007;
shapes = (
{
closed = 1;
nodes = (
(348,730,ls),
(318,730,o),
(300,746,o),
(300,770,cs),
(300,774,ls),
(300,798,o),
(318,814,o),
(348,814,cs),
(352,814,ls),
(382,814,o),
(400,798,o),
(400,774,cs),
(400,770,ls),
(400,744,o),
(382,730,o),
(352,730,cs)
);
},
{
closed = 1;
nodes = (
(82,0,l),
(164,200,l),
(536,200,l),
(618,0,l),
(664,0,l),
(378,692,l),
(418,700,o),
(440,728,o),
(440,770,cs),
(440,774,ls),
(440,822,o),
(408,854,o),
(352,854,cs),
(348,854,ls),
(292,854,o),
(260,822,o),
(260,774,cs),
(260,770,ls),
(260,732,o),
(282,704,o),
(320,694,c),
(36,0,l)
);
},
{
closed = 1;
nodes = (
(348,654,l),
(518,240,l),
(180,240,l)
);
}
);
width = 700;
}
);
unicode = 197;
},
{
color = 8;
glyphname = Aringacute;
kernLeft = A;
kernRight = A;
lastChange = "2026-04-07 14:26:59 +0000";
layers = (
{
anchors = (
{
name = bottom;
pos = (350,0);
},
{
name = ogonek;
pos = (586,0);
},
{
name = top;
pos = (350,1000);
}
);
layerId = m003;
shapes = (
{
closed = 1;
nodes = (
(348,726,ls),
(328,726,o),
(316,742,o),
(316,762,cs),
(316,766,ls),
(316,786,o),
(328,802,o),
(348,802,cs),
(352,802,ls),
(372,802,o),
(384,786,o),
(384,766,cs),
(384,762,ls),
(384,742,o),
(372,726,o),
(352,726,cs)
);
},
{
closed = 1;
nodes = (
(198,0,l),
(234,124,l),
(462,124,l),
(498,0,l),
(684,0,l),
(450,686,l),
(472,706,o),
(482,734,o),
(482,762,cs),
(482,766,ls),
(482,812,o),
(458,852,o),
(400,866,c),
(482,938,l),
(386,994,l),
(342,872,l),
(256,870,o),
(218,820,o),
(218,766,cs),
(218,762,ls),
(218,736,o),
(228,712,o),
(248,692,c),
(16,0,l)
);
},
{
closed = 1;
nodes = (
(348,512,l),
(420,268,l),
(276,268,l)
);
}
);
width = 700;
},
{
anchors = (
{
name = bottom;
pos = (350,0);
},
{
name = ogonek;
pos = (628,0);
},
{
name = top;
pos = (350,1000);
}
);
layerId = m004;
shapes = (
{
closed = 1;
nodes = (
(348,738,ls),
(326,738,o),
(312,756,o),
(312,774,cs),
(312,778,ls),
(312,794,o),
(322,814,o),
(348,814,cs),
(352,814,ls),
(378,814,o),
(388,794,o),
(388,778,cs),
(388,774,ls),
(388,756,o),
(378,738,o),
(352,738,cs)
);
},
{
closed = 1;
nodes = (
(134,0,l),
(196,174,l),
(498,174,l),
(560,0,l),
(670,0,l),
(412,692,l),
(442,708,o),
(460,738,o),
(460,774,cs),
(460,778,ls),
(460,816,o),
(438,850,o),
(400,866,c),
(454,964,l),
(390,994,l),
(336,874,l),
(274,868,o),
(240,826,o),
(240,778,cs),
(240,774,ls),
(240,740,o),
(256,710,o),
(288,692,c),
(30,0,l)
);
},
{
closed = 1;
nodes = (
(348,598,l),
(466,266,l),
(230,266,l)
);
}
);
width = 700;
},
{
anchors = (
{
name = bottom;
pos = (350,0);
},
{
name = ogonek;
pos = (644,0);
},
{
name = top;
pos = (350,1000);
}
);
layerId = m007;
shapes = (
{
closed = 1;
nodes = (
(348,730,ls),
(318,730,o),
(300,746,o),
(300,770,cs),
(300,774,ls),
(300,798,o),
(318,814,o),
(348,814,cs),
(352,814,ls),
(382,814,o),
(400,798,o),
(400,774,cs),
(400,770,ls),
(400,744,o),
(382,730,o),
(352,730,cs)
);
},
{
closed = 1;
nodes = (
(82,0,l),
(164,200,l),
(536,200,l),
(618,0,l),
(664,0,l),
(378,692,l),
(418,700,o),
(440,728,o),
(440,770,cs),
(440,774,ls),
(440,812,o),
(420,840,o),
(384,850,c),
(434,990,l),
(396,1000,l),
(344,854,l),
(290,852,o),
(260,820,o),
(260,774,cs),
(260,770,ls),
(260,732,o),
(282,704,o),
(320,694,c),
(36,0,l)
);
},
{
closed = 1;
nodes = (
(348,654,l),
(518,240,l),
(180,240,l)
);
}
);
width = 700;
}
);
unicode = 506;
},
{
color = 8;
glyphname = AE;
kernLeft = A;
kernRight = E;
lastChange = "2026-04-08 08:54:53 +0000";
layers = (
{
anchors = (
{
name = bottom;
pos = (500,0);
},
{
name = ogonek;
pos = (874,0);
},
{
name = top;
pos = (500,700);
}
);
layerId = m003;
shapes = (
{
closed = 1;
nodes = (
(184,0,l),
(234,174,l),
(416,174,l),
(416,0,l),
(924,0,l),
(924,152,l),
(606,152,l),
(606,282,l),
(900,282,l),
(900,418,l),
(606,418,l),
(606,548,l),
(924,548,l),
(924,700,l),
(230,700,l),
(16,0,l)
);
},
{
closed = 1;
nodes = (
(344,548,l),
(416,548,l),
(416,318,l),
(276,318,l)
);
}
);
width = 960;
},
{
anchors = (
{
name = bottom;
pos = (500,0);
},
{
name = ogonek;
pos = (874,0);
},
{
name = top;
pos = (500,700);
}
);
layerId = m004;
shapes = (
{
closed = 1;
nodes = (
(134,0,l),
(202,204,l),
(444,204,l),
(444,0,l),
(908,0,l),
(908,88,l),
(544,88,l),
(544,306,l),
(882,306,l),
(882,394,l),
(544,394,l),
(544,612,l),
(908,612,l),
(908,700,l),
(266,700,l),
(30,0,l)
);
},
{
closed = 1;
nodes = (
(340,614,l),
(444,614,l),
(444,296,l),
(234,296,l)
);
}
);
width = 960;
},
{
anchors = (
{
name = bottom;
pos = (500,0);
},
{
name = ogonek;
pos = (874,0);
},
{
name = top;
pos = (500,700);
}
);
layerId = m007;
shapes = (
{
closed = 1;
nodes = (
(80,0,l),
(168,240,l),
(460,240,l),
(460,0,l),
(894,0,l),
(894,40,l),
(500,40,l),
(500,330,l),
(872,330,l),
(872,370,l),
(500,370,l),
(500,660,l),
(894,660,l),
(894,700,l),
(294,700,l),
(36,0,l)
);
},
{
closed = 1;
nodes = (
(324,660,l),
(460,660,l),
(460,280,l),
(184,280,l)
);
}
);
width = 960;
}
);
metricLeft = X;
metricRight = E;
unicode = 198;
},
{
color = 9;
glyphname = B;
kernLeft = I;
kernRight = S;
lastChange = "2026-04-01 10:16:44 +0000";
layers = (
{
anchors = (
{
name = bottom;
pos = (320,0);
},
{
name = top;
pos = (320,700);
}
);
layerId = m003;
shapes = (
{
closed = 1;
nodes = (
(384,0,ls),
(552,0,o),
(632,68,o),
(632,198,cs),
(632,202,ls),
(632,306,o),
(564,352,o),
(514,368,c),
(562,380,o),
(622,414,o),
(622,514,cs),
(622,518,ls),
(622,646,o),
(518,700,o),
(388,700,cs),
(56,700,l),
(56,0,l)
);
},
{
closed = 1;
nodes = (
(232,282,l),
(374,282,ls),
(424,282,o),
(450,256,o),
(450,214,cs),
(450,212,ls),
(450,170,o),
(424,144,o),
(374,144,cs),
(232,144,l)
);
},
{
closed = 1;
nodes = (
(232,556,l),
(368,556,ls),
(420,556,o),
(444,528,o),
(444,488,cs),
(444,486,ls),
(444,446,o),
(420,418,o),
(368,418,cs),
(232,418,l)
);
}
);
width = 660;
},
{
anchors = (
{
name = bottom;
pos = (320,0);
},
{
name = top;
pos = (320,700);
}
);
layerId = m004;
shapes = (
{
closed = 1;
nodes = (
(382,0,ls),
(529,0,o),
(612,58,o),
(612,190,cs),
(612,194,ls),
(612,284,o),
(552,340,o),
(500,356,c),
(544,368,o),
(604,408,o),
(604,508,cs),
(604,512,ls),
(604,638,o),
(508,700,o),
(380,700,cs),
(84,700,l),
(84,0,l)
);
},
{
closed = 1;
nodes = (
(182,306,l),
(372,306,ls),
(458,306,o),
(510,276,o),
(510,198,cs),
(510,194,ls),
(510,110,o),
(449,88,o),
(372,88,cs),
(182,88,l)
);
},
{
closed = 1;
nodes = (
(182,612,l),
(366,612,ls),
(458,612,o),
(500,578,o),
(500,506,cs),
(500,502,ls),
(500,438,o),
(461,394,o),
(372,394,cs),
(182,394,l)
);
}
);
width = 660;
},
{
anchors = (
{
name = bottom;
pos = (320,0);
},
{
name = top;
pos = (320,700);
}
);
layerId = m007;
shapes = (
{
closed = 1;
nodes = (
(388,0,ls),
(545,0,o),
(598,88,o),
(598,182,cs),
(598,186,ls),
(598,290,o),
(526,342,o),
(480,352,c),
(532,372,o),
(588,422,o),
(588,518,cs),
(588,522,ls),
(588,636,o),
(514,700,o),
(378,700,cs),
(100,700,l),
(100,0,l)
);
},
{
closed = 1;
nodes = (
(140,330,l),
(386,330,ls),
(506,330,o),
(558,272,o),
(558,186,cs),
(558,182,ls),
(558,114,o),
(525,40,o),
(386,40,cs),
(140,40,l)
);
},
{
closed = 1;
nodes = (
(140,660,l),
(376,660,ls),
(480,660,o),
(548,614,o),
(548,518,cs),
(548,514,ls),
(548,422,o),
(487,370,o),
(386,370,cs),
(140,370,l)
);
}
);
width = 660;
}
);
metricLeft = N;
unicode = 66;
userData = {
KernOnName = B;
};
},
{
glyphname = Bhook;
kernLeft = T;
kernRight = S;
lastChange = "2026-04-08 08:41:15 +0000";
layers = (
{
anchors = (
{
name = bottom;
pos = (470,0);
},
{
name = top;
pos = (470,700);
}
);
layerId = m007;
shapes = (
{
closed = 1;
nodes = (
(548,0,ls),
(706,0,o),
(758,88,o),
(758,182,cs),
(758,186,ls),
(758,290,o),
(686,342,o),
(640,352,c),
(692,372,o),
(748,422,o),
(748,518,cs),
(748,522,ls),
(748,636,o),
(674,700,o),
(538,700,c),
(150,700,l),
(76,700,o),
(38,662,o),
(38,588,cs),
(38,524,l),
(78,524,l),
(78,588,ls),
(78,636,o),
(102,660,o),
(150,660,cs),
(260,660,l),
(260,0,l)
);
},
{
closed = 1;
nodes = (
(300,330,l),
(546,330,ls),
(666,330,o),
(718,272,o),
(718,186,cs),
(718,182,ls),
(718,114,o),
(686,40,o),
(546,40,cs),
(300,40,l)
);
},
{
closed = 1;
nodes = (
(300,660,l),
(536,660,ls),
(640,660,o),
(708,614,o),
(708,518,cs),
(708,514,ls),
(708,422,o),
(648,370,o),
(546,370,cs),
(300,370,l)
);
}
);
width = 820;
},
{
anchors = (
{
name = bottom;
pos = (470,0);
},
{
name = top;
pos = (470,700);
}
);
layerId = m004;
shapes = (
{
closed = 1;
nodes = (
(542,0,ls),
(690,0,o),
(772,58,o),
(772,190,cs),
(772,194,ls),
(772,284,o),
(712,340,o),
(660,356,c),
(704,368,o),
(764,408,o),
(764,508,cs),
(764,512,ls),
(764,638,o),
(668,700,o),
(540,700,c),
(130,700,l),
(64,700,o),
(30,666,o),
(30,600,cs),
(30,508,l),
(120,508,l),
(120,574,ls),
(120,604,o),
(134,620,o),
(166,620,cs),
(244,620,l),
(244,0,l)
);
},
{
closed = 1;
nodes = (
(342,306,l),
(532,306,ls),
(618,306,o),
(670,276,o),
(670,198,cs),
(670,194,ls),
(670,110,o),
(610,88,o),
(532,88,cs),
(342,88,l)
);
},
{
closed = 1;
nodes = (
(342,612,l),
(526,612,ls),
(618,612,o),
(660,578,o),
(660,506,cs),
(660,502,ls),
(660,438,o),
(622,394,o),
(532,394,cs),
(342,394,l)
);
}
);
width = 820;
},
{
anchors = (
{
name = bottom;
pos = (470,0);
},
{
name = top;
pos = (470,700);
}
);
layerId = m003;
shapes = (
{
closed = 1;
nodes = (
(544,0,ls),
(712,0,o),
(792,68,o),
(792,198,cs),
(792,202,ls),
(792,306,o),
(724,352,o),
(674,368,c),
(722,380,o),
(782,414,o),
(782,514,cs),
(782,518,ls),
(782,646,o),
(678,700,o),
(548,700,c),
(134,700,l),
(58,700,o),
(14,656,o),
(14,580,cs),
(14,484,l),
(160,484,l),
(160,548,ls),
(160,562,o),
(166,568,o),
(180,568,cs),
(216,568,l),
(216,0,l)
);
},
{
closed = 1;
nodes = (
(392,282,l),
(534,282,ls),
(584,282,o),
(610,256,o),
(610,214,cs),
(610,212,ls),
(610,170,o),
(584,144,o),
(534,144,cs),
(392,144,l)
);
},
{
closed = 1;
nodes = (
(392,556,l),
(528,556,ls),
(580,556,o),
(604,528,o),
(604,488,cs),
(604,486,ls),
(604,446,o),
(580,418,o),
(528,418,cs),
(392,418,l)
);
}
);
width = 820;
}
);
metricLeft = Hhook;
unicode = 385;
},
{
color = 9;
glyphname = C;
kernLeft = O;
kernRight = C;
lastChange = "2026-04-07 10:14:05 +0000";
layers = (
{
anchors = (
{
name = bottom;
pos = (360,0);
},
{
name = top;
pos = (360,700);
}
);
guides = (
{
pos = (-8,480);
},
{
pos = (-8,220);
}
);
layerId = m003;
shapes = (
{
closed = 1;
nodes = (
(524,-12,o),
(624,96,o),
(636,220,c),
(454,220,l),
(450,184,o),
(422,146,o),
(358,146,cs),
(354,146,ls),
(274,146,o),
(224,220,o),
(224,348,cs),
(224,352,ls),
(224,480,o),
(274,556,o),
(354,556,cs),
(358,556,ls),
(422,556,o),
(450,516,o),
(454,480,c),
(636,480,l),
(624,604,o),
(524,712,o),
(358,712,cs),
(354,712,ls),
(150,712,o),
(32,558,o),
(32,352,cs),
(32,348,ls),
(32,142,o),
(152,-12,o),
(354,-12,cs),
(358,-12,ls)
);
}
);
width = 660;
},
{
anchors = (
{
name = bottom;
pos = (357,0);
},
{
name = top;
pos = (357,700);
}
);
guides = (
{
pos = (-8,500);
},
{
pos = (-6,200);
}
);
layerId = m004;
shapes = (
{
closed = 1;
nodes = (
(520,-12,o),
(606,90,o),
(618,200,c),
(518,200,l),
(510,144,o),
(464,80,o),
(362,80,cs),
(358,80,ls),
(216,80,o),
(152,204,o),
(152,348,cs),
(152,352,ls),
(152,496,o),
(214,620,o),
(358,620,cs),
(362,620,ls),
(464,620,o),
(510,556,o),
(518,500,c),
(618,500,l),
(606,610,o),
(520,712,o),
(362,712,cs),
(358,712,ls),
(160,712,o),
(52,558,o),
(52,352,cs),
(52,348,ls),
(52,142,o),
(162,-12,o),
(358,-12,cs),
(362,-12,ls)
);
}
);
width = 660;
},
{
anchors = (
{
name = bottom;
pos = (346,0);
},
{
name = top;
pos = (353,700);
}
);
guides = (
{
pos = (-8,520);
},
{
pos = (-8,180);
}
);
layerId = m007;
shapes = (
{
closed = 1;
nodes = (
(502,-12,o),
(592,76,o),
(608,180,c),
(568,180,l),
(552,100,o),
(480,28,o),
(364,28,cs),
(360,28,ls),
(190,28,o),
(100,168,o),
(100,348,cs),
(100,352,ls),
(100,532,o),
(188,672,o),
(360,672,cs),
(364,672,ls),
(480,672,o),
(552,600,o),
(568,520,c),
(608,520,l),
(592,624,o),
(502,712,o),
(364,712,cs),
(360,712,ls),
(158,712,o),
(60,550,o),
(60,352,cs),
(60,348,ls),
(60,150,o),
(160,-12,o),
(360,-12,cs),
(364,-12,ls)
);
}
);
width = 660;
}
);
metricLeft = O;
unicode = 67;
},
{
color = 8;
glyphname = Ccedilla;
kernLeft = O;
kernRight = C;
lastChange = "2026-04-08 08:29:11 +0000";
layers = (
{
anchors = (
{
name = bottom;
pos = (360,-200);
},
{
name = top;
pos = (360,700);
}
);
layerId = m003;
shapes = (
{
closed = 1;
nodes = (
(450,-200,o),
(498,-152,o),
(498,-82,cs),
(498,-78,ls),
(498,-44,o),
(486,-16,o),
(468,6,c),
(568,42,o),
(628,128,o),
(636,220,c),
(454,220,l),
(450,184,o),
(422,146,o),
(358,146,cs),
(354,146,ls),
(274,146,o),
(224,220,o),
(224,348,cs),
(224,352,ls),
(224,480,o),
(274,556,o),
(354,556,cs),
(358,556,ls),
(422,556,o),
(450,516,o),
(454,480,c),
(636,480,l),
(624,604,o),
(524,712,o),
(358,712,cs),
(354,712,ls),
(150,712,o),
(32,558,o),
(32,352,cs),
(32,348,ls),
(32,144,o),
(148,-8,o),
(346,-12,c),
(378,-26,o),
(396,-44,o),
(396,-74,cs),
(396,-78,ls),
(396,-106,o),
(384,-118,o),
(360,-118,cs),
(334,-118,o),
(322,-102,o),
(322,-68,c),
(220,-68,l),
(224,-144,o),
(266,-200,o),
(364,-200,cs)
);
}
);
width = 660;
},
{
anchors = (
{
name = bottom;
pos = (360,-200);
},
{
name = top;
pos = (360,700);
}
);
layerId = m004;
shapes = (
{
closed = 1;
nodes = (
(440,-200,o),
(476,-154,o),
(476,-98,cs),
(476,-94,ls),
(476,-60,o),
(462,-28,o),
(440,-2,c),
(548,24,o),
(608,108,o),
(618,200,c),
(518,200,l),
(510,144,o),
(464,80,o),
(362,80,cs),
(358,80,ls),
(216,80,o),
(152,204,o),
(152,348,cs),
(152,352,ls),
(152,496,o),
(214,620,o),
(358,620,cs),
(362,620,ls),
(464,620,o),
(510,556,o),
(518,500,c),
(618,500,l),
(606,610,o),
(520,712,o),
(362,712,cs),
(358,712,ls),
(160,712,o),
(52,558,o),
(52,352,cs),
(52,348,ls),
(52,146,o),
(158,-6,o),
(346,-12,c),
(382,-36,o),
(394,-66,o),
(394,-90,cs),
(394,-94,ls),
(394,-112,o),
(386,-130,o),
(360,-130,cs),
(332,-130,o),
(324,-110,o),
(322,-86,c),
(238,-86,l),
(246,-142,o),
(276,-200,o),
(360,-200,cs)
);
}
);
width = 660;
},
{
anchors = (
{
name = bottom;
pos = (360,-200);
},
{
name = top;
pos = (360,700);
}
);
layerId = m007;
shapes = (
{
closed = 1;
nodes = (
(414,-200,o),
(446,-160,o),
(446,-110,cs),
(446,-106,ls),
(446,-72,o),
(428,-36,o),
(404,-10,c),
(520,6,o),
(594,88,o),
(608,180,c),
(568,180,l),
(552,100,o),
(480,28,o),
(364,28,cs),
(360,28,ls),
(190,28,o),
(100,168,o),
(100,348,cs),
(100,352,ls),
(100,532,o),
(188,672,o),
(360,672,cs),
(364,672,ls),
(480,672,o),
(552,600,o),
(568,520,c),
(608,520,l),
(592,624,o),
(502,712,o),
(364,712,cs),
(360,712,ls),
(158,712,o),
(60,550,o),
(60,352,cs),
(60,348,ls),
(60,154,o),
(156,-6,o),
(350,-12,c),
(384,-36,o),
(406,-74,o),
(406,-106,cs),
(406,-110,ls),
(406,-136,o),
(388,-160,o),
(350,-160,cs),
(312,-160,o),
(296,-138,o),
(292,-100,c),
(248,-100,l),
(252,-154,o),
(286,-200,o),
(350,-200,cs)
);
}
);
width = 660;
}
);
unicode = 199;
},
{
color = 9;
glyphname = D;
kernLeft = I;
kernRight = O;
lastChange = "2026-04-01 10:33:33 +0000";
layers = (
{
anchors = (
{
name = bottom;
pos = (320,0);
},
{
name = top;
pos = (320,700);
}
);
layerId = m003;
shapes = (
{
closed = 1;
nodes = (
(282,0,ls),
(509,0,o),
(648,118,o),
(648,348,cs),
(648,352,ls),
(648,580,o),
(510,700,o),
(282,700,cs),
(56,700,l),
(56,0,l)
);
},
{
closed = 1;
nodes = (
(246,548,l),
(294,548,ls),
(394,548,o),
(456,486,o),
(456,352,cs),
(456,348,ls),
(456,212,o),
(394,152,o),
(294,152,cs),
(246,152,l)
);
}
);
width = 680;
},
{
anchors = (
{
name = bottom;
pos = (320,0);
},
{
name = top;
pos = (320,700);
}
);
layerId = m004;
shapes = (
{
closed = 1;
nodes = (
(260,0,ls),
(515,0,o),
(628,128,o),
(628,348,cs),
(628,352,ls),
(628,570,o),
(516,700,o),
(260,700,cs),
(84,700,l),
(84,0,l)
);
},
{
closed = 1;
nodes = (
(184,608,l),
(256,608,ls),
(444,608,o),
(528,530,o),
(528,352,cs),
(528,348,ls),
(528,168,o),
(443,92,o),
(256,92,cs),
(184,92,l)
);
}
);
width = 680;
},
{
anchors = (
{
name = bottom;
pos = (320,0);
},
{
name = top;
pos = (320,700);
}
);
layerId = m007;
shapes = (
{
closed = 1;
nodes = (
(252,0,ls),
(497,0,o),
(620,110,o),
(620,348,cs),
(620,352,ls),
(620,590,o),
(498,700,o),
(252,700,cs),
(100,700,l),
(100,0,l)
);
},
{
closed = 1;
nodes = (
(140,660,l),
(250,660,ls),
(470,660,o),
(580,566,o),
(580,352,cs),
(580,348,ls),
(580,132,o),
(469,40,o),
(250,40,cs),
(140,40,l)
);
}
);
width = 680;
}
);
metricLeft = N;
metricRight = O;
unicode = 68;
},
{
glyphname = Dhook;
kernLeft = T;
kernRight = O;
lastChange = "2026-04-08 08:41:21 +0000";
layers = (
{
anchors = (
{
name = bottom;
pos = (470,0);
},
{
name = top;
pos = (470,700);
}
);
layerId = m007;
shapes = (
{
closed = 1;
nodes = (
(412,0,ls),
(658,0,o),
(780,110,o),
(780,348,cs),
(780,352,ls),
(780,590,o),
(658,700,o),
(412,700,c),
(150,700,l),
(76,700,o),
(38,662,o),
(38,588,cs),
(38,524,l),
(78,524,l),
(78,588,ls),
(78,636,o),
(102,660,o),
(150,660,cs),
(260,660,l),
(260,0,l)
);
},
{
closed = 1;
nodes = (
(300,660,l),
(410,660,ls),
(630,660,o),
(740,566,o),
(740,352,cs),
(740,348,ls),
(740,132,o),
(630,40,o),
(410,40,cs),
(300,40,l)
);
}
);
width = 840;
},
{
anchors = (
{
name = bottom;
pos = (470,0);
},
{
name = top;
pos = (470,700);
}
);
layerId = m004;
shapes = (
{
closed = 1;
nodes = (
(420,0,ls),
(676,0,o),
(788,128,o),
(788,348,cs),
(788,352,ls),
(788,570,o),
(676,700,o),
(420,700,c),
(138,700,l),
(72,700,o),
(30,658,o),
(30,592,cs),
(30,508,l),
(120,508,l),
(120,574,ls),
(120,604,o),
(134,620,o),
(166,620,cs),
(244,620,l),
(244,0,l)
);
},
{
closed = 1;
nodes = (
(344,608,l),
(416,608,ls),
(604,608,o),
(688,530,o),
(688,352,cs),
(688,348,ls),
(688,168,o),
(604,92,o),
(416,92,cs),
(344,92,l)
);
}
);
width = 840;
},
{
anchors = (
{
name = bottom;
pos = (470,0);
},
{
name = top;
pos = (470,700);
}
);
layerId = m003;
shapes = (
{
closed = 1;
nodes = (
(442,0,ls),
(670,0,o),
(808,118,o),
(808,348,cs),
(808,352,ls),
(808,580,o),
(670,700,o),
(442,700,c),
(134,700,l),
(62,700,o),
(14,652,o),
(14,580,cs),
(14,484,l),
(150,484,l),
(150,548,ls),
(150,562,o),
(156,568,o),
(170,568,cs),
(216,568,l),
(216,0,l)
);
},
{
closed = 1;
nodes = (
(406,548,l),
(454,548,ls),
(554,548,o),
(616,486,o),
(616,352,cs),
(616,348,ls),
(616,212,o),
(554,152,o),
(454,152,cs),
(406,152,l)
);
}
);
width = 840;
}
);
metricLeft = Hhook;
unicode = 394;
},
{
color = 8;
glyphname = Eth;
kernLeft = I;
kernRight = O;
lastChange = "2026-04-07 14:26:59 +0000";
layers = (
{
anchors = (
{
name = bottom;
pos = (320,0);
},
{
name = top;
pos = (320,700);
}
);
layerId = m003;
shapes = (
{
closed = 1;
nodes = (
(282,0,ls),
(510,0,o),
(648,118,o),
(648,348,cs),
(648,352,ls),
(648,580,o),
(510,700,o),
(282,700,cs),
(56,700,l),
(56,390,l),
(0,390,l),
(0,310,l),
(56,310,l),
(56,0,l)
);
},
{
closed = 1;
nodes = (
(246,310,l),
(320,310,l),
(320,390,l),
(246,390,l),
(246,548,l),
(294,548,ls),
(394,548,o),
(456,486,o),
(456,352,cs),
(456,348,ls),
(456,212,o),
(394,152,o),
(294,152,cs),
(246,152,l)
);
}
);
width = 680;
},
{
anchors = (
{
name = bottom;
pos = (320,0);
},
{
name = top;
pos = (320,700);
}
);
layerId = m004;
shapes = (
{
closed = 1;
nodes = (
(260,0,ls),
(516,0,o),
(628,128,o),
(628,348,cs),
(628,352,ls),
(628,570,o),
(516,700,o),
(260,700,cs),
(84,700,l),
(84,386,l),
(0,386,l),
(0,314,l),
(84,314,l),
(84,0,l)
);
},
{
closed = 1;
nodes = (
(184,314,l),
(320,314,l),
(320,386,l),
(184,386,l),
(184,608,l),
(256,608,ls),
(444,608,o),
(528,530,o),
(528,352,cs),
(528,348,ls),
(528,168,o),
(444,92,o),
(256,92,cs),
(184,92,l)
);
}
);
width = 680;
},
{
anchors = (
{
name = bottom;
pos = (320,0);
},
{
name = top;
pos = (320,700);
}
);
layerId = m007;
shapes = (
{
closed = 1;
nodes = (
(252,0,ls),
(498,0,o),
(620,110,o),
(620,348,cs),
(620,352,ls),
(620,590,o),
(498,700,o),
(252,700,cs),
(100,700,l),
(100,370,l),
(0,370,l),
(0,330,l),
(100,330,l),
(100,0,l)
);
},
{
closed = 1;
nodes = (
(140,330,l),
(320,330,l),
(320,370,l),
(140,370,l),
(140,660,l),
(250,660,ls),
(470,660,o),
(580,566,o),
(580,352,cs),
(580,348,ls),
(580,132,o),
(470,40,o),
(250,40,cs),
(140,40,l)
);
}
);
width = 680;
}
);
metricRight = D;
unicode = 208;
},
{
color = 9;
glyphname = E;
kernLeft = I;
kernRight = E;
lastChange = "2026-04-01 07:36:06 +0000";
layers = (
{
anchors = (
{
name = bottom;
pos = (320,0);
},
{
name = ogonek;
pos = (514,0);
},
{
name = top;
pos = (320,700);
}
);
layerId = m003;
shapes = (
{
closed = 1;
nodes = (
(564,0,l),
(564,152,l),
(246,152,l),
(246,282,l),
(540,282,l),
(540,418,l),
(246,418,l),
(246,548,l),
(564,548,l),
(564,700,l),
(56,700,l),
(56,0,l)
);
}
);
width = 600;
},
{
anchors = (
{
name = bottom;
pos = (320,0);
},
{
name = ogonek;
pos = (514,0);
},
{
name = top;
pos = (320,700);
}
);
layerId = m004;
shapes = (
{
closed = 1;
nodes = (
(548,0,l),
(548,88,l),
(184,88,l),
(184,306,l),
(522,306,l),
(522,394,l),
(184,394,l),
(184,612,l),
(548,612,l),
(548,700,l),
(84,700,l),
(84,0,l)
);
}
);
width = 600;
},
{
anchors = (
{
name = bottom;
pos = (320,0);
},
{
name = ogonek;
pos = (514,0);
},
{
name = top;
pos = (320,700);
}
);
layerId = m007;
shapes = (
{
closed = 1;
nodes = (
(534,0,l),
(534,40,l),
(140,40,l),
(140,330,l),
(512,330,l),
(512,370,l),
(140,370,l),
(140,660,l),
(534,660,l),
(534,700,l),
(100,700,l),
(100,0,l)
);
}
);
width = 600;
}
);
metricLeft = N;
unicode = 69;
userData = {
KernOnName = E;
};
},
{
color = 8;
glyphname = Eogonek;
kernLeft = I;
kernRight = "I-des";
lastChange = "2026-04-08 08:32:09 +0000";
layers = (
{
anchors = (
{
name = bottom;
pos = (320,-200);
},
{
name = ogonek;
pos = (514,-200);
},
{
name = top;
pos = (320,700);
}
);
layerId = m003;
shapes = (
{
closed = 1;
nodes = (
(432,0,l),
(394,-16,o),
(376,-54,o),
(376,-88,cs),
(376,-92,ls),
(376,-152,o),
(424,-200,o),
(510,-200,cs),
(608,-200,o),
(650,-144,o),
(654,-68,c),
(552,-68,l),
(552,-102,o),
(540,-118,o),
(514,-118,cs),
(490,-118,o),
(478,-106,o),
(478,-78,cs),
(478,-74,ls),
(478,-42,o),
(502,0,o),
(564,0,c),
(564,152,l),
(246,152,l),
(246,282,l),
(540,282,l),
(540,418,l),
(246,418,l),
(246,548,l),
(564,548,l),
(564,700,l),
(56,700,l),
(56,0,l)
);
}
);
width = 600;
},
{
anchors = (
{
name = bottom;
pos = (320,-200);
},
{
name = ogonek;
pos = (514,-200);
},
{
name = top;
pos = (320,700);
}
);
layerId = m004;
shapes = (
{
closed = 1;
nodes = (
(454,0,l),
(416,-22,o),
(396,-58,o),
(396,-94,cs),
(396,-98,ls),
(396,-154,o),
(432,-200,o),
(512,-200,cs),
(596,-200,o),
(626,-142,o),
(634,-86,c),
(550,-86,l),
(548,-110,o),
(540,-130,o),
(512,-130,cs),
(486,-130,o),
(478,-112,o),
(478,-94,cs),
(478,-90,ls),
(478,-62,o),
(494,-28,o),
(548,0,c),
(548,88,l),
(184,88,l),
(184,306,l),
(522,306,l),
(522,394,l),
(184,394,l),
(184,612,l),
(548,612,l),
(548,700,l),
(84,700,l),
(84,0,l)
);
}
);
width = 600;
},
{
anchors = (
{
name = bottom;
pos = (320,-200);
},
{
name = ogonek;
pos = (514,-200);
},
{
name = top;
pos = (320,700);
}
);
layerId = m007;
shapes = (
{
closed = 1;
nodes = (
(476,0,l),
(434,-28,o),
(414,-66,o),
(414,-106,cs),
(414,-110,ls),
(414,-160,o),
(446,-200,o),
(510,-200,cs),
(574,-200,o),
(608,-154,o),
(612,-100,c),
(568,-100,l),
(564,-138,o),
(548,-160,o),
(510,-160,cs),
(472,-160,o),
(454,-136,o),
(454,-110,cs),
(454,-106,ls),
(454,-68,o),
(486,-22,o),
(534,0,c),
(534,40,l),
(140,40,l),
(140,330,l),
(512,330,l),
(512,370,l),
(140,370,l),
(140,660,l),
(534,660,l),
(534,700,l),
(100,700,l),
(100,0,l)
);
}
);
width = 600;
}
);
unicode = 280;
},
{
color = 8;
glyphname = Schwa;
kernLeft = O;
kernRight = O;
lastChange = "2026-04-01 10:34:04 +0000";
layers = (
{
anchors = (
{
name = bottom;
pos = (340,0);
},
{
name = top;
pos = (340,700);
}
);
guides = (
{
pos = (-8,480);
}
);
layerId = m003;
shapes = (
{
closed = 1;
nodes = (
(540,-12,o),
(668,122,o),
(668,348,cs),
(668,352,ls),
(668,580,o),
(528,712,o),
(340,712,cs),
(336,712,ls),
(156,712,o),
(58,600,o),
(40,480,c),
(230,480,l),
(236,516,o),
(270,560,o),
(336,560,cs),
(340,560,ls),
(440,560,o),
(482,482,o),
(482,352,cs),
(482,348,ls),
(482,208,o),
(438,140,o),
(346,140,cs),
(342,140,ls),
(258,140,o),
(220,200,o),
(220,272,c),
(220,282,l),
(556,282,l),
(556,418,l),
(32,418,l),
(32,340,ls),
(32,132,o),
(144,-12,o),
(346,-12,cs),
(350,-12,ls)
);
}
);
width = 700;
},
{
anchors = (
{
name = bottom;
pos = (340,0);
},
{
name = top;
pos = (340,700);
}
);
guides = (
{
pos = (-8,500);
}
);
layerId = m004;
shapes = (
{
closed = 1;
nodes = (
(540,-12,o),
(648,140,o),
(648,348,cs),
(648,352,ls),
(648,558,o),
(534,712,o),
(334,712,cs),
(330,712,ls),
(170,712,o),
(76,610,o),
(64,500,c),
(164,500,l),
(172,556,o),
(222,624,o),
(330,624,cs),
(334,624,ls),
(486,624,o),
(548,498,o),
(548,352,cs),
(548,348,ls),
(548,190,o),
(486,76,o),
(346,76,cs),
(342,76,ls),
(214,76,o),
(152,162,o),
(152,304,c),
(152,306,l),
(582,306,l),
(582,394,l),
(52,394,l),
(52,322,ls),
(52,126,o),
(158,-12,o),
(342,-12,cs),
(346,-12,ls)
);
}
);
width = 700;
},
{
anchors = (
{
name = bottom;
pos = (340,0);
},
{
name = top;
pos = (340,700);
}
);
guides = (
{
pos = (-8,520);
}
);
layerId = m007;
shapes = (
{
closed = 1;
nodes = (
(538,-12,o),
(640,142,o),
(640,348,cs),
(640,352,ls),
(640,575.045,o),
(522,712,o),
(334,712,cs),
(330,712,ls),
(186,712,o),
(90,628,o),
(74,520,c),
(114,520,l),
(130,604,o),
(208,672,o),
(330,672,cs),
(334,672,ls),
(518,672,o),
(600,524,o),
(600,352,cs),
(600,348,ls),
(600,164,o),
(518,28,o),
(348,28,cs),
(344,28,ls),
(172,28,o),
(104,162,o),
(104,328,c),
(104,330,l),
(616,330,l),
(616,370,l),
(60,370,l),
(60,352,ls),
(60,135,o),
(152,-12,o),
(344,-12,cs),
(348,-12,ls)
);
}
);
width = 700;
}
);
metricLeft = O;
metricRight = O;
unicode = 399;
},
{
color = 8;
glyphname = Ezh;
kernLeft = C;
kernRight = U;
lastChange = "2026-04-01 10:35:48 +0000";
layers = (
{
anchors = (
{
name = bottom;
pos = (310,0);
},
{
name = top;
pos = (310,700);
}
);
guides = (
{
pos = (-8,220);
}
);
layerId = m003;
shapes = (
{
closed = 1;
nodes = (
(480,-12,o),
(592,74,o),
(592,216,cs),
(592,220,ls),
(592,336,o),
(512,412,o),
(398,434,c),
(582,592,l),
(582,700,l),
(40,700,l),
(40,558,l),
(350,558,l),
(170,398,l),
(170,300,l),
(288,300,ls),
(352,300,o),
(402,274,o),
(402,220,cs),
(402,216,ls),
(402,164,o),
(366,136,o),
(314,136,cs),
(310,136,ls),
(250,136,o),
(212,166,o),
(208,220,c),
(24,220,l),
(36,76,o),
(146,-10,o),
(310,-12,cs),
(314,-12,ls)
);
}
);
width = 620;
},
{
anchors = (
{
name = bottom;
pos = (310,0);
},
{
name = top;
pos = (310,700);
}
);
guides = (
{
pos = (-8,200);
}
);
layerId = m004;
shapes = (
{
closed = 1;
nodes = (
(475,-12,o),
(572,72,o),
(572,202,cs),
(572,206,ls),
(572,348,o),
(472,410,o),
(336,414,c),
(556,634,l),
(556,700,l),
(60,700,l),
(60,612,l),
(412,612,l),
(196,392,l),
(196,336,l),
(264,336,ls),
(394,336,o),
(472,310,o),
(472,206,cs),
(472,202,ls),
(472,126,o),
(422,76,o),
(314,76,cs),
(310,76,ls),
(192,76,o),
(146,126,o),
(142,200,c),
(42,200,l),
(46,49,o),
(174,-10,o),
(310,-12,cs),
(314,-12,ls)
);
}
);
width = 620;
},
{
anchors = (
{
name = bottom;
pos = (310,0);
},
{
name = top;
pos = (310,700);
}
);
guides = (
{
pos = (-8,180);
}
);
layerId = m007;
shapes = (
{
closed = 1;
nodes = (
(457,-12,o),
(558,64,o),
(558,192,cs),
(558,196,ls),
(558,346,o),
(438,400,o),
(282,400,c),
(544,668,l),
(544,700,l),
(72,700,l),
(72,660,l),
(484,660,l),
(222,390,l),
(222,362,l),
(260,362,ls),
(416,362,o),
(518,324,o),
(518,196,cs),
(518,192,ls),
(518,80,o),
(424,28,o),
(308,28,cs),
(304,28,ls),
(180,28,o),
(100,81,o),
(92,180,c),
(52,180,l),
(60,61,o),
(152,-10,o),
(304,-12,cs),
(308,-12,ls)
);
}
);
width = 620;
}
);
metricLeft = "Ereversed-cy";
metricRight = B;
unicode = 439;
},
{
color = 9;
glyphname = F;
kernLeft = I;
kernRight = Psi;
lastChange = "2026-04-01 07:36:11 +0000";
layers = (
{
anchors = (
{
name = bottom;
pos = (150,0);
},
{
name = top;
pos = (290,700);
}
);
layerId = m003;
shapes = (
{
closed = 1;
nodes = (
(246,0,l),
(246,548,l),
(550,548,l),
(550,700,l),
(56,700,l),
(56,0,l)
);
},
{
closed = 1;
nodes = (
(530,282,l),
(530,418,l),
(190,418,l),
(190,282,l)
);
}
);
width = 580;
},
{
anchors = (
{
name = bottom;
pos = (140,0);
},
{
name = top;
pos = (290,700);
}
);
layerId = m004;
shapes = (
{
closed = 1;
nodes = (
(184,0,l),
(184,612,l),
(532,612,l),
(532,700,l),
(84,700,l),
(84,0,l)
);
},
{
closed = 1;
nodes = (
(492,306,l),
(492,394,l),
(144,394,l),
(144,306,l)
);
}
);
width = 580;
},
{
anchors = (
{
name = bottom;
pos = (120,0);
},
{
name = top;
pos = (290,700);
}
);
layerId = m007;
shapes = (
{
closed = 1;
nodes = (
(140,0,l),
(140,660,l),
(524,660,l),
(524,700,l),
(100,700,l),
(100,0,l)
);
},
{
closed = 1;
nodes = (
(484,330,l),
(484,370,l),
(130,370,l),
(130,330,l)
);
}
);
width = 580;
}
);
metricLeft = N;
unicode = 70;
userData = {
KernOnName = F;
};
},
{
color = 8;
glyphname = Fhook;
kernLeft = "j-I";
kernRight = Psi;
lastChange = "2026-04-08 08:25:54 +0000";
layers = (
{
anchors = (
{
name = bottom;
pos = (110,-200);
},
{
name = top;
pos = (320,700);
}
);
layerId = m007;
shapes = (
{
closed = 1;
nodes = (
(100,-72,l),
(100,-134,o),
(74,-160,o),
(12,-160,cs),
(-52,-160,l),
(-52,-200,l),
(16,-200,ls),
(98,-200,o),
(140,-158,o),
(140,-76,c),
(140,330,l),
(484,330,l),
(484,370,l),
(140,370,l),
(140,660,l),
(524,660,l),
(524,700,l),
(100,700,l)
);
}
);
width = 580;
},
{
anchors = (
{
name = bottom;
pos = (130,-200);
},
{
name = top;
pos = (320,700);
}
);
layerId = m004;
shapes = (
{
closed = 1;
nodes = (
(84,-56,l),
(84,-92,o),
(68,-108,o),
(32,-108,cs),
(-38,-108,l),
(-38,-200,l),
(54,-200,ls),
(142,-200,o),
(184,-156,o),
(184,-68,c),
(184,306,l),
(492,306,l),
(492,394,l),
(184,394,l),
(184,612,l),
(532,612,l),
(532,700,l),
(84,700,l)
);
}
);
width = 580;
},
{
anchors = (
{
name = bottom;
pos = (140,-200);
},
{
name = top;
pos = (320,700);
}
);
layerId = m003;
shapes = (
{
closed = 1;
nodes = (
(56,-18,l),
(56,-36,o),
(46,-46,o),
(28,-46,cs),
(-24,-46,l),
(-24,-200,l),
(104,-200,ls),
(192,-200,o),
(246,-146,o),
(246,-58,c),
(246,282,l),
(530,282,l),
(530,418,l),
(246,418,l),
(246,548,l),
(550,548,l),
(550,700,l),
(56,700,l)
);
}
);
width = 580;
}
);
unicode = 401;
},
{
color = 9;
glyphname = G;
kernLeft = O;
kernRight = O;
lastChange = "2026-04-01 10:32:59 +0000";
layers = (
{
anchors = (
{
name = bottom;
pos = (360,0);
},
{
name = top;
pos = (360,700);
}
);
guides = (
{
pos = (-8,480);
}
);
layerId = m003;
shapes = (
{
closed = 1;
nodes = (
(582,-12,o),
(668,138,o),
(668,308,cs),
(668,312,ls),
(668,386,o),
(668,380,o),
(666,400,c),
(350,400,l),
(350,262,l),
(488,262,l),
(488,262,o),
(488,262,o),
(488,260,cs),
(488,186,o),
(446,142,o),
(372,142,cs),
(368,142,ls),
(284,142,o),
(224,208,o),
(224,348,cs),
(224,352,ls),
(224,492,o),
(286,560,o),
(370,560,cs),
(374,560,ls),
(440,560,o),
(472,516,o),
(474,480,c),
(658,480,l),
(644,610,o),
(532,712,o),
(370,712,cs),
(366,712,ls),
(170,712,o),
(32,568,o),
(32,352,cs),
(32,348,ls),
(32,132,o),
(170,-12,o),
(364,-12,cs),
(368,-12,ls)
);
}
);
width = 700;
},
{
anchors = (
{
name = bottom;
pos = (360,0);
},
{
name = top;
pos = (360,700);
}
);
guides = (
{
pos = (-8,500);
}
);
layerId = m004;
shapes = (
{
closed = 1;
nodes = (
(568,-12,o),
(648,134,o),
(648,332,cs),
(648,336,ls),
(648,360,o),
(648,370,o),
(646,384,c),
(350,384,l),
(350,296,l),
(550,296,l),
(550,295,o),
(550,295,o),
(550,294,cs),
(550,178,o),
(500,76,o),
(370,76,cs),
(366,76,ls),
(228,76,o),
(152,200,o),
(152,348,cs),
(152,352,ls),
(152,500,o),
(226,624,o),
(366,624,cs),
(370,624,ls),
(470,624,o),
(524,560,o),
(532,500,c),
(628,500,l),
(616,614,o),
(520,712,o),
(368,712,cs),
(364,712,ls),
(170,712,o),
(52,558,o),
(52,352,cs),
(52,348,ls),
(52,142,o),
(170,-12,o),
(362,-12,cs),
(366,-12,ls)
);
}
);
width = 700;
},
{
anchors = (
{
name = bottom;
pos = (360,0);
},
{
name = top;
pos = (360,700);
}
);
guides = (
{
pos = (-8,520);
}
);
layerId = m007;
shapes = (
{
closed = 1;
nodes = (
(574,-12,o),
(640,144,o),
(640,348,cs),
(640,352,ls),
(640,356,o),
(640,362,o),
(638,370,c),
(350,370,l),
(350,330,l),
(600,330,l),
(600,329,o),
(600,329,o),
(600,328,cs),
(600,162,o),
(540,28,o),
(366,28,cs),
(362,28,ls),
(196,28,o),
(100,160,o),
(100,348,cs),
(100,352,ls),
(100,540,o),
(198,672,o),
(362,672,cs),
(366,672,ls),
(512,672,o),
(566,572,o),
(574,520,c),
(616,520,l),
(608,592,o),
(536,712,o),
(366,712,cs),
(362,712,ls),
(168,712,o),
(60,558,o),
(60,352,cs),
(60,348,ls),
(60,142,o),
(170,-12,o),
(362,-12,cs),
(366,-12,ls)
);
}
);
width = 700;
}
);
metricLeft = O;
metricRight = O;
unicode = 71;
},
{
glyphname = G.cv06;
kernLeft = O;
kernRight = Omega;
lastChange = "2026-04-01 10:33:11 +0000";
layers = (
{
anchors = (
{
name = bottom;
pos = (360,0);
},
{
name = top;
pos = (360,700);
}
);
guides = (
{
pos = (-8,480);
}
);
layerId = m003;
shapes = (
{
closed = 1;
nodes = (
(428,-12,o),
(486,34,o),
(508,84,c),
(508,0,l),
(668,0,l),
(668,400,l),
(350,400,l),
(350,262,l),
(494,262,l),
(494,261,o),
(494,261,o),
(494,260,cs),
(493,193,o),
(452,142,o),
(372,142,cs),
(368,142,ls),
(284,142,o),
(224,208,o),
(224,348,cs),
(224,352,ls),
(224,492,o),
(286,560,o),
(370,560,cs),
(374,560,ls),
(440,560,o),
(472,516,o),
(474,480,c),
(658,480,l),
(644,612,o),
(536,712,o),
(370,712,cs),
(366,712,ls),
(170,712,o),
(32,568,o),
(32,352,cs),
(32,348,ls),
(32,132,o),
(146,-12,o),
(338,-12,cs),
(342,-12,ls)
);
}
);
width = 720;
},
{
anchors = (
{
name = bottom;
pos = (360,0);
},
{
name = top;
pos = (360,700);
}
);
guides = (
{
pos = (-8,500);
}
);
layerId = m004;
shapes = (
{
closed = 1;
nodes = (
(470,-12,o),
(534,38,o),
(552,90,c),
(552,0,l),
(642,0,l),
(642,384,l),
(350,384,l),
(350,296,l),
(552,296,l),
(552,295,o),
(552,295,o),
(552,294,cs),
(551,161,o),
(498,76,o),
(366,76,cs),
(362,76,ls),
(222,76,o),
(152,200,o),
(152,348,cs),
(152,352,ls),
(152,500,o),
(224,624,o),
(366,624,cs),
(370,624,ls),
(468,624,o),
(524,560,o),
(532,500,c),
(628,500,l),
(616,614,o),
(518,712,o),
(368,712,cs),
(364,712,ls),
(168,712,o),
(52,558,o),
(52,352,cs),
(52,348,ls),
(52,142,o),
(158,-12,o),
(352,-12,cs),
(356,-12,ls)
);
}
);
width = 720;
},
{
anchors = (
{
name = bottom;
pos = (360,0);
},
{
name = top;
pos = (360,700);
}
);
guides = (
{
pos = (-8,520);
}
);
layerId = m007;
shapes = (
{
closed = 1;
nodes = (
(526,-12,o),
(574,82,o),
(590,124,c),
(590,0,l),
(630,0,l),
(630,370,l),
(350,370,l),
(350,330,l),
(592,330,l),
(592,329,o),
(592,329,o),
(592,328,cs),
(592,124,o),
(518,28,o),
(368,28,cs),
(364,28,ls),
(198,28,o),
(100,160,o),
(100,348,cs),
(100,352,ls),
(100,540,o),
(198,672,o),
(362,672,cs),
(366,672,ls),
(512,672,o),
(568,572,o),
(576,520,c),
(616,520,l),
(608,592,o),
(536,712,o),
(366,712,cs),
(362,712,ls),
(168,712,o),
(60,558,o),
(60,352,cs),
(60,348,ls),
(60,142,o),
(168,-12,o),
(360,-12,cs),
(364,-12,ls)
);
}
);
width = 720;
}
);
metricLeft = O;
metricRight = U;
},
{
glyphname = Ghook;
kernLeft = O;
kernRight = U;
lastChange = "2026-04-08 08:35:33 +0000";
layers = (
{
anchors = (
{
name = bottom;
pos = (360,0);
},
{
name = top;
pos = (600,900);
}
);
layerId = m007;
shapes = (
{
closed = 1;
nodes = (
(574,-12,o),
(640,144,o),
(640,348,cs),
(640,352,ls),
(640,356,o),
(640,362,o),
(638,370,c),
(350,370,l),
(350,330,l),
(600,330,l),
(600,330,o),
(600,330,o),
(600,328,cs),
(600,162,o),
(540,28,o),
(366,28,cs),
(362,28,ls),
(196,28,o),
(100,160,o),
(100,348,cs),
(100,352,ls),
(100,540,o),
(198,672,o),
(362,672,cs),
(366,672,ls),
(512,672,o),
(566,572,o),
(574,520,c),
(576,520,l),
(616,520,l),
(616,772,ls),
(616,830,o),
(646,860,o),
(704,860,cs),
(746,860,l),
(746,900,l),
(704,900,ls),
(616,900,o),
(576,860,o),
(576,772,cs),
(576,606,l),
(538,666,o),
(470,712,o),
(366,712,cs),
(362,712,ls),
(168,712,o),
(60,558,o),
(60,352,cs),
(60,348,ls),
(60,142,o),
(170,-12,o),
(362,-12,cs),
(366,-12,ls)
);
}
);
width = 700;
},
{
anchors = (
{
name = bottom;
pos = (360,0);
},
{
name = top;
pos = (600,900);
}
);
layerId = m004;
shapes = (
{
closed = 1;
nodes = (
(568,-12,o),
(648,134,o),
(648,332,cs),
(648,336,ls),
(648,360,o),
(648,370,o),
(646,384,c),
(350,384,l),
(350,296,l),
(550,296,l),
(550,296,o),
(550,296,o),
(550,294,cs),
(550,178,o),
(500,76,o),
(370,76,cs),
(366,76,ls),
(228,76,o),
(152,200,o),
(152,348,cs),
(152,352,ls),
(152,500,o),
(226,624,o),
(366,624,cs),
(370,624,ls),
(470,624,o),
(524,560,o),
(532,500,c),
(544,500,l),
(628,500,l),
(628,756,ls),
(628,798,o),
(646,820,o),
(692,820,cs),
(724,820,l),
(724,900,l),
(676,900,ls),
(588,900,o),
(544,856,o),
(544,768,cs),
(544,634,l),
(508,680,o),
(450,712,o),
(358,712,cs),
(354,712,ls),
(170,712,o),
(52,558,o),
(52,352,cs),
(52,348,ls),
(52,142,o),
(170,-12,o),
(362,-12,cs),
(366,-12,ls)
);
}
);
width = 700;
},
{
anchors = (
{
name = bottom;
pos = (360,0);
},
{
name = top;
pos = (600,900);
}
);
layerId = m003;
shapes = (
{
closed = 1;
nodes = (
(582,-12,o),
(668,138,o),
(668,308,cs),
(668,312,ls),
(668,386,o),
(668,380,o),
(666,400,c),
(350,400,l),
(350,262,l),
(488,262,l),
(488,262,o),
(488,262,o),
(488,260,cs),
(488,186,o),
(446,142,o),
(372,142,cs),
(368,142,ls),
(284,142,o),
(224,208,o),
(224,348,cs),
(224,352,ls),
(224,492,o),
(286,560,o),
(370,560,cs),
(374,560,ls),
(440,560,o),
(472,516,o),
(474,480,c),
(510,480,l),
(658,480,l),
(658,738,ls),
(658,756,o),
(670,768,o),
(688,768,cs),
(716,768,l),
(716,900,l),
(642,900,ls),
(554,900,o),
(510,854,o),
(510,766,cs),
(510,652,l),
(480,688,o),
(424,712,o),
(350,712,cs),
(346,712,ls),
(170,712,o),
(32,568,o),
(32,352,cs),
(32,348,ls),
(32,132,o),
(170,-12,o),
(364,-12,cs),
(368,-12,ls)
);
}
);
width = 700;
}
);
metricLeft = O;
unicode = 403;
},
{
glyphname = Ghook.cv06;
kernLeft = O;
kernRight = O;
lastChange = "2026-04-08 08:35:48 +0000";
layers = (
{
anchors = (
{
name = bottom;
pos = (360,0);
},
{
name = top;
pos = (600,900);
}
);
layerId = m007;
shapes = (
{
closed = 1;
nodes = (
(526,-12,o),
(574,82,o),
(590,124,c),
(590,0,l),
(630,0,l),
(630,370,l),
(350,370,l),
(350,330,l),
(592,330,l),
(592,330,o),
(592,330,o),
(592,328,cs),
(592,124,o),
(518,28,o),
(368,28,cs),
(364,28,ls),
(198,28,o),
(100,160,o),
(100,348,cs),
(100,352,ls),
(100,540,o),
(198,672,o),
(362,672,cs),
(366,672,ls),
(512,672,o),
(568,572,o),
(576,520,c),
(616,520,l),
(616,772,ls),
(616,830,o),
(646,860,o),
(704,860,cs),
(746,860,l),
(746,900,l),
(704,900,ls),
(616,900,o),
(576,860,o),
(576,772,cs),
(576,606,l),
(538,666,o),
(470,712,o),
(366,712,cs),
(362,712,ls),
(168,712,o),
(60,558,o),
(60,352,cs),
(60,348,ls),
(60,142,o),
(168,-12,o),
(360,-12,cs),
(364,-12,ls)
);
}
);
width = 700;
},
{
anchors = (
{
name = bottom;
pos = (360,0);
},
{
name = top;
pos = (600,900);
}
);
layerId = m004;
shapes = (
{
closed = 1;
nodes = (
(470,-12,o),
(534,38,o),
(552,90,c),
(552,0,l),
(642,0,l),
(642,384,l),
(350,384,l),
(350,296,l),
(552,296,l),
(552,296,o),
(552,296,o),
(552,294,cs),
(552,162,o),
(498,76,o),
(366,76,cs),
(362,76,ls),
(222,76,o),
(152,200,o),
(152,348,cs),
(152,352,ls),
(152,500,o),
(224,624,o),
(366,624,cs),
(370,624,ls),
(468,624,o),
(524,560,o),
(532,500,c),
(628,500,l),
(628,756,ls),
(628,798,o),
(646,820,o),
(692,820,cs),
(724,820,l),
(724,900,l),
(676,900,ls),
(588,900,o),
(544,856,o),
(544,768,cs),
(544,634,l),
(508,676,o),
(452,712,o),
(358,712,cs),
(354,712,ls),
(168,712,o),
(52,558,o),
(52,352,cs),
(52,348,ls),
(52,142,o),
(158,-12,o),
(352,-12,cs),
(356,-12,ls)
);
}
);
width = 700;
},
{
anchors = (
{
name = bottom;
pos = (360,0);
},
{
name = top;
pos = (600,900);
}
);
layerId = m003;
shapes = (
{
closed = 1;
nodes = (
(428,-12,o),
(486,34,o),
(508,84,c),
(508,0,l),
(668,0,l),
(668,400,l),
(350,400,l),
(350,262,l),
(494,262,l),
(494,262,o),
(494,262,o),
(494,260,cs),
(494,194,o),
(452,142,o),
(372,142,cs),
(368,142,ls),
(284,142,o),
(224,208,o),
(224,348,cs),
(224,352,ls),
(224,492,o),
(286,560,o),
(370,560,cs),
(374,560,ls),
(440,560,o),
(472,516,o),
(474,480,c),
(658,480,l),
(658,738,ls),
(658,756,o),
(670,768,o),
(688,768,cs),
(716,768,l),
(716,900,l),
(642,900,ls),
(554,900,o),
(510,854,o),
(510,766,cs),
(510,654,l),
(478,686,o),
(430,712,o),
(350,712,cs),
(346,712,ls),
(170,712,o),
(32,568,o),
(32,352,cs),
(32,348,ls),
(32,132,o),
(146,-12,o),
(338,-12,cs),
(342,-12,ls)
);
}
);
width = 700;
}
);
metricLeft = O;
},
{
color = 8;
glyphname = Gstroke;
kernLeft = O;
kernRight = O;
lastChange = "2026-04-07 14:26:59 +0000";
layers = (
{
anchors = (
{
name = bottom;
pos = (360,0);
},
{
name = top;
pos = (360,700);
}
);
layerId = m003;
shapes = (
{
closed = 1;
nodes = (
(518,-12,o),
(606,64,o),
(644,166,c),
(700,166,l),
(700,234,l),
(662,234,l),
(666,258,o),
(668,282,o),
(668,308,cs),
(668,312,ls),
(668,386,o),
(668,380,o),
(666,400,c),
(350,400,l),
(350,262,l),
(488,262,l),
(488,262,o),
(488,262,o),
(488,260,cs),
(488,250,o),
(488,242,o),
(486,234,c),
(350,234,l),
(350,166,l),
(450,166,l),
(430,150,o),
(404,142,o),
(372,142,cs),
(368,142,ls),
(284,142,o),
(224,208,o),
(224,348,cs),
(224,352,ls),
(224,492,o),
(286,560,o),
(370,560,cs),
(374,560,ls),
(440,560,o),
(472,516,o),
(474,480,c),
(658,480,l),
(644,610,o),
(532,712,o),
(370,712,cs),
(366,712,ls),
(170,712,o),
(32,568,o),
(32,352,cs),
(32,348,ls),
(32,132,o),
(170,-12,o),
(364,-12,cs),
(368,-12,ls)
);
}
);
width = 700;
},
{
anchors = (
{
name = bottom;
pos = (360,0);
},
{
name = top;
pos = (360,700);
}
);
layerId = m004;
shapes = (
{
closed = 1;
nodes = (
(508,-12,o),
(590,60,o),
(626,174,c),
(700,174,l),
(700,246,l),
(642,246,l),
(646,274,o),
(648,302,o),
(648,332,cs),
(648,336,ls),
(648,360,o),
(648,370,o),
(646,384,c),
(350,384,l),
(350,296,l),
(550,296,l),
(550,296,o),
(550,296,o),
(550,294,cs),
(550,278,o),
(548,260,o),
(546,246,c),
(350,246,l),
(350,174,l),
(528,174,l),
(502,116,o),
(452,76,o),
(370,76,cs),
(366,76,ls),
(228,76,o),
(152,200,o),
(152,348,cs),
(152,352,ls),
(152,500,o),
(226,624,o),
(366,624,cs),
(370,624,ls),
(470,624,o),
(524,560,o),
(532,500,c),
(628,500,l),
(616,614,o),
(520,712,o),
(368,712,cs),
(364,712,ls),
(170,712,o),
(52,558,o),
(52,352,cs),
(52,348,ls),
(52,142,o),
(170,-12,o),
(362,-12,cs),
(366,-12,ls)
);
}
);
width = 700;
},
{
anchors = (
{
name = bottom;
pos = (360,0);
},
{
name = top;
pos = (360,700);
}
);
layerId = m007;
shapes = (
{
closed = 1;
nodes = (
(512,-12,o),
(588,66,o),
(620,180,c),
(700,180,l),
(700,220,l),
(630,220,l),
(636,258,o),
(640,302,o),
(640,348,cs),
(640,352,ls),
(640,356,o),
(640,362,o),
(638,370,c),
(350,370,l),
(350,330,l),
(600,330,l),
(600,330,o),
(600,330,o),
(600,328,cs),
(600,290,o),
(596,252,o),
(590,220,c),
(350,220,l),
(350,180,l),
(580,180,l),
(550,90,o),
(484,28,o),
(366,28,cs),
(362,28,ls),
(196,28,o),
(100,160,o),
(100,348,cs),
(100,352,ls),
(100,540,o),
(198,672,o),
(362,672,cs),
(366,672,ls),
(512,672,o),
(566,572,o),
(574,520,c),
(616,520,l),
(608,592,o),
(536,712,o),
(366,712,cs),
(362,712,ls),
(168,712,o),
(60,558,o),
(60,352,cs),
(60,348,ls),
(60,142,o),
(170,-12,o),
(362,-12,cs),
(366,-12,ls)
);
}
);
width = 700;
}
);
metricLeft = O;
unicode = 484;
},
{
glyphname = Gstroke.cv06;
kernLeft = O;
kernRight = Omega;
lastChange = "2026-04-07 14:26:59 +0000";
layers = (
{
anchors = (
{
name = bottom;
pos = (360,0);
},
{
name = top;
pos = (360,700);
}
);
layerId = m003;
shapes = (
{
closed = 1;
nodes = (
(428,-12,o),
(486,34,o),
(508,84,c),
(508,0,l),
(668,0,l),
(668,166,l),
(720,166,l),
(720,234,l),
(668,234,l),
(668,400,l),
(350,400,l),
(350,262,l),
(494,262,l),
(494,262,o),
(494,262,o),
(494,260,cs),
(494,252,o),
(494,244,o),
(492,234,c),
(350,234,l),
(350,166,l),
(452,166,l),
(432,150,o),
(406,142,o),
(372,142,cs),
(368,142,ls),
(284,142,o),
(224,208,o),
(224,348,cs),
(224,352,ls),
(224,492,o),
(286,560,o),
(370,560,cs),
(374,560,ls),
(440,560,o),
(472,516,o),
(474,480,c),
(658,480,l),
(644,612,o),
(536,712,o),
(370,712,cs),
(366,712,ls),
(170,712,o),
(32,568,o),
(32,352,cs),
(32,348,ls),
(32,132,o),
(146,-12,o),
(338,-12,cs),
(342,-12,ls)
);
}
);
width = 720;
},
{
anchors = (
{
name = bottom;
pos = (360,0);
},
{
name = top;
pos = (360,700);
}
);
layerId = m004;
shapes = (
{
closed = 1;
nodes = (
(470,-12,o),
(534,38,o),
(552,90,c),
(552,0,l),
(642,0,l),
(642,174,l),
(720,174,l),
(720,246,l),
(642,246,l),
(642,384,l),
(350,384,l),
(350,296,l),
(552,296,l),
(552,296,o),
(552,296,o),
(552,294,cs),
(552,278,o),
(552,262,o),
(550,246,c),
(350,246,l),
(350,174,l),
(530,174,l),
(504,112,o),
(452,76,o),
(366,76,cs),
(362,76,ls),
(222,76,o),
(152,200,o),
(152,348,cs),
(152,352,ls),
(152,500,o),
(224,624,o),
(366,624,cs),
(370,624,ls),
(468,624,o),
(524,560,o),
(532,500,c),
(628,500,l),
(616,614,o),
(518,712,o),
(368,712,cs),
(364,712,ls),
(168,712,o),
(52,558,o),
(52,352,cs),
(52,348,ls),
(52,142,o),
(158,-12,o),
(352,-12,cs),
(356,-12,ls)
);
}
);
width = 720;
},
{
anchors = (
{
name = bottom;
pos = (360,0);
},
{
name = top;
pos = (360,700);
}
);
layerId = m007;
shapes = (
{
closed = 1;
nodes = (
(526,-12,o),
(574,82,o),
(590,124,c),
(590,0,l),
(630,0,l),
(630,180,l),
(720,180,l),
(720,220,l),
(630,220,l),
(630,370,l),
(350,370,l),
(350,330,l),
(592,330,l),
(592,330,o),
(592,330,o),
(592,328,cs),
(592,288,o),
(590,252,o),
(584,220,c),
(348,220,l),
(348,180,l),
(574,180,l),
(544,78,o),
(476,28,o),
(368,28,cs),
(364,28,ls),
(198,28,o),
(100,160,o),
(100,348,cs),
(100,352,ls),
(100,540,o),
(198,672,o),
(362,672,cs),
(366,672,ls),
(512,672,o),
(568,572,o),
(576,520,c),
(616,520,l),
(608,592,o),
(536,712,o),
(366,712,cs),
(362,712,ls),
(168,712,o),
(60,558,o),
(60,352,cs),
(60,348,ls),
(60,142,o),
(168,-12,o),
(360,-12,cs),
(364,-12,ls)
);
}
);
width = 720;
}
);
metricLeft = O;
metricWidth = G.cv06;
},
{
color = 9;
glyphname = H;
kernLeft = I;
kernRight = I;
lastChange = "2026-04-01 08:10:15 +0000";
layers = (
{
anchors = (
{
name = bottom;
pos = (360,0);
},
{
name = top;
pos = (360,700);
}
);
layerId = m003;
shapes = (
{
closed = 1;
nodes = (
(246,0,l),
(246,270,l),
(474,270,l),
(474,0,l),
(664,0,l),
(664,700,l),
(474,700,l),
(474,430,l),
(246,430,l),
(246,700,l),
(56,700,l),
(56,0,l)
);
}
);
width = 720;
},
{
anchors = (
{
name = bottom;
pos = (360,0);
},
{
name = top;
pos = (360,700);
}
);
layerId = m004;
shapes = (
{
closed = 1;
nodes = (
(184,0,l),
(184,304,l),
(536,304,l),
(536,0,l),
(636,0,l),
(636,700,l),
(536,700,l),
(536,396,l),
(184,396,l),
(184,700,l),
(84,700,l),
(84,0,l)
);
}
);
width = 720;
},
{
anchors = (
{
name = bottom;
pos = (360,0);
},
{
name = top;
pos = (360,702);
}
);
layerId = m007;
shapes = (
{
closed = 1;
nodes = (
(140,0,l),
(140,330,l),
(580,330,l),
(580,0,l),
(620,0,l),
(620,700,l),
(580,700,l),
(580,370,l),
(140,370,l),
(140,700,l),
(100,700,l),
(100,0,l)
);
}
);
width = 720;
}
);
metricLeft = N;
metricRight = N;
unicode = 72;
userData = {
KernOnName = H;
};
},
{
color = 8;
glyphname = Hbar;
kernLeft = I;
kernRight = I;
lastChange = "2026-04-07 14:26:59 +0000";
layers = (
{
anchors = (
{
name = bottom;
pos = (360,0);
},
{
name = top;
pos = (360,700);
}
);
layerId = m003;
shapes = (
{
closed = 1;
nodes = (
(246,0,l),
(246,270,l),
(474,270,l),
(474,0,l),
(664,0,l),
(664,540,l),
(720,540,l),
(720,620,l),
(664,620,l),
(664,700,l),
(474,700,l),
(474,620,l),
(246,620,l),
(246,700,l),
(56,700,l),
(56,620,l),
(0,620,l),
(0,540,l),
(56,540,l),
(56,0,l)
);
},
{
closed = 1;
nodes = (
(246,540,l),
(474,540,l),
(474,430,l),
(246,430,l)
);
}
);
width = 720;
},
{
anchors = (
{
name = bottom;
pos = (360,0);
},
{
name = top;
pos = (360,700);
}
);
layerId = m004;
shapes = (
{
closed = 1;
nodes = (
(184,0,l),
(184,304,l),
(536,304,l),
(536,0,l),
(636,0,l),
(636,544,l),
(720,544,l),
(720,616,l),
(636,616,l),
(636,700,l),
(536,700,l),
(536,616,l),
(184,616,l),
(184,700,l),
(84,700,l),
(84,616,l),
(0,616,l),
(0,544,l),
(84,544,l),
(84,0,l)
);
},
{
closed = 1;
nodes = (
(184,544,l),
(536,544,l),
(536,396,l),
(184,396,l)
);
}
);
width = 720;
},
{
anchors = (
{
name = bottom;
pos = (360,0);
},
{
name = top;
pos = (360,700);
}
);
layerId = m007;
shapes = (
{
closed = 1;
nodes = (
(140,0,l),
(140,330,l),
(580,330,l),
(580,0,l),
(620,0,l),
(620,560,l),
(720,560,l),
(720,600,l),
(620,600,l),
(620,700,l),
(580,700,l),
(580,600,l),
(140,600,l),
(140,700,l),
(100,700,l),
(100,600,l),
(0,600,l),
(0,560,l),
(100,560,l),
(100,0,l)
);
},
{
closed = 1;
nodes = (
(140,560,l),
(580,560,l),
(580,370,l),
(140,370,l)
);
}
);
width = 720;
}
);
unicode = 294;
},
{
color = 8;
glyphname = Hcedilla;
kernLeft = I;
kernRight = I;
lastChange = "2026-04-08 08:30:08 +0000";
layers = (
{
anchors = (
{
name = bottom;
pos = (150,-200);
},
{
name = top;
pos = (360,700);
}
);
layerId = m003;
shapes = (
{
closed = 1;
nodes = (
(142,0,o),
(172,-36,o),
(172,-74,cs),
(172,-78,ls),
(172,-106,o),
(160,-118,o),
(136,-118,cs),
(110,-118,o),
(98,-102,o),
(98,-68,c),
(-4,-68,l),
(0,-144,o),
(42,-200,o),
(140,-200,cs),
(226,-200,o),
(274,-152,o),
(274,-82,cs),
(274,-78,ls),
(274,-46,o),
(262,-18,o),
(246,2,c),
(246,270,l),
(474,270,l),
(474,0,l),
(664,0,l),
(664,700,l),
(474,700,l),
(474,430,l),
(246,430,l),
(246,700,l),
(56,700,l),
(56,0,l)
);
}
);
width = 720;
},
{
anchors = (
{
name = bottom;
pos = (130,-200);
},
{
name = top;
pos = (360,700);
}
);
layerId = m004;
shapes = (
{
closed = 1;
nodes = (
(150,-18,o),
(162,-50,o),
(162,-90,cs),
(162,-94,ls),
(162,-112,o),
(154,-130,o),
(128,-130,cs),
(100,-130,o),
(92,-110,o),
(90,-86,c),
(6,-86,l),
(14,-142,o),
(44,-200,o),
(128,-200,cs),
(208,-200,o),
(244,-154,o),
(244,-98,cs),
(244,-94,ls),
(244,-50,o),
(220,-8,o),
(184,20,c),
(184,304,l),
(536,304,l),
(536,0,l),
(636,0,l),
(636,700,l),
(536,700,l),
(536,396,l),
(184,396,l),
(184,700,l),
(84,700,l),
(84,0,l)
);
}
);
width = 720;
},
{
anchors = (
{
name = bottom;
pos = (120,-200);
},
{
name = top;
pos = (360,700);
}
);
layerId = m007;
shapes = (
{
closed = 1;
nodes = (
(146,-22,o),
(178,-68,o),
(178,-106,cs),
(178,-110,ls),
(178,-136,o),
(160,-160,o),
(122,-160,cs),
(84,-160,o),
(68,-138,o),
(64,-100,c),
(20,-100,l),
(24,-154,o),
(58,-200,o),
(122,-200,cs),
(186,-200,o),
(218,-160,o),
(218,-110,cs),
(218,-106,ls),
(218,-56,o),
(184,-6,o),
(140,20,c),
(140,330,l),
(580,330,l),
(580,0,l),
(620,0,l),
(620,700,l),
(580,700,l),
(580,370,l),
(140,370,l),
(140,700,l),
(100,700,l),
(100,0,l)
);
}
);
width = 720;
}
);
unicode = 7720;
},
{
glyphname = Hhook;
kernLeft = T;
kernRight = I;
lastChange = "2026-04-08 08:41:07 +0000";
layers = (
{
anchors = (
{
name = bottom;
pos = (520,0);
},
{
name = top;
pos = (520,700);
}
);
layerId = m003;
shapes = (
{
closed = 1;
nodes = (
(406,0,l),
(406,270,l),
(634,270,l),
(634,0,l),
(824,0,l),
(824,700,l),
(634,700,l),
(634,430,l),
(406,430,l),
(406,700,l),
(114,700,ls),
(48,700,o),
(14,666,o),
(14,600,cs),
(14,484,l),
(160,484,l),
(160,548,ls),
(160,562,o),
(166,568,o),
(180,568,cs),
(216,568,l),
(216,0,l)
);
}
);
width = 880;
},
{
anchors = (
{
name = bottom;
pos = (520,0);
},
{
name = top;
pos = (520,700);
}
);
layerId = m004;
shapes = (
{
closed = 1;
nodes = (
(344,0,l),
(344,304,l),
(696,304,l),
(696,0,l),
(796,0,l),
(796,700,l),
(696,700,l),
(696,396,l),
(344,396,l),
(344,700,l),
(130,700,ls),
(64,700,o),
(30,666,o),
(30,600,cs),
(30,508,l),
(120,508,l),
(120,574,ls),
(120,604,o),
(134,620,o),
(166,620,cs),
(244,620,l),
(244,0,l)
);
}
);
width = 880;
},
{
anchors = (
{
name = bottom;
pos = (520,0);
},
{
name = top;
pos = (520,700);
}
);
layerId = m007;
shapes = (
{
closed = 1;
nodes = (
(300,0,l),
(300,330,l),
(740,330,l),
(740,0,l),
(780,0,l),
(780,700,l),
(740,700,l),
(740,370,l),
(300,370,l),
(300,700,l),
(150,700,ls),
(76,700,o),
(38,662,o),
(38,588,cs),
(38,524,l),
(78,524,l),
(78,588,ls),
(78,636,o),
(102,660,o),
(150,660,cs),
(260,660,l),
(260,0,l)
);
}
);
width = 880;
}
);
metricRight = H;
unicode = 42922;
},
{
color = 9;
glyphname = I;
kernLeft = I;
kernRight = I;
lastChange = "2026-04-01 08:07:08 +0000";
layers = (
{
anchors = (
{
name = bottom;
pos = (140,0);
},
{
name = ogonek;
pos = (140,0);
},
{
name = top;
pos = (140,700);
}
);
layerId = m003;
shapes = (
{
closed = 1;
nodes = (
(236,0,l),
(236,700,l),
(44,700,l),
(44,0,l)
);
}
);
width = 280;
},
{
anchors = (
{
name = bottom;
pos = (140,0);
},
{
name = ogonek;
pos = (140,0);
},
{
name = top;
pos = (140,700);
}
);
layerId = m004;
shapes = (
{
closed = 1;
nodes = (
(190,0,l),
(190,700,l),
(90,700,l),
(90,0,l)
);
}
);
width = 280;
},
{
anchors = (
{
name = bottom;
pos = (140,0);
},
{
name = ogonek;
pos = (140,0);
},
{
name = top;
pos = (140,700);
}
);
layerId = m007;
shapes = (
{
closed = 1;
nodes = (
(160,0,l),
(160,700,l),
(120,700,l),
(120,0,l)
);
}
);
width = 280;
}
);
unicode = 73;
},
{
color = 8;
glyphname = Iogonek;
kernLeft = I;
kernRight = "I-des";
lastChange = "2026-04-08 08:33:37 +0000";
layers = (
{
anchors = (
{
name = bottom;
pos = (140,-200);
},
{
name = ogonek;
pos = (140,-200);
},
{
name = top;
pos = (140,700);
}
);
layerId = m003;
shapes = (
{
closed = 1;
nodes = (
(234,-200,o),
(276,-144,o),
(280,-68,c),
(178,-68,l),
(178,-102,o),
(166,-118,o),
(140,-118,cs),
(116,-118,o),
(104,-106,o),
(104,-78,cs),
(104,-74,ls),
(104,-36,o),
(134,0,o),
(236,0,c),
(236,700,l),
(44,700,l),
(44,18,l),
(20,-6,o),
(2,-38,o),
(2,-78,cs),
(2,-82,ls),
(2,-152,o),
(50,-200,o),
(136,-200,cs)
);
}
);
width = 280;
},
{
anchors = (
{
name = bottom;
pos = (140,-200);
},
{
name = ogonek;
pos = (140,-200);
},
{
name = top;
pos = (140,700);
}
);
layerId = m004;
shapes = (
{
closed = 1;
nodes = (
(222,-200,o),
(252,-142,o),
(260,-86,c),
(176,-86,l),
(174,-110,o),
(166,-130,o),
(138,-130,cs),
(112,-130,o),
(104,-112,o),
(104,-94,cs),
(104,-90,ls),
(104,-62,o),
(116,-28,o),
(190,0,c),
(190,700,l),
(90,700,l),
(90,26,l),
(50,-2,o),
(22,-46,o),
(22,-94,cs),
(22,-98,ls),
(22,-154,o),
(58,-200,o),
(138,-200,cs)
);
}
);
width = 280;
},
{
anchors = (
{
name = bottom;
pos = (140,-200);
},
{
name = ogonek;
pos = (140,-200);
},
{
name = top;
pos = (140,700);
}
);
layerId = m007;
shapes = (
{
closed = 1;
nodes = (
(200,-200,o),
(234,-154,o),
(238,-100,c),
(194,-100,l),
(190,-138,o),
(174,-160,o),
(136,-160,cs),
(98,-160,o),
(80,-136,o),
(80,-110,cs),
(80,-106,ls),
(80,-68,o),
(104,-22,o),
(160,0,c),
(160,700,l),
(120,700,l),
(120,22,l),
(76,-4,o),
(40,-56,o),
(40,-106,cs),
(40,-110,ls),
(40,-160,o),
(72,-200,o),
(136,-200,cs)
);
}
);
width = 280;
}
);
unicode = 302;
},
{
glyphname = Iogonek.cv05;
kernLeft = "Zhe-royal";
kernRight = "Zhe-royal";
lastChange = "2026-04-07 14:28:01 +0000";
layers = (
{
anchors = (
{
name = bottom;
pos = (390,-200);
},
{
name = top;
pos = (240,700);
}
);
layerId = m003;
shapes = (
{
closed = 1;
nodes = (
(280,0,l),
(264,-22,o),
(254,-48,o),
(254,-78,cs),
(254,-82,ls),
(254,-152,o),
(302,-200,o),
(388,-200,cs),
(486,-200,o),
(528,-144,o),
(532,-68,c),
(430,-68,l),
(430,-102,o),
(418,-118,o),
(392,-118,cs),
(368,-118,o),
(356,-106,o),
(356,-78,cs),
(356,-74,ls),
(356,-36,o),
(386,-16,o),
(438,0,c),
(452,0,l),
(452,146,l),
(336,146,l),
(336,556,l),
(452,556,l),
(452,700,l),
(28,700,l),
(28,556,l),
(144,556,l),
(144,146,l),
(28,146,l),
(28,0,l)
);
}
);
width = 480;
},
{
anchors = (
{
name = bottom;
pos = (390,-200);
},
{
name = top;
pos = (240,700);
}
);
layerId = m004;
shapes = (
{
closed = 1;
nodes = (
(324,0,l),
(300,-26,o),
(286,-58,o),
(286,-94,cs),
(286,-98,ls),
(286,-154,o),
(322,-200,o),
(402,-200,cs),
(486,-200,o),
(516,-142,o),
(524,-86,c),
(440,-86,l),
(438,-110,o),
(430,-130,o),
(402,-130,cs),
(376,-130,o),
(368,-112,o),
(368,-94,cs),
(368,-90,ls),
(368,-62,o),
(384,-28,o),
(436,0,c),
(440,0,l),
(440,92,l),
(290,92,l),
(290,608,l),
(440,608,l),
(440,700,l),
(40,700,l),
(40,608,l),
(190,608,l),
(190,92,l),
(40,92,l),
(40,0,l)
);
}
);
width = 480;
},
{
anchors = (
{
name = bottom;
pos = (390,-200);
},
{
name = top;
pos = (240,700);
}
);
layerId = m007;
shapes = (
{
closed = 1;
nodes = (
(354,0,l),
(324,-28,o),
(304,-66,o),
(304,-106,cs),
(304,-110,ls),
(304,-160,o),
(336,-200,o),
(400,-200,cs),
(464,-200,o),
(498,-154,o),
(502,-100,c),
(458,-100,l),
(454,-138,o),
(438,-160,o),
(400,-160,cs),
(362,-160,o),
(344,-136,o),
(344,-110,cs),
(344,-106,ls),
(344,-68,o),
(376,-22,o),
(420,0,c),
(424,0,l),
(424,40,l),
(260,40,l),
(260,660,l),
(424,660,l),
(424,700,l),
(56,700,l),
(56,660,l),
(220,660,l),
(220,40,l),
(56,40,l),
(56,0,l)
);
}
);
width = 480;
}
);
},
{
color = 8;
glyphname = "Iota-latin";
kernLeft = I;
kernRight = L;
lastChange = "2026-04-01 09:37:44 +0000";
layers = (
{
anchors = (
{
name = bottom;
pos = (200,0);
},
{
name = top;
pos = (142,700);
}
);
layerId = m007;
shapes = (
{
closed = 1;
nodes = (
(324,0,l),
(324,40,l),
(278,40,ls),
(200,40,o),
(160,80,o),
(160,158,cs),
(160,700,l),
(120,700,l),
(120,150,ls),
(120,54,o),
(174,0,o),
(270,0,c)
);
}
);
width = 360;
},
{
anchors = (
{
name = bottom;
pos = (200,0);
},
{
name = top;
pos = (140,700);
}
);
layerId = m004;
shapes = (
{
closed = 1;
nodes = (
(330,0,l),
(330,92,l),
(276,92,ls),
(218,92,o),
(190,120,o),
(190,176,cs),
(190,700,l),
(90,700,l),
(90,154,ls),
(90,60,o),
(150,0,o),
(244,0,cs)
);
}
);
width = 360;
},
{
anchors = (
{
name = bottom;
pos = (200,0);
},
{
name = top;
pos = (144,700);
}
);
layerId = m003;
shapes = (
{
closed = 1;
nodes = (
(340,0,l),
(340,160,l),
(286,160,ls),
(252,160,o),
(236,176,o),
(236,210,cs),
(236,700,l),
(44,700,l),
(44,158,ls),
(44,64,o),
(108,0,o),
(202,0,cs)
);
}
);
width = 360;
}
);
metricRight = T;
unicode = 406;
},
{
glyphname = Istroke;
kernLeft = O;
kernRight = O;
lastChange = "2026-04-07 14:26:59 +0000";
layers = (
{
anchors = (
{
name = bottom;
pos = (160,0);
},
{
name = ogonek;
pos = (160,0);
},
{
name = top;
pos = (160,700);
}
);
layerId = m007;
shapes = (
{
closed = 1;
nodes = (
(180,0,l),
(180,330,l),
(320,330,l),
(320,370,l),
(180,370,l),
(180,700,l),
(140,700,l),
(140,370,l),
(0,370,l),
(0,330,l),
(140,330,l),
(140,0,l)
);
}
);
width = 320;
},
{
anchors = (
{
name = bottom;
pos = (160,0);
},
{
name = ogonek;
pos = (160,0);
},
{
name = top;
pos = (160,700);
}
);
layerId = m004;
shapes = (
{
closed = 1;
nodes = (
(210,0,l),
(210,314,l),
(320,314,l),
(320,386,l),
(210,386,l),
(210,700,l),
(110,700,l),
(110,386,l),
(0,386,l),
(0,314,l),
(110,314,l),
(110,0,l)
);
}
);
width = 320;
},
{
anchors = (
{
name = bottom;
pos = (160,0);
},
{
name = ogonek;
pos = (160,0);
},
{
name = top;
pos = (160,700);
}
);
layerId = m003;
shapes = (
{
closed = 1;
nodes = (
(256,0,l),
(256,310,l),
(320,310,l),
(320,390,l),
(256,390,l),
(256,700,l),
(64,700,l),
(64,390,l),
(0,390,l),
(0,310,l),
(64,310,l),
(64,0,l)
);
}
);
width = 320;
}
);
unicode = 407;
},
{
glyphname = Istroke.cv05;
kernLeft = "Zhe-royal";
kernRight = "Zhe-royal";
lastChange = "2026-04-08 08:17:39 +0000";
layers = (
{
anchors = (
{
name = bottom;
pos = (240,0);
},
{
name = ogonek;
pos = (404,0);
},
{
name = top;
pos = (240,700);
}
);
layerId = m007;
shapes = (
{
closed = 1;
nodes = (
(424,0,l),
(424,40,l),
(260,40,l),
(260,330,l),
(400,330,l),
(400,370,l),
(260,370,l),
(260,660,l),
(424,660,l),
(424,700,l),
(56,700,l),
(56,660,l),
(220,660,l),
(220,370,l),
(80,370,l),
(80,330,l),
(220,330,l),
(220,40,l),
(56,40,l),
(56,0,l)
);
}
);
width = 480;
},
{
anchors = (
{
name = bottom;
pos = (240,0);
},
{
name = ogonek;
pos = (404,0);
},
{
name = top;
pos = (240,700);
}
);
layerId = m004;
shapes = (
{
closed = 1;
nodes = (
(440,0,l),
(440,92,l),
(290,92,l),
(290,314,l),
(400,314,l),
(400,386,l),
(290,386,l),
(290,608,l),
(440,608,l),
(440,700,l),
(40,700,l),
(40,608,l),
(190,608,l),
(190,386,l),
(80,386,l),
(80,314,l),
(190,314,l),
(190,92,l),
(40,92,l),
(40,0,l)
);
}
);
width = 480;
},
{
anchors = (
{
name = bottom;
pos = (240,0);
},
{
name = ogonek;
pos = (392,0);
},
{
name = top;
pos = (240,700);
}
);
layerId = m003;
shapes = (
{
closed = 1;
nodes = (
(452,0,l),
(452,146,l),
(336,146,l),
(336,310,l),
(400,310,l),
(400,390,l),
(336,390,l),
(336,556,l),
(452,556,l),
(452,700,l),
(28,700,l),
(28,556,l),
(144,556,l),
(144,390,l),
(80,390,l),
(80,310,l),
(144,310,l),
(144,146,l),
(28,146,l),
(28,0,l)
);
}
);
width = 480;
}
);
metricLeft = Sigma;
metricRight = Sigma;
},
{
color = 9;
glyphname = J;
kernLeft = L;
kernRight = I;
lastChange = "2026-04-01 08:52:53 +0000";
layers = (
{
anchors = (
{
name = bottom;
pos = (200,0);
},
{
name = top;
pos = (352,700);
}
);
layerId = m003;
shapes = (
{
closed = 1;
nodes = (
(374,0,o),
(444,70,o),
(444,178,cs),
(444,700,l),
(256,700,l),
(256,210,ls),
(256,175.333,o),
(240.667,160,o),
(206,160,cs),
(20,160,l),
(20,0,l),
(266,0,ls)
);
}
);
width = 500;
},
{
anchors = (
{
name = bottom;
pos = (200,0);
},
{
name = top;
pos = (367,700);
}
);
layerId = m004;
shapes = (
{
closed = 1;
nodes = (
(359.333,0,o),
(416,56.667,o),
(416,150,cs),
(416,700,l),
(316,700,l),
(316,160,ls),
(316,116,o),
(292,92,o),
(248,92,cs),
(30,92,l),
(30,0,l),
(266,0,ls)
);
}
);
width = 500;
},
{
anchors = (
{
name = bottom;
pos = (200,0);
},
{
name = top;
pos = (381,700);
}
);
layerId = m007;
shapes = (
{
closed = 1;
nodes = (
(346,0,o),
(400,54,o),
(400,150,cs),
(400,700,l),
(360,700,l),
(360,154,ls),
(360,76,o),
(324,40,o),
(246,40,cs),
(36,40,l),
(36,0,l),
(250,0,ls)
);
}
);
width = 500;
}
);
metricLeft = T;
metricRight = N;
unicode = 74;
},
{
glyphname = Jcrossedtail;
kernLeft = L;
kernRight = o;
lastChange = "2026-04-08 08:28:27 +0000";
layers = (
{
anchors = (
{
name = bottom;
pos = (350,0);
},
{
name = top;
pos = (550,700);
}
);
layerId = m007;
shapes = (
{
closed = 1;
nodes = (
(516,0,o),
(570,54,o),
(570,150,cs),
(570,200,l),
(720,200,l),
(720,240,l),
(570,240,l),
(570,700,l),
(530,700,l),
(530,240,l),
(180,240,ls),
(98,240,o),
(50,192,o),
(50,128,cs),
(50,120,ls),
(50,48,o),
(98,0,o),
(188,0,c),
(420,0,l)
);
},
{
closed = 1;
nodes = (
(90,128,ls),
(90,168,o),
(120,200,o),
(180,200,cs),
(530,200,l),
(530,154,ls),
(530,76,o),
(494,40,o),
(416,40,c),
(188,40,l),
(128,40,o),
(90,68,o),
(90,120,cs)
);
}
);
width = 760;
},
{
anchors = (
{
name = bottom;
pos = (350,0);
},
{
name = top;
pos = (558,700);
}
);
layerId = m004;
shapes = (
{
closed = 1;
nodes = (
(550,0,o),
(606,56,o),
(606,150,cs),
(606,200,l),
(740,200,l),
(740,288,l),
(606,288,l),
(606,700,l),
(506,700,l),
(506,288,l),
(188,288,ls),
(86,288,o),
(30,232,o),
(30,144,cs),
(30,140,ls),
(30,44,o),
(106,0,o),
(192,0,c),
(456,0,l)
);
},
{
closed = 1;
nodes = (
(126,148,ls),
(126,178,o),
(146,204,o),
(194,204,cs),
(506,202,l),
(506,160,ls),
(506,116,o),
(482,92,o),
(438,92,c),
(192,92,l),
(150,92,o),
(126,112,o),
(126,144,cs)
);
}
);
width = 760;
},
{
anchors = (
{
name = bottom;
pos = (350,0);
},
{
name = top;
pos = (576,700);
}
);
layerId = m003;
shapes = (
{
closed = 1;
nodes = (
(598,0,o),
(668,70,o),
(668,178,cs),
(668,234,l),
(750,234,l),
(750,374,l),
(668,374,l),
(668,700,l),
(480,700,l),
(480,374,l),
(226,374,ls),
(96,374,o),
(12,304,o),
(12,194,cs),
(12,188,ls),
(12,74,o),
(92,0,o),
(226,0,c),
(490,0,l)
);
},
{
closed = 1;
nodes = (
(186,190,ls),
(186,216,o),
(204,234,o),
(232,234,cs),
(500,234,l),
(500,190,ls),
(500,156,o),
(484,140,o),
(450,140,c),
(232,140,l),
(204,140,o),
(186,160,o),
(186,186,c)
);
}
);
width = 760;
}
);
unicode = 42930;
},
{
color = 9;
glyphname = K;
kernLeft = I;
kernRight = X;
lastChange = "2026-04-07 10:51:53 +0000";
layers = (
{
anchors = (
{
name = bottom;
pos = (340,0);
},
{
name = top;
pos = (340,700);
}
);
layerId = m003;
shapes = (
{
closed = 1;
nodes = (
(246,0,l),
(246,216,l),
(304,292,l),
(454,0,l),
(678,0,l),
(462,414,l),
(684,700,l),
(474,700,l),
(246,414,l),
(246,700,l),
(56,700,l),
(56,0,l)
);
}
);
width = 700;
},
{
anchors = (
{
name = bottom;
pos = (340,0);
},
{
name = top;
pos = (340,700);
}
);
layerId = m004;
shapes = (
{
closed = 1;
nodes = (
(184,0,l),
(184,232,l),
(294,340,l),
(544,0,l),
(670,0,l),
(376,404,l),
(670,700,l),
(542,700,l),
(184,350,l),
(184,700,l),
(84,700,l),
(84,0,l)
);
}
);
width = 700;
},
{
anchors = (
{
name = bottom;
pos = (340,0);
},
{
name = top;
pos = (340,700);
}
);
layerId = m007;
shapes = (
{
closed = 1;
nodes = (
(140,0,l),
(140,252,l),
(292,384,l),
(614,0,l),
(664,0,l),
(324,410,l),
(652,700,l),
(598,700,l),
(140,300,l),
(140,700,l),
(100,700,l),
(100,0,l)
);
}
);
width = 700;
}
);
metricLeft = N;
metricRight = X;
unicode = 75;
userData = {
KernOnName = K;
};
},
{
glyphname = Khook;
kernLeft = I;
kernRight = X;
lastChange = "2026-04-08 08:20:07 +0000";
layers = (
{
anchors = (
{
name = bottom;
pos = (340,0);
},
{
name = top;
pos = (340,900);
}
);
layerId = m007;
shapes = (
{
closed = 1;
nodes = (
(140,0,l),
(140,252,l),
(292,384,l),
(614,0,l),
(664,0,l),
(324,410,l),
(652,700,l),
(598,700,l),
(140,300,l),
(140,772,l),
(140,834,o),
(166,860,o),
(228,860,cs),
(292,860,l),
(292,900,l),
(224,900,ls),
(142,900,o),
(100,858,o),
(100,776,c),
(100,0,l)
);
}
);
width = 700;
},
{
anchors = (
{
name = bottom;
pos = (340,0);
},
{
name = top;
pos = (340,900);
}
);
layerId = m004;
shapes = (
{
closed = 1;
nodes = (
(184,0,l),
(184,232,l),
(294,340,l),
(544,0,l),
(670,0,l),
(376,404,l),
(670,700,l),
(542,700,l),
(184,350,l),
(184,756,l),
(184,792,o),
(200,808,o),
(236,808,cs),
(306,808,l),
(306,900,l),
(214,900,ls),
(126,900,o),
(84,856,o),
(84,768,c),
(84,0,l)
);
}
);
width = 700;
},
{
anchors = (
{
name = bottom;
pos = (340,0);
},
{
name = top;
pos = (340,900);
}
);
layerId = m003;
shapes = (
{
closed = 1;
nodes = (
(246,0,l),
(246,216,l),
(304,292,l),
(454,0,l),
(678,0,l),
(462,414,l),
(684,700,l),
(474,700,l),
(246,414,l),
(246,718,l),
(246,736,o),
(256,746,o),
(274,746,cs),
(326,746,l),
(326,900,l),
(198,900,ls),
(110,900,o),
(56,846,o),
(56,758,c),
(56,0,l)
);
}
);
width = 700;
}
);
metricLeft = N;
metricRight = X;
unicode = 408;
},
{
glyphname = Khook.cv07;
kernLeft = I;
kernRight = X;
lastChange = "2026-04-08 08:19:43 +0000";
layers = (
{
anchors = (
{
name = bottom;
pos = (340,0);
},
{
name = top;
pos = (340,700);
}
);
layerId = m007;
shapes = (
{
closed = 1;
nodes = (
(140,330,l),
(312,330,l),
(612,0,l),
(664,0,l),
(346,350,l),
(664,700,l),
(612,700,l),
(312,370,l),
(140,370,l),
(140,772,l),
(140,834,o),
(166,860,o),
(228,860,cs),
(292,860,l),
(292,900,l),
(224,900,ls),
(142,900,o),
(100,858,o),
(100,776,c),
(100,0,l),
(140,0,l)
);
}
);
width = 700;
},
{
anchors = (
{
name = bottom;
pos = (340,0);
},
{
name = top;
pos = (340,700);
}
);
layerId = m004;
shapes = (
{
closed = 1;
nodes = (
(184,304,l),
(300,304,l),
(542,0,l),
(670,0,l),
(392,350,l),
(670,700,l),
(550,700,l),
(308,396,l),
(184,396,l),
(184,756,l),
(184,792,o),
(200,808,o),
(236,808,cs),
(306,808,l),
(306,900,l),
(214,900,ls),
(126,900,o),
(84,856,o),
(84,768,c),
(84,0,l),
(184,0,l)
);
}
);
width = 700;
},
{
anchors = (
{
name = bottom;
pos = (340,0);
},
{
name = top;
pos = (340,700);
}
);
layerId = m003;
shapes = (
{
closed = 1;
nodes = (
(246,270,l),
(286,270,l),
(456,0,l),
(684,0,l),
(448,362,l),
(684,700,l),
(476,700,l),
(288,430,l),
(246,430,l),
(246,718,l),
(246,736,o),
(256,746,o),
(274,746,cs),
(326,746,l),
(326,900,l),
(198,900,ls),
(110,900,o),
(56,846,o),
(56,758,c),
(56,0,l),
(246,0,l)
);
}
);
width = 700;
}
);
metricLeft = N;
metricRight = X;
},
{
color = 9;
glyphname = L;
kernLeft = I;
kernRight = L;
lastChange = "2026-04-01 07:31:17 +0000";
layers = (
{
anchors = (
{
name = bottom;
pos = (300,0);
},
{
name = top;
pos = (150,700);
}
);
layerId = m003;
shapes = (
{
closed = 1;
nodes = (
(540,0,l),
(540,160,l),
(246,160,l),
(246,700,l),
(56,700,l),
(56,0,l)
);
}
);
width = 560;
},
{
anchors = (
{
name = bottom;
pos = (300,0);
},
{
name = top;
pos = (135,700);
}
);
layerId = m004;
shapes = (
{
closed = 1;
nodes = (
(530,0,l),
(530,92,l),
(184,92,l),
(184,700,l),
(84,700,l),
(84,0,l)
);
}
);
width = 560;
},
{
anchors = (
{
name = bottom;
pos = (300,0);
},
{
name = top;
pos = (119,700);
}
);
layerId = m007;
shapes = (
{
closed = 1;
nodes = (
(524,0,l),
(524,40,l),
(140,40,l),
(140,700,l),
(100,700,l),
(100,0,l)
);
}
);
width = 560;
}
);
metricLeft = N;
metricRight = T;
unicode = 76;
userData = {
KernOnName = L;
};
},
{
glyphname = Lbelt;
kernLeft = O;
kernRight = L;
lastChange = "2026-04-07 14:26:59 +0000";
layers = (
{
anchors = (
{
name = bottom;
pos = (460,0);
},
{
name = top;
pos = (280,700);
}
);
layerId = m007;
shapes = (
{
closed = 1;
nodes = (
(684,0,l),
(684,40,l),
(300,40,l),
(300,238,l),
(504,238,l),
(504,278,l),
(300,278,l),
(300,700,l),
(260,700,l),
(260,500,l),
(188,500,ls),
(100,500,o),
(50,464,o),
(50,380,cs),
(50,358,ls),
(50,280,o),
(96,238,o),
(178,238,cs),
(260,238,l),
(260,0,l)
);
},
{
closed = 1;
nodes = (
(120,278,o),
(90,310,o),
(90,358,cs),
(90,380,ls),
(90,434,o),
(126,460,o),
(190,460,cs),
(260,460,l),
(260,278,l),
(178,278,ls)
);
}
);
width = 720;
},
{
anchors = (
{
name = bottom;
pos = (460,0);
},
{
name = top;
pos = (296,700);
}
);
layerId = m004;
shapes = (
{
closed = 1;
nodes = (
(690,0,l),
(690,92,l),
(344,92,l),
(344,206,l),
(536,206,l),
(536,294,l),
(344,294,l),
(344,700,l),
(244,700,l),
(244,516,l),
(182,516,ls),
(94,516,o),
(32,460,o),
(32,374,cs),
(32,358,ls),
(32,270,o),
(84,206,o),
(172,206,cs),
(244,206,l),
(244,0,l)
);
},
{
closed = 1;
nodes = (
(144,294,o),
(126,314,o),
(126,358,cs),
(126,370,ls),
(126,408,o),
(154,428,o),
(188,428,cs),
(244,428,l),
(244,294,l),
(184,294,ls)
);
}
);
width = 720;
},
{
anchors = (
{
name = bottom;
pos = (460,0);
},
{
name = top;
pos = (310,700);
}
);
layerId = m003;
shapes = (
{
closed = 1;
nodes = (
(700,0,l),
(700,160,l),
(406,160,l),
(406,240,l),
(568,240,l),
(568,360,l),
(406,360,l),
(406,700,l),
(216,700,l),
(216,548,l),
(190,548,ls),
(84,548,o),
(12,490,o),
(12,396,cs),
(12,386,ls),
(12,288,o),
(80,240,o),
(190,240,cs),
(216,240,l),
(216,0,l)
);
},
{
closed = 1;
nodes = (
(156,360,o),
(144,376,o),
(144,394,cs),
(144,398,ls),
(144,416,o),
(156,430,o),
(178,430,cs),
(216,430,l),
(216,360,l),
(186,360,ls)
);
}
);
width = 720;
}
);
metricLeft = lbelt;
metricRight = L;
unicode = 42925;
},
{
color = 8;
glyphname = Lslash;
kernLeft = I;
kernRight = L;
lastChange = "2026-04-07 14:26:59 +0000";
layers = (
{
anchors = (
{
name = bottom;
pos = (300,0);
},
{
name = top;
pos = (150,700);
}
);
layerId = m003;
shapes = (
{
closed = 1;
nodes = (
(56,234,l),
(56,0,l),
(540,0,l),
(540,160,l),
(246,160,l),
(246,308,l),
(400,368,l),
(400,488,l),
(246,428,l),
(246,700,l),
(56,700,l),
(56,354,l),
(0,334,l),
(0,214,l)
);
}
);
width = 560;
},
{
anchors = (
{
name = bottom;
pos = (300,0);
},
{
name = top;
pos = (135,700);
}
);
layerId = m004;
shapes = (
{
closed = 1;
nodes = (
(84,266,l),
(84,0,l),
(530,0,l),
(530,92,l),
(184,92,l),
(184,306,l),
(400,392,l),
(400,470,l),
(184,384,l),
(184,700,l),
(84,700,l),
(84,344,l),
(0,310,l),
(0,232,l)
);
}
);
width = 560;
},
{
anchors = (
{
name = bottom;
pos = (300,0);
},
{
name = top;
pos = (119,700);
}
);
layerId = m007;
shapes = (
{
closed = 1;
nodes = (
(100,288,l),
(100,0,l),
(524,0,l),
(524,40,l),
(140,40,l),
(140,304,l),
(400,410,l),
(400,452,l),
(140,346,l),
(140,700,l),
(100,700,l),
(100,330,l),
(0,290,l),
(0,248,l)
);
}
);
width = 560;
}
);
metricRight = L;
unicode = 321;
},
{
color = 9;
glyphname = M;
kernLeft = I;
kernRight = I;
lastChange = "2026-04-04 07:40:07 +0000";
layers = (
{
anchors = (
{
name = bottom;
pos = (460,0);
},
{
name = top;
pos = (460,700);
}
);
layerId = m003;
shapes = (
{
closed = 1;
nodes = (
(226,0,l),
(226,462,l),
(380,0,l),
(528,0,l),
(678,446,l),
(678,0,l),
(864,0,l),
(864,700,l),
(640,700,l),
(464,220,l),
(290,700,l),
(56,700,l),
(56,0,l)
);
}
);
width = 920;
},
{
anchors = (
{
name = bottom;
pos = (461,0);
},
{
name = top;
pos = (460,700);
}
);
layerId = m004;
shapes = (
{
closed = 1;
nodes = (
(180,0,l),
(180,562,l),
(414,0,l),
(506,0,l),
(736,556,l),
(736,0,l),
(836,0,l),
(836,700,l),
(700,700,l),
(464,130,l),
(224,700,l),
(84,700,l),
(84,0,l)
);
}
);
width = 920;
},
{
anchors = (
{
name = bottom;
pos = (462,0);
},
{
name = top;
pos = (460,700);
}
);
layerId = m007;
shapes = (
{
closed = 1;
nodes = (
(140,0,l),
(140,654,l),
(440,0,l),
(480,0,l),
(780,652,l),
(780,0,l),
(820,0,l),
(820,700,l),
(760,700,l),
(462,46,l),
(162,700,l),
(100,700,l),
(100,0,l)
);
}
);
width = 920;
}
);
metricLeft = N;
metricRight = N;
unicode = 77;
},
{
glyphname = Mturned;
kernLeft = I;
kernRight = I;
lastChange = "2026-04-08 08:22:13 +0000";
layers = (
{
anchors = (
{
name = bottom;
pos = (418,0);
},
{
name = top;
pos = (418,700);
}
);
layerId = m007;
shapes = (
{
closed = 1;
nodes = (
(754,700,l),
(714,700,l),
(714,166,l),
(714,76,o),
(656,28,o),
(570,28,cs),
(566,28,ls),
(492,28,o),
(438,74,o),
(438,166,c),
(438,700,l),
(398,700,l),
(398,170,l),
(398,76,o),
(344,28,o),
(254,28,cs),
(250,28,ls),
(176,28,o),
(120,72,o),
(120,164,c),
(120,700,l),
(80,700,l),
(80,160,l),
(80,40,o),
(156,-12,o),
(246,-12,cs),
(250,-12,ls),
(344,-12,o),
(396,34,o),
(414,74,c),
(432,34,o),
(480,-12,o),
(562,-12,cs),
(566,-12,ls),
(634,-12,o),
(686,12,o),
(714,60,c),
(714,0,l),
(754,0,l)
);
}
);
width = 840;
},
{
anchors = (
{
name = bottom;
pos = (418,0);
},
{
name = top;
pos = (418,700);
}
);
layerId = m004;
shapes = (
{
closed = 1;
nodes = (
(770,700,l),
(674,700,l),
(674,200,l),
(674,106,o),
(618,76,o),
(562,76,cs),
(558,76,ls),
(504,76,o),
(466,102,o),
(466,188,c),
(466,700,l),
(370,700,l),
(370,202,l),
(370,130,o),
(336,76,o),
(256,76,cs),
(252,76,ls),
(196,76,o),
(162,112,o),
(162,186,c),
(162,700,l),
(66,700,l),
(66,168,l),
(66,38,o),
(148,-12,o),
(230,-12,cs),
(234,-12,ls),
(316,-12,o),
(368,28,o),
(392,68,c),
(414,20,o),
(458,-12,o),
(528,-12,cs),
(532,-12,ls),
(592,-12,o),
(644,18,o),
(674,72,c),
(674,0,l),
(770,0,l)
);
}
);
width = 840;
},
{
anchors = (
{
name = bottom;
pos = (418,0);
},
{
name = top;
pos = (418,700);
}
);
layerId = m003;
shapes = (
{
closed = 1;
nodes = (
(796,700,l),
(616,700,l),
(616,232,l),
(616,176,o),
(596,146,o),
(556,146,cs),
(552,146,ls),
(522,146,o),
(508,164,o),
(508,200,c),
(508,700,l),
(328,700,l),
(328,232,l),
(328,176,o),
(308,146,o),
(268,146,cs),
(264,146,ls),
(234,146,o),
(220,164,o),
(220,200,c),
(220,700,l),
(40,700,l),
(40,176,l),
(40,54,o),
(100,-12,o),
(202,-12,cs),
(206,-12,ls),
(280,-12,o),
(328,34,o),
(356,92,c),
(362,48,o),
(392,-12,o),
(470,-12,cs),
(474,-12,ls),
(534,-12,o),
(586,22,o),
(616,86,c),
(616,0,l),
(796,0,l)
);
}
);
width = 840;
}
);
metricLeft = u;
metricRight = u;
unicode = 412;
},
{
color = 9;
glyphname = N;
kernLeft = I;
kernRight = I;
lastChange = "2026-04-04 07:40:50 +0000";
layers = (
{
anchors = (
{
name = bottom;
pos = (360,0);
},
{
name = top;
pos = (360,700);
}
);
layerId = m003;
shapes = (
{
closed = 1;
nodes = (
(228,0,l),
(228,450,l),
(472,0,l),
(664,0,l),
(664,700,l),
(494,700,l),
(494,238,l),
(250,700,l),
(56,700,l),
(56,0,l)
);
}
);
width = 720;
},
{
anchors = (
{
name = bottom;
pos = (360,0);
},
{
name = top;
pos = (360,700);
}
);
layerId = m004;
shapes = (
{
closed = 1;
nodes = (
(182,0,l),
(182,550,l),
(524,0,l),
(636,0,l),
(636,700,l),
(538,700,l),
(538,150,l),
(196,700,l),
(84,700,l),
(84,0,l)
);
}
);
width = 720;
},
{
anchors = (
{
name = bottom;
pos = (360,0);
},
{
name = top;
pos = (360,700);
}
);
layerId = m007;
shapes = (
{
closed = 1;
nodes = (
(140,0,l),
(140,646,l),
(572,0,l),
(620,0,l),
(620,700,l),
(580,700,l),
(580,56,l),
(148,700,l),
(100,700,l),
(100,0,l)
);
}
);
width = 720;
}
);
unicode = 78;
},
{
glyphname = Nhookleft;
kernLeft = "j-I";
kernRight = I;
lastChange = "2026-04-08 08:26:18 +0000";
layers = (
{
anchors = (
{
name = bottom;
pos = (116,-200);
},
{
name = top;
pos = (360,700);
}
);
layerId = m007;
shapes = (
{
closed = 1;
nodes = (
(100,-68,l),
(100,-134,o),
(74,-160,o),
(8,-160,cs),
(-52,-160,l),
(-52,-200,l),
(16,-200,ls),
(98,-200,o),
(140,-158,o),
(140,-76,c),
(140,646,l),
(572,0,l),
(620,0,l),
(620,700,l),
(580,700,l),
(580,56,l),
(148,700,l),
(100,700,l)
);
}
);
width = 720;
},
{
anchors = (
{
name = bottom;
pos = (130,-200);
},
{
name = top;
pos = (360,700);
}
);
layerId = m004;
shapes = (
{
closed = 1;
nodes = (
(84,-52,l),
(84,-92,o),
(68,-108,o),
(28,-108,cs),
(-40,-108,l),
(-40,-200,l),
(52,-200,ls),
(140,-200,o),
(182,-156,o),
(182,-68,c),
(182,550,l),
(524,0,l),
(636,0,l),
(636,700,l),
(538,700,l),
(538,150,l),
(196,700,l),
(84,700,l)
);
}
);
width = 720;
},
{
anchors = (
{
name = bottom;
pos = (140,-200);
},
{
name = top;
pos = (360,700);
}
);
layerId = m003;
shapes = (
{
closed = 1;
nodes = (
(56,-16,l),
(56,-38,o),
(46,-46,o),
(28,-46,cs),
(-42,-46,l),
(-42,-200,l),
(94,-200,ls),
(182,-200,o),
(228,-154,o),
(228,-66,c),
(228,450,l),
(472,0,l),
(664,0,l),
(664,700,l),
(494,700,l),
(494,238,l),
(250,700,l),
(56,700,l)
);
}
);
width = 720;
}
);
unicode = 413;
},
{
color = 8;
glyphname = Eng;
kernLeft = I;
kernRight = "I-des";
lastChange = "2026-04-08 08:26:14 +0000";
layers = (
{
anchors = (
{
name = bottom;
pos = (510,-200);
},
{
name = top;
pos = (360,700);
}
);
layerId = m003;
shapes = (
{
closed = 1;
nodes = (
(228,0,l),
(228,450,l),
(474,4,l),
(474,-18,ls),
(474,-36,o),
(464,-46,o),
(446,-46,cs),
(394,-46,l),
(394,-200,l),
(522,-200,ls),
(610,-200,o),
(664,-146,o),
(664,-58,c),
(664,700,l),
(492,700,l),
(492,238,l),
(238,700,l),
(56,700,l),
(56,0,l)
);
}
);
width = 720;
},
{
anchors = (
{
name = bottom;
pos = (510,-200);
},
{
name = top;
pos = (360,700);
}
);
layerId = m004;
shapes = (
{
closed = 1;
nodes = (
(180,0,l),
(180,546,l),
(536,0,l),
(536,-56,ls),
(536,-92,o),
(520,-108,o),
(484,-108,cs),
(414,-108,l),
(414,-200,l),
(506,-200,ls),
(594,-200,o),
(636,-156,o),
(636,-68,c),
(636,700,l),
(538,700,l),
(538,160,l),
(188,700,l),
(84,700,l),
(84,0,l)
);
}
);
width = 720;
},
{
anchors = (
{
name = bottom;
pos = (510,-200);
},
{
name = top;
pos = (360,700);
}
);
layerId = m007;
shapes = (
{
closed = 1;
nodes = (
(140,0,l),
(140,642,l),
(580,0,l),
(580,-72,ls),
(580,-134,o),
(554,-160,o),
(492,-160,cs),
(428,-160,l),
(428,-200,l),
(496,-200,ls),
(578,-200,o),
(620,-158,o),
(620,-76,c),
(620,700,l),
(580,700,l),
(580,68,l),
(148,700,l),
(100,700,l),
(100,0,l)
);
}
);
width = 720;
}
);
metricLeft = N;
metricRight = N;
unicode = 330;
},
{
color = 9;
glyphname = O;
kernLeft = O;
kernRight = O;
lastChange = "2026-04-07 10:20:19 +0000";
layers = (
{
anchors = (
{
name = bottom;
pos = (360,0);
},
{
name = ogonek;
pos = (410,0);
},
{
name = top;
pos = (360,700);
}
);
layerId = m003;
shapes = (
{
closed = 1;
nodes = (
(562,-12,o),
(688,130,o),
(688,348,cs),
(688,352,ls),
(688,570,o),
(562,712,o),
(362,712,cs),
(358,712,ls),
(158,712,o),
(32,570,o),
(32,352,cs),
(32,348,ls),
(32,130,o),
(158,-12,o),
(358,-12,cs),
(362,-12,ls)
);
},
{
closed = 1;
nodes = (
(358,148,ls),
(262,148,o),
(224,236,o),
(224,348,cs),
(224,352,ls),
(224,464,o),
(262,552,o),
(358,552,cs),
(362,552,ls),
(458,552,o),
(496,464,o),
(496,352,cs),
(496,348,ls),
(496,236,o),
(458,148,o),
(362,148,cs)
);
}
);
width = 720;
},
{
anchors = (
{
name = bottom;
pos = (360,0);
},
{
name = ogonek;
pos = (414,0);
},
{
name = top;
pos = (360,700);
}
);
layerId = m004;
shapes = (
{
closed = 1;
nodes = (
(550,-12,o),
(668,128,o),
(668,348,cs),
(668,352,ls),
(668,576,o),
(552,712,o),
(362,712,cs),
(358,712,ls),
(166,712,o),
(52,576,o),
(52,352,cs),
(52,348,ls),
(52,130,o),
(170,-12,o),
(358,-12,cs),
(362,-12,ls)
);
},
{
closed = 1;
nodes = (
(358,80,ls),
(208,80,o),
(152,204,o),
(152,348,cs),
(152,352,ls),
(152,500,o),
(206,620,o),
(358,620,cs),
(362,620,ls),
(516,620,o),
(568,496,o),
(568,352,cs),
(568,348,ls),
(568,200,o),
(510,80,o),
(362,80,cs)
);
}
);
width = 720;
},
{
anchors = (
{
name = bottom;
pos = (360,0);
},
{
name = ogonek;
pos = (414,0);
},
{
name = top;
pos = (360,700);
}
);
layerId = m007;
shapes = (
{
closed = 1;
nodes = (
(552,-12,o),
(660,140,o),
(660,348,cs),
(660,352,ls),
(660,560,o),
(552,712,o),
(362,712,cs),
(358,712,ls),
(168,712,o),
(60,560,o),
(60,352,cs),
(60,348,ls),
(60,140,o),
(168,-12,o),
(358,-12,cs),
(362,-12,ls)
);
},
{
closed = 1;
nodes = (
(358,28,ls),
(186,28,o),
(100,166,o),
(100,348,cs),
(100,352,ls),
(100,534,o),
(186,672,o),
(358,672,cs),
(362,672,ls),
(534,672,o),
(620,534,o),
(620,352,cs),
(620,348,ls),
(620,166,o),
(534,28,o),
(362,28,cs)
);
}
);
width = 720;
}
);
unicode = 79;
userData = {
KernOnName = O;
};
},
{
color = 8;
glyphname = Ohorn;
kernLeft = O;
kernRight = "O-horn";
lastChange = "2026-04-07 14:26:59 +0000";
layers = (
{
anchors = (
{
name = bottom;
pos = (360,0);
},
{
name = ogonek;
pos = (410,0);
},
{
name = top;
pos = (360,700);
}
);
layerId = m003;
shapes = (
{
closed = 1;
nodes = (
(562,-12,o),
(688,130,o),
(688,348,cs),
(688,352,ls),
(688,394,o),
(684,432,o),
(674,468,c),
(680,468,ls),
(780,468,o),
(840,528,o),
(840,628,cs),
(840,700,l),
(700,700,l),
(700,634,ls),
(700,610,o),
(684,594,o),
(660,594,cs),
(616,594,l),
(560,668,o),
(472,712,o),
(362,712,cs),
(358,712,ls),
(158,712,o),
(32,570,o),
(32,352,cs),
(32,348,ls),
(32,130,o),
(158,-12,o),
(358,-12,cs),
(362,-12,ls)
);
},
{
closed = 1;
nodes = (
(358,148,ls),
(262,148,o),
(224,236,o),
(224,348,cs),
(224,352,ls),
(224,464,o),
(262,552,o),
(358,552,cs),
(362,552,ls),
(458,552,o),
(496,464,o),
(496,352,cs),
(496,348,ls),
(496,236,o),
(458,148,o),
(362,148,cs)
);
}
);
width = 860;
},
{
anchors = (
{
name = bottom;
pos = (360,0);
},
{
name = ogonek;
pos = (414,0);
},
{
name = top;
pos = (360,700);
}
);
layerId = m004;
shapes = (
{
closed = 1;
nodes = (
(550,-12,o),
(668,128,o),
(668,348,cs),
(668,352,ls),
(668,402,o),
(662,446,o),
(652,486,c),
(670,486,ls),
(770,486,o),
(830,546,o),
(830,646,cs),
(830,700,l),
(740,700,l),
(740,642,ls),
(740,590,o),
(712,562,o),
(660,562,cs),
(622,562,l),
(572,658,o),
(482,712,o),
(362,712,cs),
(358,712,ls),
(166,712,o),
(52,576,o),
(52,352,cs),
(52,348,ls),
(52,130,o),
(170,-12,o),
(358,-12,cs),
(362,-12,ls)
);
},
{
closed = 1;
nodes = (
(358,80,ls),
(208,80,o),
(152,204,o),
(152,348,cs),
(152,352,ls),
(152,500,o),
(206,620,o),
(358,620,cs),
(362,620,ls),
(516,620,o),
(568,496,o),
(568,352,cs),
(568,348,ls),
(568,200,o),
(510,80,o),
(362,80,cs)
);
}
);
width = 860;
},
{
anchors = (
{
name = bottom;
pos = (360,0);
},
{
name = ogonek;
pos = (414,0);
},
{
name = top;
pos = (360,700);
}
);
layerId = m007;
shapes = (
{
closed = 1;
nodes = (
(552,-12,o),
(660,140,o),
(660,348,cs),
(660,352,ls),
(660,412,o),
(650,466,o),
(634,514,c),
(684,514,ls),
(772,514,o),
(824,566,o),
(824,654,cs),
(824,700,l),
(784,700,l),
(784,654,ls),
(784,590,o),
(748,554,o),
(684,554,cs),
(618,554,l),
(570,652,o),
(482,712,o),
(362,712,cs),
(358,712,ls),
(168,712,o),
(60,560,o),
(60,352,cs),
(60,348,ls),
(60,140,o),
(168,-12,o),
(358,-12,cs),
(362,-12,ls)
);
},
{
closed = 1;
nodes = (
(358,28,ls),
(186,28,o),
(100,166,o),
(100,348,cs),
(100,352,ls),
(100,534,o),
(186,672,o),
(358,672,cs),
(362,672,ls),
(534,672,o),
(620,534,o),
(620,352,cs),
(620,348,ls),
(620,166,o),
(534,28,o),
(362,28,cs)
);
}
);
width = 860;
}
);
metricLeft = O;
metricRight = T;
unicode = 416;
},
{
color = 8;
glyphname = Oogonek;
kernLeft = O;
kernRight = O;
lastChange = "2026-04-07 14:26:59 +0000";
layers = (
{
anchors = (
{
name = bottom;
pos = (360,-200);
},
{
name = ogonek;
pos = (410,-200);
},
{
name = top;
pos = (360,700);
}
);
layerId = m003;
shapes = (
{
closed = 1;
nodes = (
(358,148,ls),
(262,148,o),
(224,236,o),
(224,348,cs),
(224,352,ls),
(224,464,o),
(262,552,o),
(358,552,cs),
(362,552,ls),
(458,552,o),
(496,464,o),
(496,352,cs),
(496,348,ls),
(496,236,o),
(458,148,o),
(362,148,cs)
);
},
{
closed = 1;
nodes = (
(504,-200,o),
(546,-144,o),
(550,-68,c),
(448,-68,l),
(448,-102,o),
(436,-118,o),
(410,-118,cs),
(386,-118,o),
(374,-106,o),
(374,-78,cs),
(374,-74,ls),
(374,-38,o),
(402,-18,o),
(450,-2,c),
(598,34,o),
(688,164,o),
(688,348,cs),
(688,352,ls),
(688,570,o),
(562,712,o),
(362,712,cs),
(358,712,ls),
(158,712,o),
(32,570,o),
(32,352,cs),
(32,348,ls),
(32,154,o),
(130,22,o),
(294,-6,c),
(280,-28,o),
(272,-50,o),
(272,-78,cs),
(272,-82,ls),
(272,-152,o),
(320,-200,o),
(406,-200,cs)
);
}
);
width = 720;
},
{
anchors = (
{
name = bottom;
pos = (360,-200);
},
{
name = ogonek;
pos = (414,-200);
},
{
name = top;
pos = (360,700);
}
);
layerId = m004;
shapes = (
{
closed = 1;
nodes = (
(358,80,ls),
(208,80,o),
(152,204,o),
(152,348,cs),
(152,352,ls),
(152,500,o),
(206,620,o),
(358,620,cs),
(362,620,ls),
(516,620,o),
(568,496,o),
(568,352,cs),
(568,348,ls),
(568,200,o),
(510,80,o),
(362,80,cs)
);
},
{
closed = 1;
nodes = (
(496,-200,o),
(526,-142,o),
(534,-86,c),
(450,-86,l),
(448,-110,o),
(440,-130,o),
(412,-130,cs),
(386,-130,o),
(378,-112,o),
(378,-94,cs),
(378,-90,ls),
(378,-64,o),
(394,-30,o),
(440,-4,c),
(582,30,o),
(668,160,o),
(668,348,cs),
(668,352,ls),
(668,576,o),
(552,712,o),
(362,712,cs),
(358,712,ls),
(166,712,o),
(52,576,o),
(52,352,cs),
(52,348,ls),
(52,142,o),
(158,4,o),
(326,-10,c),
(306,-36,o),
(296,-64,o),
(296,-94,cs),
(296,-98,ls),
(296,-154,o),
(332,-200,o),
(412,-200,cs)
);
}
);
width = 720;
},
{
anchors = (
{
name = bottom;
pos = (360,-200);
},
{
name = ogonek;
pos = (414,-200);
},
{
name = top;
pos = (360,700);
}
);
layerId = m007;
shapes = (
{
closed = 1;
nodes = (
(358,28,ls),
(186,28,o),
(100,166,o),
(100,348,cs),
(100,352,ls),
(100,534,o),
(186,672,o),
(358,672,cs),
(362,672,ls),
(534,672,o),
(620,534,o),
(620,352,cs),
(620,348,ls),
(620,166,o),
(534,28,o),
(362,28,cs)
);
},
{
closed = 1;
nodes = (
(474,-200,o),
(508,-154,o),
(512,-100,c),
(468,-100,l),
(464,-138,o),
(448,-160,o),
(410,-160,cs),
(372,-160,o),
(354,-136,o),
(354,-110,cs),
(354,-106,ls),
(354,-72,o),
(380,-32,o),
(416,-8,c),
(574,20,o),
(660,160,o),
(660,348,cs),
(660,352,ls),
(660,560,o),
(552,712,o),
(362,712,cs),
(358,712,ls),
(168,712,o),
(60,560,o),
(60,352,cs),
(60,348,ls),
(60,142,o),
(166,-10,o),
(354,-12,c),
(330,-40,o),
(314,-72,o),
(314,-106,cs),
(314,-110,ls),
(314,-160,o),
(346,-200,o),
(410,-200,cs)
);
}
);
width = 720;
}
);
unicode = 490;
},
{
color = 8;
glyphname = Oslash;
kernLeft = O;
kernRight = O;
lastChange = "2026-04-07 14:30:58 +0000";
layers = (
{
anchors = (
{
name = bottom;
pos = (360,0);
},
{
name = ogonek;
pos = (410,0);
},
{
name = top;
pos = (360,700);
}
);
layerId = m003;
shapes = (
{
closed = 1;
nodes = (
(194,0,l),
(208,20,l),
(250,0,o),
(302,-12,o),
(358,-12,cs),
(362,-12,ls),
(562,-12,o),
(688,130,o),
(688,348,cs),
(688,352,ls),
(688,454,o),
(660,540,o),
(610,602,c),
(680,700,l),
(528,700,l),
(512,680,l),
(470,700,o),
(418,712,o),
(362,712,cs),
(358,712,ls),
(158,712,o),
(32,570,o),
(32,352,cs),
(32,348,ls),
(32,246,o),
(60,160,o),
(110,98,c),
(42,0,l)
);
},
{
closed = 1;
nodes = (
(358,140,ls),
(338,140,o),
(312,144,o),
(296,152,c),
(496,442,l),
(502,420,o),
(508,402,o),
(508,352,cs),
(508,348,ls),
(508,236,o),
(458,140,o),
(362,140,cs)
);
},
{
closed = 1;
nodes = (
(212,352,ls),
(212,464,o),
(262,560,o),
(358,560,cs),
(362,560,ls),
(382,560,o),
(408,556,o),
(424,548,c),
(222,266,l),
(216,288,o),
(212,310,o),
(212,348,cs)
);
}
);
width = 720;
},
{
anchors = (
{
name = bottom;
pos = (360,0);
},
{
name = ogonek;
pos = (414,0);
},
{
name = top;
pos = (360,700);
}
);
layerId = m004;
shapes = (
{
closed = 1;
nodes = (
(152,0,l),
(182,42,l),
(230,8,o),
(290,-12,o),
(358,-12,cs),
(362,-12,ls),
(550,-12,o),
(668,128,o),
(668,348,cs),
(668,352,ls),
(668,460,o),
(642,546,o),
(594,608,c),
(660,700,l),
(568,700,l),
(538,660,l),
(490,694,o),
(432,712,o),
(362,712,cs),
(358,712,ls),
(166,712,o),
(52,576,o),
(52,352,cs),
(52,348,ls),
(52,244,o),
(80,156,o),
(128,94,c),
(60,0,l)
);
},
{
closed = 1;
nodes = (
(358,80,ls),
(308,80,o),
(268,94,o),
(238,118,c),
(532,524,l),
(558,476,o),
(568,416,o),
(568,352,cs),
(568,348,ls),
(568,200,o),
(510,80,o),
(362,80,cs)
);
},
{
closed = 1;
nodes = (
(152,352,ls),
(152,500,o),
(206,620,o),
(358,620,cs),
(362,620,ls),
(412,620,o),
(454,606,o),
(484,584,c),
(188,178,l),
(164,224,o),
(152,284,o),
(152,348,cs)
);
}
);
width = 720;
},
{
anchors = (
{
name = bottom;
pos = (360,0);
},
{
name = ogonek;
pos = (414,0);
},
{
name = top;
pos = (360,700);
}
);
layerId = m007;
shapes = (
{
closed = 1;
nodes = (
(110,0,l),
(160,64,l),
(210,16,o),
(276,-12,o),
(358,-12,cs),
(362,-12,ls),
(552,-12,o),
(660,140,o),
(660,348,cs),
(660,352,ls),
(660,454,o),
(634,542,o),
(586,606,c),
(660,700,l),
(610,700,l),
(560,636,l),
(510,684,o),
(444,712,o),
(362,712,cs),
(358,712,ls),
(168,712,o),
(60,560,o),
(60,352,cs),
(60,348,ls),
(60,246,o),
(86,158,o),
(134,94,c),
(60,0,l)
);
},
{
closed = 1;
nodes = (
(358,28,ls),
(284,28,o),
(228,52,o),
(186,96,c),
(560,574,l),
(600,516,o),
(620,440,o),
(620,352,cs),
(620,348,ls),
(620,166,o),
(534,28,o),
(362,28,cs)
);
},
{
closed = 1;
nodes = (
(100,352,ls),
(100,534,o),
(186,672,o),
(358,672,cs),
(362,672,ls),
(436,672,o),
(492,648,o),
(534,604,c),
(160,126,l),
(120,184,o),
(100,260,o),
(100,348,cs)
);
}
);
width = 720;
}
);
metricLeft = O;
metricRight = O;
unicode = 216;
},
{
color = 8;
glyphname = OE;
kernLeft = O;
kernRight = E;
lastChange = "2026-04-08 08:55:00 +0000";
layers = (
{
anchors = (
{
name = bottom;
pos = (520,0);
},
{
name = ogonek;
pos = (914,0);
},
{
name = top;
pos = (520,700);
}
);
layerId = m003;
shapes = (
{
closed = 1;
nodes = (
(964,0,l),
(964,152,l),
(646,152,l),
(646,282,l),
(940,282,l),
(940,418,l),
(646,418,l),
(646,548,l),
(964,548,l),
(964,700,l),
(400,700,l),
(178,700,o),
(32,574,o),
(32,352,cs),
(32,348,ls),
(32,126,o),
(178,0,o),
(400,0,c)
);
},
{
closed = 1;
nodes = (
(224,352,ls),
(224,474,o),
(294,548,o),
(416,548,cs),
(456,548,l),
(456,152,l),
(416,152,ls),
(294,152,o),
(224,224,o),
(224,348,cs)
);
}
);
width = 1000;
},
{
anchors = (
{
name = bottom;
pos = (520,0);
},
{
name = ogonek;
pos = (914,0);
},
{
name = top;
pos = (520,700);
}
);
layerId = m004;
shapes = (
{
closed = 1;
nodes = (
(948,0,l),
(948,88,l),
(584,88,l),
(584,306,l),
(922,306,l),
(922,394,l),
(584,394,l),
(584,612,l),
(948,612,l),
(948,700,l),
(422,700,l),
(184,700,o),
(52,584,o),
(52,352,cs),
(52,348,ls),
(52,116,o),
(186,0,o),
(422,0,c)
);
},
{
closed = 1;
nodes = (
(152,352,ls),
(152,538,o),
(238,608,o),
(426,608,cs),
(484,608,l),
(484,92,l),
(426,92,ls),
(232,92,o),
(152,174,o),
(152,348,cs)
);
}
);
width = 1000;
},
{
anchors = (
{
name = bottom;
pos = (520,0);
},
{
name = ogonek;
pos = (914,0);
},
{
name = top;
pos = (520,700);
}
);
layerId = m007;
shapes = (
{
closed = 1;
nodes = (
(934,0,l),
(934,40,l),
(540,40,l),
(540,330,l),
(912,330,l),
(912,370,l),
(540,370,l),
(540,660,l),
(934,660,l),
(934,700,l),
(428,700,l),
(176,700,o),
(60,568,o),
(60,352,cs),
(60,348,ls),
(60,132,o),
(176,0,o),
(428,0,c)
);
},
{
closed = 1;
nodes = (
(100,352,ls),
(100,552,o),
(204,660,o),
(428,660,cs),
(500,660,l),
(500,42,l),
(428,42,ls),
(204,42,o),
(100,148,o),
(100,348,cs)
);
}
);
width = 1000;
}
);
metricLeft = O;
metricRight = E;
unicode = 338;
},
{
color = 9;
glyphname = P;
kernLeft = I;
kernRight = P;
lastChange = "2026-04-01 10:14:42 +0000";
layers = (
{
anchors = (
{
name = bottom;
pos = (150,0);
},
{
name = top;
pos = (330,700);
}
);
layerId = m003;
shapes = (
{
closed = 1;
nodes = (
(246,0,l),
(246,244,l),
(368,244,ls),
(528,244,o),
(636,318,o),
(636,470,cs),
(636,474,ls),
(636,624,o),
(528,700,o),
(368,700,cs),
(56,700,l),
(56,0,l)
);
},
{
closed = 1;
nodes = (
(246,552,l),
(352,552,ls),
(412,552,o),
(446,528,o),
(446,474,cs),
(446,470,ls),
(446,414,o),
(411,392,o),
(352,392,cs),
(246,392,l)
);
}
);
width = 660;
},
{
anchors = (
{
name = bottom;
pos = (136,0);
},
{
name = top;
pos = (330,700);
}
);
layerId = m004;
shapes = (
{
closed = 1;
nodes = (
(184,0,l),
(184,260,l),
(364,260,ls),
(543,260,o),
(620,358,o),
(620,478,cs),
(620,482,ls),
(620,600,o),
(544,700,o),
(364,700,cs),
(84,700,l),
(84,0,l)
);
},
{
closed = 1;
nodes = (
(184,608,l),
(354,608,ls),
(458,608,o),
(520,572,o),
(520,482,cs),
(520,478,ls),
(520,386,o),
(457,352,o),
(354,352,cs),
(184,352,l)
);
}
);
width = 660;
},
{
anchors = (
{
name = bottom;
pos = (120,0);
},
{
name = top;
pos = (330,700);
}
);
layerId = m007;
shapes = (
{
closed = 1;
nodes = (
(140,0,l),
(140,272,l),
(364,272,ls),
(513,272,o),
(610,350,o),
(610,484,cs),
(610,488,ls),
(610,620,o),
(514,700,o),
(364,700,cs),
(100,700,l),
(100,0,l)
);
},
{
closed = 1;
nodes = (
(140,660,l),
(358,660,ls),
(488,660,o),
(570,600,o),
(570,488,cs),
(570,484,ls),
(570,370,o),
(487,312,o),
(358,312,cs),
(140,312,l)
);
}
);
width = 660;
}
);
metricLeft = N;
unicode = 80;
},
{
color = 8;
glyphname = Thorn;
kernLeft = I;
kernRight = Phi;
lastChange = "2026-04-07 14:26:59 +0000";
layers = (
{
anchors = (
{
name = bottom;
pos = (150,0);
},
{
name = top;
pos = (150,700);
}
);
layerId = m003;
shapes = (
{
closed = 1;
nodes = (
(246,0,l),
(246,122,l),
(376,122,ls),
(536,122,o),
(636,196,o),
(636,348,cs),
(636,352,ls),
(636,502,o),
(536,578,o),
(376,578,cs),
(246,578,l),
(246,700,l),
(56,700,l),
(56,0,l)
);
},
{
closed = 1;
nodes = (
(246,430,l),
(350,430,ls),
(410,430,o),
(444,406,o),
(444,352,cs),
(444,348,ls),
(444,292,o),
(410,270,o),
(350,270,cs),
(246,270,l)
);
}
);
width = 660;
},
{
anchors = (
{
name = bottom;
pos = (136,0);
},
{
name = top;
pos = (136,700);
}
);
layerId = m004;
shapes = (
{
closed = 1;
nodes = (
(184,0,l),
(184,130,l),
(364,130,ls),
(544,130,o),
(620,228,o),
(620,348,cs),
(620,352,ls),
(620,470,o),
(544,570,o),
(364,570,cs),
(184,570,l),
(184,700,l),
(84,700,l),
(84,0,l)
);
},
{
closed = 1;
nodes = (
(184,478,l),
(354,478,ls),
(458,478,o),
(520,442,o),
(520,352,cs),
(520,348,ls),
(520,256,o),
(458,222,o),
(354,222,cs),
(184,222,l)
);
}
);
width = 660;
},
{
anchors = (
{
name = bottom;
pos = (120,0);
},
{
name = top;
pos = (120,700);
}
);
layerId = m007;
shapes = (
{
closed = 1;
nodes = (
(140,0,l),
(140,136,l),
(364,136,ls),
(514,136,o),
(610,214,o),
(610,348,cs),
(610,352,ls),
(610,484,o),
(514,564,o),
(364,564,cs),
(140,564,l),
(140,700,l),
(100,700,l),
(100,0,l)
);
},
{
closed = 1;
nodes = (
(140,524,l),
(358,524,ls),
(488,524,o),
(570,464,o),
(570,352,cs),
(570,348,ls),
(570,234,o),
(488,176,o),
(358,176,cs),
(140,176,l)
);
}
);
width = 660;
}
);
metricLeft = N;
metricRight = P;
unicode = 222;
},
{
color = 9;
glyphname = Q;
kernLeft = O;
kernRight = Q;
lastChange = "2026-04-07 14:26:59 +0000";
layers = (
{
anchors = (
{
name = bottom;
pos = (550,-200);
},
{
name = ogonek;
pos = (410,0);
},
{
name = top;
pos = (360,700);
}
);
layerId = m003;
shapes = (
{
closed = 1;
nodes = (
(688,-150,l),
(568,56,l),
(644,118,o),
(688,220,o),
(688,348,cs),
(688,352,ls),
(688,570,o),
(562,712,o),
(362,712,cs),
(358,712,ls),
(158,712,o),
(32,570,o),
(32,352,cs),
(32,348,ls),
(32,130,o),
(158,-12,o),
(358,-12,cs),
(362,-12,ls),
(376,-12,o),
(390,-12,o),
(406,-10,c),
(486,-150,l)
);
},
{
closed = 1;
nodes = (
(358,148,ls),
(262,148,o),
(224,236,o),
(224,348,cs),
(224,352,ls),
(224,464,o),
(262,552,o),
(358,552,cs),
(362,552,ls),
(458,552,o),
(496,464,o),
(496,352,cs),
(496,348,ls),
(496,236,o),
(458,148,o),
(362,148,cs)
);
}
);
width = 720;
},
{
anchors = (
{
name = bottom;
pos = (550,-200);
},
{
name = ogonek;
pos = (414,0);
},
{
name = top;
pos = (360,700);
}
);
layerId = m004;
shapes = (
{
closed = 1;
nodes = (
(650,-150,l),
(532,38,l),
(618,96,o),
(668,206,o),
(668,348,cs),
(668,352,ls),
(668,576,o),
(552,712,o),
(362,712,cs),
(358,712,ls),
(166,712,o),
(52,576,o),
(52,352,cs),
(52,348,ls),
(52,130,o),
(170,-12,o),
(358,-12,cs),
(362,-12,ls),
(390,-12,o),
(414,-10,o),
(440,-4,c),
(532,-150,l)
);
},
{
closed = 1;
nodes = (
(358,80,ls),
(208,80,o),
(152,204,o),
(152,348,cs),
(152,352,ls),
(152,500,o),
(206,620,o),
(358,620,cs),
(362,620,ls),
(516,620,o),
(568,496,o),
(568,352,cs),
(568,348,ls),
(568,200,o),
(510,80,o),
(362,80,cs)
);
}
);
width = 720;
},
{
anchors = (
{
name = bottom;
pos = (550,-200);
},
{
name = ogonek;
pos = (414,0);
},
{
name = top;
pos = (360,700);
}
);
layerId = m007;
shapes = (
{
closed = 1;
nodes = (
(624,-150,l),
(510,26,l),
(608,84,o),
(660,202,o),
(660,348,cs),
(660,352,ls),
(660,560,o),
(552,712,o),
(362,712,cs),
(358,712,ls),
(168,712,o),
(60,560,o),
(60,352,cs),
(60,348,ls),
(60,140,o),
(168,-12,o),
(358,-12,cs),
(362,-12,ls),
(402,-12,o),
(440,-4,o),
(470,8,c),
(574,-150,l)
);
},
{
closed = 1;
nodes = (
(358,28,ls),
(186,28,o),
(100,166,o),
(100,348,cs),
(100,352,ls),
(100,534,o),
(186,672,o),
(358,672,cs),
(362,672,ls),
(534,672,o),
(620,534,o),
(620,352,cs),
(620,348,ls),
(620,166,o),
(534,28,o),
(362,28,cs)
);
}
);
width = 720;
}
);
metricLeft = O;
metricRight = O;
unicode = 81;
},
{
glyphname = Q.ss02;
kernLeft = O;
kernRight = Q;
lastChange = "2026-04-07 14:26:59 +0000";
layers = (
{
anchors = (
{
name = bottom;
pos = (550,-200);
},
{
name = ogonek;
pos = (410,0);
},
{
name = top;
pos = (360,700);
}
);
layerId = m003;
shapes = (
{
closed = 1;
nodes = (
(376,-12,o),
(390,-12,o),
(404,-10,c),
(428,-54,ls),
(460,-116,o),
(490,-150,o),
(578,-150,cs),
(680,-150,l),
(680,-12,l),
(594,-12,ls),
(576,-12,o),
(566,-6,o),
(560,8,cs),
(546,40,l),
(636,100,o),
(688,208,o),
(688,348,cs),
(688,352,ls),
(688,570,o),
(562,712,o),
(362,712,cs),
(358,712,ls),
(158,712,o),
(32,570,o),
(32,352,cs),
(32,348,ls),
(32,130,o),
(158,-12,o),
(358,-12,cs),
(362,-12,ls)
);
},
{
closed = 1;
nodes = (
(358,148,ls),
(262,148,o),
(224,236,o),
(224,348,cs),
(224,352,ls),
(224,464,o),
(262,552,o),
(358,552,cs),
(362,552,ls),
(458,552,o),
(496,464,o),
(496,352,cs),
(496,348,ls),
(496,236,o),
(458,148,o),
(362,148,cs)
);
}
);
width = 720;
},
{
anchors = (
{
name = bottom;
pos = (550,-200);
},
{
name = ogonek;
pos = (414,0);
},
{
name = top;
pos = (360,700);
}
);
layerId = m004;
shapes = (
{
closed = 1;
nodes = (
(372,-12,o),
(380,-12,o),
(390,-10,c),
(416,-60,ls),
(450,-124,o),
(484,-150,o),
(562,-150,cs),
(640,-150,l),
(640,-58,l),
(560,-58,ls),
(532,-58,o),
(518,-52,o),
(508,-32,cs),
(486,12,l),
(600,60,o),
(668,182,o),
(668,348,cs),
(668,352,ls),
(668,576,o),
(552,712,o),
(362,712,cs),
(358,712,ls),
(166,712,o),
(52,576,o),
(52,352,cs),
(52,348,ls),
(52,130,o),
(170,-12,o),
(358,-12,cs),
(362,-12,ls)
);
},
{
closed = 1;
nodes = (
(358,80,ls),
(208,80,o),
(152,204,o),
(152,348,cs),
(152,352,ls),
(152,500,o),
(206,620,o),
(358,620,cs),
(362,620,ls),
(516,620,o),
(568,496,o),
(568,352,cs),
(568,348,ls),
(568,200,o),
(510,80,o),
(362,80,cs)
);
}
);
width = 720;
},
{
anchors = (
{
name = bottom;
pos = (550,-200);
},
{
name = ogonek;
pos = (414,0);
},
{
name = top;
pos = (360,700);
}
);
layerId = m007;
shapes = (
{
closed = 1;
nodes = (
(380,-12,o),
(398,-10,o),
(414,-8,c),
(458,-80,ls),
(490,-130,o),
(524,-150,o),
(590,-150,cs),
(640,-150,l),
(640,-110,l),
(590,-110,ls),
(540,-110,o),
(518,-100,o),
(496,-62,cs),
(458,2,l),
(588,46,o),
(660,178,o),
(660,348,cs),
(660,352,ls),
(660,560,o),
(552,712,o),
(362,712,cs),
(358,712,ls),
(168,712,o),
(60,560,o),
(60,352,cs),
(60,348,ls),
(60,140,o),
(168,-12,o),
(358,-12,cs),
(362,-12,ls)
);
},
{
closed = 1;
nodes = (
(358,28,ls),
(186,28,o),
(100,166,o),
(100,348,cs),
(100,352,ls),
(100,534,o),
(186,672,o),
(358,672,cs),
(362,672,ls),
(534,672,o),
(620,534,o),
(620,352,cs),
(620,348,ls),
(620,166,o),
(534,28,o),
(362,28,cs)
);
}
);
width = 720;
}
);
metricLeft = O;
metricRight = O;
},
{
color = 9;
glyphname = R;
kernLeft = I;
kernRight = R;
lastChange = "2026-04-01 10:19:26 +0000";
layers = (
{
anchors = (
{
name = bottom;
pos = (340,0);
},
{
name = top;
pos = (340,700);
}
);
layerId = m003;
shapes = (
{
closed = 1;
nodes = (
(246,0,l),
(246,256,l),
(290,256,l),
(442,0,l),
(656,0,l),
(482,276,l),
(560,300,o),
(630,364,o),
(630,478,cs),
(630,482,ls),
(630,616,o),
(540,700,o),
(370,700,cs),
(56,700,l),
(56,0,l)
);
},
{
closed = 1;
nodes = (
(246,556,l),
(338,556,ls),
(402,556,o),
(440,536,o),
(440,478,cs),
(440,474,ls),
(440,414,o),
(401,396,o),
(338,396,cs),
(246,396,l)
);
}
);
width = 680;
},
{
anchors = (
{
name = bottom;
pos = (340,0);
},
{
name = top;
pos = (340,700);
}
);
layerId = m004;
shapes = (
{
closed = 1;
nodes = (
(184,0,l),
(184,282,l),
(324,282,l),
(514,0,l),
(632,0,l),
(434,290,l),
(543,298,o),
(612,378,o),
(612,490,cs),
(612,494,ls),
(612,622,o),
(526,700,o),
(378,700,cs),
(84,700,l),
(84,0,l)
);
},
{
closed = 1;
nodes = (
(184,608,l),
(362,608,ls),
(456,608,o),
(512,572,o),
(512,494,cs),
(512,490,ls),
(512,406,o),
(445,376,o),
(362,376,cs),
(184,376,l)
);
}
);
width = 680;
},
{
anchors = (
{
name = bottom;
pos = (340,0);
},
{
name = top;
pos = (340,700);
}
);
layerId = m007;
shapes = (
{
closed = 1;
nodes = (
(140,0,l),
(140,306,l),
(350,306,l),
(568,0,l),
(618,0,l),
(398,306,l),
(525,308,o),
(602,386,o),
(602,500,cs),
(602,504,ls),
(602,626,o),
(522,700,o),
(384,700,cs),
(100,700,l),
(100,0,l)
);
},
{
closed = 1;
nodes = (
(140,660,l),
(380,660,ls),
(502,660,o),
(562,602,o),
(562,504,cs),
(562,500,ls),
(562,392,o),
(487,346,o),
(380,346,cs),
(140,346,l)
);
}
);
width = 680;
}
);
metricLeft = N;
unicode = 82;
userData = {
KernOnName = R;
};
},
{
glyphname = R.ss01;
kernLeft = I;
kernRight = R;
lastChange = "2026-04-01 10:19:43 +0000";
layers = (
{
anchors = (
{
name = bottom;
pos = (340,0);
},
{
name = top;
pos = (340,700);
}
);
layerId = m003;
shapes = (
{
closed = 1;
nodes = (
(246,0,l),
(246,256,l),
(346,256,ls),
(392,256,o),
(410,238,o),
(410,192,cs),
(410,114,ls),
(410,44,o),
(422,18,o),
(452,0,c),
(656,0,l),
(656,40,l),
(620,50,o),
(598,68,o),
(598,118,cs),
(598,222,ls),
(598,272,o),
(574,304,o),
(534,320,c),
(596,350,o),
(630,406,o),
(630,484,cs),
(630,488,ls),
(630,610,o),
(546,700,o),
(370,700,cs),
(56,700,l),
(56,0,l)
);
},
{
closed = 1;
nodes = (
(246,556,l),
(338,556,ls),
(404,556,o),
(440,536,o),
(440,478,cs),
(440,474,ls),
(440,412,o),
(399,398,o),
(338,398,cs),
(246,398,l)
);
}
);
width = 680;
},
{
anchors = (
{
name = bottom;
pos = (340,0);
},
{
name = top;
pos = (340,700);
}
);
layerId = m004;
shapes = (
{
closed = 1;
nodes = (
(184,0,l),
(184,282,l),
(392,282,ls),
(450,282,o),
(472,260,o),
(472,202,cs),
(472,114,ls),
(472,44,o),
(488,20,o),
(516,0,c),
(632,0,l),
(632,20,l),
(596,36,o),
(572,56,o),
(572,114,cs),
(572,226,ls),
(572,282,o),
(546,316,o),
(514,326,c),
(558,348,o),
(612,394,o),
(612,490,cs),
(612,494,ls),
(612,622,o),
(526,700,o),
(378,700,cs),
(84,700,l),
(84,0,l)
);
},
{
closed = 1;
nodes = (
(184,608,l),
(362,608,ls),
(452,608,o),
(512,572,o),
(512,494,cs),
(512,490,ls),
(512,406,o),
(445,376,o),
(362,376,cs),
(184,376,l)
);
}
);
width = 680;
},
{
anchors = (
{
name = bottom;
pos = (340,0);
},
{
name = top;
pos = (340,700);
}
);
layerId = m007;
shapes = (
{
closed = 1;
nodes = (
(140,0,l),
(140,306,l),
(432,306,ls),
(490,306,o),
(512,282,o),
(512,224,cs),
(512,122,ls),
(512,44,o),
(542,16,o),
(566,0,c),
(618,0,l),
(618,10,l),
(584,24,o),
(552,54,o),
(552,122,cs),
(552,230,ls),
(552,292,o),
(528,322,o),
(494,330,c),
(538,348,o),
(602,394,o),
(602,500,cs),
(602,504,ls),
(602,632,o),
(518,700,o),
(384,700,cs),
(100,700,l),
(100,0,l)
);
},
{
closed = 1;
nodes = (
(140,660,l),
(380,660,ls),
(502,660,o),
(562,602,o),
(562,504,cs),
(562,500,ls),
(562,394,o),
(489,346,o),
(380,346,cs),
(140,346,l)
);
}
);
width = 680;
}
);
metricLeft = N;
metricRight = R;
userData = {
KernOnName = R;
};
},
{
color = 8;
glyphname = Rstroke;
kernLeft = I;
kernRight = R;
lastChange = "2026-04-07 14:26:59 +0000";
layers = (
{
anchors = (
{
name = bottom;
pos = (340,0);
},
{
name = top;
pos = (340,700);
}
);
layerId = m007;
shapes = (
{
closed = 1;
nodes = (
(140,0,l),
(140,306,l),
(350,306,l),
(568,0,l),
(618,0,l),
(398,306,l),
(526,308,o),
(602,386,o),
(602,500,cs),
(602,504,ls),
(602,626,o),
(522,700,o),
(384,700,cs),
(100,700,l),
(100,346,l),
(0,346,l),
(0,306,l),
(100,306,l),
(100,0,l)
);
},
{
closed = 1;
nodes = (
(140,660,l),
(380,660,ls),
(502,660,o),
(562,602,o),
(562,504,cs),
(562,500,ls),
(562,392,o),
(488,346,o),
(380,346,cs),
(140,346,l)
);
}
);
width = 680;
},
{
anchors = (
{
name = bottom;
pos = (340,0);
},
{
name = top;
pos = (340,700);
}
);
layerId = m004;
shapes = (
{
closed = 1;
nodes = (
(184,0,l),
(184,282,l),
(324,282,l),
(514,0,l),
(632,0,l),
(434,290,l),
(544,298,o),
(612,378,o),
(612,490,cs),
(612,494,ls),
(612,622,o),
(526,700,o),
(378,700,cs),
(84,700,l),
(84,354,l),
(0,354,l),
(0,282,l),
(84,282,l),
(84,0,l)
);
},
{
closed = 1;
nodes = (
(184,608,l),
(362,608,ls),
(456,608,o),
(512,572,o),
(512,494,cs),
(512,490,ls),
(512,406,o),
(446,376,o),
(362,376,cs),
(184,376,l)
);
}
);
width = 680;
},
{
anchors = (
{
name = bottom;
pos = (340,0);
},
{
name = top;
pos = (340,700);
}
);
layerId = m003;
shapes = (
{
closed = 1;
nodes = (
(246,0,l),
(246,256,l),
(290,256,l),
(442,0,l),
(656,0,l),
(482,276,l),
(560,300,o),
(630,364,o),
(630,478,cs),
(630,482,ls),
(630,616,o),
(540,700,o),
(370,700,cs),
(56,700,l),
(56,336,l),
(0,336,l),
(0,256,l),
(56,256,l),
(56,0,l)
);
},
{
closed = 1;
nodes = (
(246,556,l),
(338,556,ls),
(402,556,o),
(440,536,o),
(440,478,cs),
(440,474,ls),
(440,414,o),
(402,396,o),
(338,396,cs),
(246,396,l)
);
}
);
width = 680;
}
);
unicode = 588;
},
{
glyphname = Rstroke.ss01;
kernLeft = I;
kernRight = R;
lastChange = "2026-04-07 14:26:59 +0000";
layers = (
{
anchors = (
{
name = bottom;
pos = (340,0);
},
{
name = top;
pos = (340,700);
}
);
layerId = m007;
shapes = (
{
closed = 1;
nodes = (
(140,0,l),
(140,306,l),
(432,306,ls),
(490,306,o),
(512,282,o),
(512,224,cs),
(512,122,ls),
(512,44,o),
(542,16,o),
(566,0,c),
(618,0,l),
(618,10,l),
(584,24,o),
(552,54,o),
(552,122,cs),
(552,230,ls),
(552,292,o),
(528,322,o),
(494,330,c),
(538,348,o),
(602,394,o),
(602,500,cs),
(602,504,ls),
(602,632,o),
(518,700,o),
(384,700,cs),
(100,700,l),
(100,346,l),
(0,346,l),
(0,306,l),
(100,306,l),
(100,0,l)
);
},
{
closed = 1;
nodes = (
(140,660,l),
(380,660,ls),
(502,660,o),
(562,602,o),
(562,504,cs),
(562,500,ls),
(562,394,o),
(490,346,o),
(380,346,cs),
(140,346,l)
);
}
);
width = 680;
},
{
anchors = (
{
name = bottom;
pos = (340,0);
},
{
name = top;
pos = (340,700);
}
);
layerId = m004;
shapes = (
{
closed = 1;
nodes = (
(184,0,l),
(184,282,l),
(392,282,ls),
(450,282,o),
(472,260,o),
(472,202,cs),
(472,114,ls),
(472,44,o),
(488,20,o),
(516,0,c),
(632,0,l),
(632,20,l),
(596,36,o),
(572,56,o),
(572,114,cs),
(572,226,ls),
(572,282,o),
(546,316,o),
(514,326,c),
(558,348,o),
(612,394,o),
(612,490,cs),
(612,494,ls),
(612,622,o),
(526,700,o),
(378,700,cs),
(84,700,l),
(84,354,l),
(0,354,l),
(0,282,l),
(84,282,l),
(84,0,l)
);
},
{
closed = 1;
nodes = (
(184,608,l),
(362,608,ls),
(452,608,o),
(512,572,o),
(512,494,cs),
(512,490,ls),
(512,406,o),
(446,376,o),
(362,376,cs),
(184,376,l)
);
}
);
width = 680;
},
{
anchors = (
{
name = bottom;
pos = (340,0);
},
{
name = top;
pos = (340,700);
}
);
layerId = m003;
shapes = (
{
closed = 1;
nodes = (
(246,0,l),
(246,256,l),
(346,256,ls),
(392,256,o),
(410,238,o),
(410,192,cs),
(410,114,ls),
(410,44,o),
(422,18,o),
(452,0,c),
(656,0,l),
(656,40,l),
(620,50,o),
(598,68,o),
(598,118,cs),
(598,222,ls),
(598,272,o),
(574,304,o),
(534,320,c),
(596,350,o),
(630,406,o),
(630,484,cs),
(630,488,ls),
(630,610,o),
(546,700,o),
(370,700,cs),
(56,700,l),
(56,336,l),
(0,336,l),
(0,256,l),
(56,256,l),
(56,0,l)
);
},
{
closed = 1;
nodes = (
(246,556,l),
(338,556,ls),
(404,556,o),
(440,536,o),
(440,478,cs),
(440,474,ls),
(440,412,o),
(400,398,o),
(338,398,cs),
(246,398,l)
);
}
);
width = 680;
}
);
},
{
glyphname = Rtail;
kernLeft = I;
kernRight = R;
lastChange = "2026-04-08 08:26:25 +0000";
layers = (
{
anchors = (
{
name = bottom;
pos = (330,-200);
},
{
name = top;
pos = (330,700);
}
);
layerId = m007;
shapes = (
{
closed = 1;
nodes = (
(100,-76,l),
(100,-158,o),
(142,-200,o),
(224,-200,cs),
(292,-200,l),
(292,-160,l),
(228,-160,ls),
(166,-160,o),
(140,-134,o),
(140,-72,c),
(140,306,l),
(350,306,l),
(568,0,l),
(618,0,l),
(398,306,l),
(526,308,o),
(602,386,o),
(602,500,cs),
(602,504,ls),
(602,626,o),
(522,700,o),
(384,700,cs),
(100,700,l)
);
},
{
closed = 1;
nodes = (
(140,660,l),
(380,660,ls),
(502,660,o),
(562,602,o),
(562,504,cs),
(562,500,ls),
(562,392,o),
(488,346,o),
(380,346,cs),
(140,346,l)
);
}
);
width = 680;
},
{
anchors = (
{
name = bottom;
pos = (330,-200);
},
{
name = top;
pos = (330,700);
}
);
layerId = m004;
shapes = (
{
closed = 1;
nodes = (
(84,-68,l),
(84,-156,o),
(126,-200,o),
(214,-200,cs),
(306,-200,l),
(306,-108,l),
(236,-108,ls),
(200,-108,o),
(184,-92,o),
(184,-56,c),
(184,282,l),
(324,282,l),
(514,0,l),
(632,0,l),
(434,290,l),
(544,298,o),
(612,378,o),
(612,490,cs),
(612,494,ls),
(612,622,o),
(526,700,o),
(378,700,cs),
(84,700,l)
);
},
{
closed = 1;
nodes = (
(184,608,l),
(362,608,ls),
(456,608,o),
(512,572,o),
(512,494,cs),
(512,490,ls),
(512,406,o),
(446,376,o),
(362,376,cs),
(184,376,l)
);
}
);
width = 680;
},
{
anchors = (
{
name = bottom;
pos = (330,-200);
},
{
name = top;
pos = (330,700);
}
);
layerId = m003;
shapes = (
{
closed = 1;
nodes = (
(56,-58,l),
(56,-146,o),
(110,-200,o),
(198,-200,cs),
(326,-200,l),
(326,-46,l),
(274,-46,ls),
(256,-46,o),
(246,-36,o),
(246,-18,c),
(246,256,l),
(290,256,l),
(442,0,l),
(656,0,l),
(482,276,l),
(560,300,o),
(630,364,o),
(630,478,cs),
(630,482,ls),
(630,616,o),
(540,700,o),
(370,700,cs),
(56,700,l)
);
},
{
closed = 1;
nodes = (
(246,556,l),
(338,556,ls),
(402,556,o),
(440,536,o),
(440,478,cs),
(440,474,ls),
(440,414,o),
(402,396,o),
(338,396,cs),
(246,396,l)
);
}
);
width = 680;
}
);
metricLeft = N;
metricRight = R;
unicode = 11364;
},
{
glyphname = Rtail.ss01;
kernLeft = I;
kernRight = R;
lastChange = "2026-04-08 08:26:32 +0000";
layers = (
{
anchors = (
{
name = bottom;
pos = (330,-200);
},
{
name = top;
pos = (330,700);
}
);
layerId = m007;
shapes = (
{
closed = 1;
nodes = (
(100,-76,l),
(100,-158,o),
(142,-200,o),
(224,-200,cs),
(292,-200,l),
(292,-160,l),
(228,-160,ls),
(166,-160,o),
(140,-134,o),
(140,-72,c),
(140,306,l),
(432,306,ls),
(490,306,o),
(512,282,o),
(512,224,cs),
(512,122,ls),
(512,44,o),
(542,16,o),
(566,0,c),
(618,0,l),
(618,10,l),
(584,24,o),
(552,54,o),
(552,122,cs),
(552,230,ls),
(552,292,o),
(528,322,o),
(494,330,c),
(538,348,o),
(602,394,o),
(602,500,cs),
(602,504,ls),
(602,632,o),
(518,700,o),
(384,700,cs),
(100,700,l)
);
},
{
closed = 1;
nodes = (
(140,660,l),
(380,660,ls),
(502,660,o),
(562,602,o),
(562,504,cs),
(562,500,ls),
(562,394,o),
(490,346,o),
(380,346,cs),
(140,346,l)
);
}
);
width = 680;
},
{
anchors = (
{
name = bottom;
pos = (330,-200);
},
{
name = top;
pos = (330,700);
}
);
layerId = m004;
shapes = (
{
closed = 1;
nodes = (
(84,-68,l),
(84,-156,o),
(126,-200,o),
(214,-200,cs),
(306,-200,l),
(306,-108,l),
(236,-108,ls),
(200,-108,o),
(184,-92,o),
(184,-56,c),
(184,282,l),
(392,282,ls),
(450,282,o),
(472,260,o),
(472,202,cs),
(472,114,ls),
(472,44,o),
(488,20,o),
(516,0,c),
(632,0,l),
(632,20,l),
(596,36,o),
(572,56,o),
(572,114,cs),
(572,226,ls),
(572,282,o),
(546,316,o),
(514,326,c),
(558,348,o),
(612,394,o),
(612,490,cs),
(612,494,ls),
(612,622,o),
(526,700,o),
(378,700,cs),
(84,700,l)
);
},
{
closed = 1;
nodes = (
(184,608,l),
(362,608,ls),
(452,608,o),
(512,572,o),
(512,494,cs),
(512,490,ls),
(512,406,o),
(446,376,o),
(362,376,cs),
(184,376,l)
);
}
);
width = 680;
},
{
anchors = (
{
name = bottom;
pos = (330,-200);
},
{
name = top;
pos = (330,700);
}
);
layerId = m003;
shapes = (
{
closed = 1;
nodes = (
(56,-58,l),
(56,-146,o),
(110,-200,o),
(198,-200,cs),
(326,-200,l),
(326,-46,l),
(274,-46,ls),
(256,-46,o),
(246,-36,o),
(246,-18,c),
(246,256,l),
(346,256,ls),
(392,256,o),
(410,238,o),
(410,192,cs),
(410,114,ls),
(410,44,o),
(422,18,o),
(452,0,c),
(656,0,l),
(656,40,l),
(620,50,o),
(598,68,o),
(598,118,cs),
(598,222,ls),
(598,272,o),
(574,304,o),
(534,320,c),
(596,350,o),
(630,406,o),
(630,484,cs),
(630,488,ls),
(630,610,o),
(546,700,o),
(370,700,cs),
(56,700,l)
);
},
{
closed = 1;
nodes = (
(246,556,l),
(338,556,ls),
(404,556,o),
(440,536,o),
(440,478,cs),
(440,474,ls),
(440,412,o),
(400,398,o),
(338,398,cs),
(246,398,l)
);
}
);
width = 680;
}
);
metricLeft = N;
metricRight = R;
},
{
color = 9;
glyphname = S;
kernLeft = S;
kernRight = S;
lastChange = "2026-04-08 18:32:33 +0000";
layers = (
{
anchors = (
{
name = bottom;
pos = (346,0);
},
{
name = top;
pos = (330,700);
}
);
guides = (
{
pos = (-8,480);
},
{
pos = (-8,220);
}
);
layerId = m003;
shapes = (
{
closed = 1;
nodes = (
(516,-12,o),
(624,68,o),
(624,214,cs),
(624,218,ls),
(624,326,o),
(560,402,o),
(426,422,cs),
(308,440,ls),
(258,448,o),
(224,462,o),
(224,502,cs),
(224,506,ls),
(224,538,o),
(254,564,o),
(324,564,cs),
(328,564,ls),
(398,564,o),
(438,538,o),
(438,480,c),
(622,480,l),
(614,634,o),
(494,712,o),
(328,712,cs),
(324,712,ls),
(144,712,o),
(36,612,o),
(36,486,cs),
(36,482,ls),
(36,358,o),
(110,302,o),
(222,284,cs),
(360,262,ls),
(416,254,o),
(436,232,o),
(436,198,cs),
(436,194,ls),
(436,160,o),
(406,136,o),
(336,136,cs),
(332,136,ls),
(268,136,o),
(224,162,o),
(224,220,c),
(36,220,l),
(44,72,o),
(154,-12,o),
(340,-12,cs),
(344,-12,ls)
);
}
);
width = 660;
},
{
anchors = (
{
name = bottom;
pos = (336,0);
},
{
name = top;
pos = (330,700);
}
);
guides = (
{
pos = (-8,500);
},
{
pos = (-8,200);
}
);
layerId = m004;
shapes = (
{
closed = 1;
nodes = (
(492,-12,o),
(602,52,o),
(602,194,cs),
(602,198,ls),
(602,330,o),
(500,372,o),
(380,394,cs),
(288,410,ls),
(209,424,o),
(166,448,o),
(166,514,cs),
(166,518,ls),
(166,576,o),
(224,624,o),
(324,624,cs),
(328,624,ls),
(424,624,o),
(484,566,o),
(492,500,c),
(588,500,l),
(580,620,o),
(482,712,o),
(328,712,cs),
(324,712,ls),
(178,712,o),
(66,634,o),
(66,510,cs),
(66,506,ls),
(66,378,o),
(153,336,o),
(264,316,cs),
(356,300,ls),
(436,284,o),
(502,268,o),
(502,188,cs),
(502,184,ls),
(502,106,o),
(432,76,o),
(336,76,cs),
(332,76,ls),
(226,76,o),
(164,126,o),
(156,200,c),
(58,200,l),
(66,64,o),
(176,-12,o),
(332,-12,cs),
(336,-12,ls)
);
}
);
width = 660;
},
{
anchors = (
{
name = bottom;
pos = (326,0);
},
{
name = top;
pos = (330,700);
}
);
guides = (
{
pos = (-8,520);
},
{
pos = (-8,180);
}
);
layerId = m007;
shapes = (
{
closed = 1;
nodes = (
(482,-12,o),
(584,48,o),
(584,178,cs),
(584,182,ls),
(584,282,o),
(520,342,o),
(384,364,cs),
(298,378,ls),
(172,398,o),
(122,430,o),
(122,518,cs),
(122,522,ls),
(122,614,o),
(220,672,o),
(328,672,cs),
(332,672,ls),
(454,672,o),
(524,612,o),
(534,520,c),
(574,520,l),
(564,634,o),
(474,712,o),
(332,712,cs),
(328,712,ls),
(190,712,o),
(82,632,o),
(82,522,cs),
(82,518,ls),
(82,406,o),
(154,360,o),
(284,340,cs),
(374,326,ls),
(498,306,o),
(544,264,o),
(544,182,cs),
(544,178,ls),
(544,64,o),
(448,28,o),
(338,28,cs),
(334,28,ls),
(210,28,o),
(122,76,o),
(116,180,c),
(76,180,l),
(82,44,o),
(200,-12,o),
(334,-12,cs),
(338,-12,ls)
);
}
);
width = 660;
}
);
unicode = 83;
userData = {
KernOnName = S;
};
},
{
color = 8;
glyphname = Scedilla;
kernLeft = S;
kernRight = S;
lastChange = "2026-04-07 14:26:59 +0000";
layers = (
{
anchors = (
{
name = bottom;
pos = (330,-200);
},
{
name = top;
pos = (330,700);
}
);
layerId = m003;
shapes = (
{
closed = 1;
nodes = (
(436,-200,o),
(484,-152,o),
(484,-82,cs),
(484,-78,ls),
(484,-46,o),
(472,-20,o),
(456,2,c),
(562,30,o),
(624,104,o),
(624,214,cs),
(624,218,ls),
(624,326,o),
(560,402,o),
(426,422,cs),
(308,440,ls),
(258,448,o),
(224,462,o),
(224,502,cs),
(224,506,ls),
(224,538,o),
(254,564,o),
(324,564,cs),
(328,564,ls),
(398,564,o),
(438,538,o),
(438,480,c),
(622,480,l),
(614,634,o),
(494,712,o),
(328,712,cs),
(324,712,ls),
(144,712,o),
(36,612,o),
(36,486,cs),
(36,482,ls),
(36,358,o),
(110,302,o),
(222,284,cs),
(360,262,ls),
(416,254,o),
(436,232,o),
(436,198,cs),
(436,194,ls),
(436,160,o),
(406,136,o),
(336,136,cs),
(332,136,ls),
(268,136,o),
(224,162,o),
(224,220,c),
(36,220,l),
(44,74,o),
(152,-10,o),
(332,-12,c),
(364,-26,o),
(382,-44,o),
(382,-74,cs),
(382,-78,ls),
(382,-106,o),
(370,-118,o),
(346,-118,cs),
(320,-118,o),
(308,-102,o),
(308,-68,c),
(206,-68,l),
(210,-144,o),
(252,-200,o),
(350,-200,cs)
);
}
);
width = 660;
},
{
anchors = (
{
name = bottom;
pos = (330,-200);
},
{
name = top;
pos = (330,700);
}
);
layerId = m004;
shapes = (
{
closed = 1;
nodes = (
(418,-200,o),
(454,-154,o),
(454,-98,cs),
(454,-94,ls),
(454,-62,o),
(442,-30,o),
(420,-4,c),
(530,16,o),
(602,80,o),
(602,194,cs),
(602,198,ls),
(602,330,o),
(500,372,o),
(380,394,cs),
(288,410,ls),
(210,424,o),
(166,448,o),
(166,514,cs),
(166,518,ls),
(166,584,o),
(228,624,o),
(328,624,cs),
(332,624,ls),
(428,624,o),
(488,570,o),
(492,500,c),
(588,500,l),
(584,626,o),
(486,712,o),
(332,712,cs),
(328,712,ls),
(182,712,o),
(66,642,o),
(66,510,cs),
(66,506,ls),
(66,378,o),
(154,336,o),
(264,316,cs),
(356,300,ls),
(436,284,o),
(502,268,o),
(502,188,cs),
(502,184,ls),
(502,106,o),
(432,76,o),
(336,76,cs),
(332,76,ls),
(226,76,o),
(164,126,o),
(156,200,c),
(58,200,l),
(66,66,o),
(172,-10,o),
(324,-12,c),
(360,-36,o),
(372,-66,o),
(372,-90,cs),
(372,-94,ls),
(372,-112,o),
(364,-130,o),
(338,-130,cs),
(310,-130,o),
(302,-110,o),
(300,-86,c),
(216,-86,l),
(224,-142,o),
(254,-200,o),
(338,-200,cs)
);
}
);
width = 660;
},
{
anchors = (
{
name = bottom;
pos = (330,-200);
},
{
name = top;
pos = (330,700);
}
);
layerId = m007;
shapes = (
{
closed = 1;
nodes = (
(394,-200,o),
(426,-160,o),
(426,-110,cs),
(426,-106,ls),
(426,-72,o),
(408,-36,o),
(384,-10,c),
(502,2,o),
(584,62,o),
(584,178,cs),
(584,182,ls),
(584,282,o),
(520,342,o),
(384,364,cs),
(298,378,ls),
(172,398,o),
(122,434,o),
(122,522,cs),
(122,526,ls),
(122,622,o),
(220,672,o),
(328,672,cs),
(332,672,ls),
(454,672,o),
(524,612,o),
(534,520,c),
(574,520,l),
(564,634,o),
(474,712,o),
(332,712,cs),
(328,712,ls),
(190,712,o),
(82,640,o),
(82,526,cs),
(82,522,ls),
(82,410,o),
(154,360,o),
(284,340,cs),
(374,326,ls),
(498,306,o),
(544,264,o),
(544,182,cs),
(544,178,ls),
(544,64,o),
(448,28,o),
(338,28,cs),
(334,28,ls),
(210,28,o),
(122,76,o),
(116,180,c),
(76,180,l),
(82,44,o),
(196,-10,o),
(330,-12,c),
(364,-36,o),
(386,-74,o),
(386,-106,cs),
(386,-110,ls),
(386,-136,o),
(368,-160,o),
(330,-160,cs),
(292,-160,o),
(276,-138,o),
(272,-100,c),
(228,-100,l),
(232,-154,o),
(266,-200,o),
(330,-200,cs)
);
}
);
width = 660;
}
);
unicode = 350;
},
{
color = 8;
glyphname = Germandbls;
kernLeft = I;
kernRight = S;
lastChange = "2026-04-04 07:05:24 +0000";
layers = (
{
anchors = (
{
name = bottom;
pos = (330,0);
},
{
name = top;
pos = (330,700);
}
);
layerId = m003;
shapes = (
{
closed = 1;
nodes = (
(578,0,o),
(656,54,o),
(656,178,cs),
(656,182,ls),
(656,252,o),
(616,294,o),
(564,334,cs),
(510,374,ls),
(490,388,o),
(480,404,o),
(480,420,cs),
(480,424,ls),
(480,444,o),
(490,460,o),
(514,484,cs),
(614,590,l),
(614,700,l),
(56,700,l),
(56,0,l),
(238,0,l),
(238,558,l),
(406,558,l),
(370,520,ls),
(332,480,o),
(302,432,o),
(302,386,cs),
(302,382,ls),
(302,324,o),
(332,288,o),
(368,262,cs),
(426,220,ls),
(448,204,o),
(462,192,o),
(462,174,cs),
(462,170,ls),
(462,150,o),
(444,142,o),
(424,142,cs),
(296,142,l),
(296,0,l),
(446,0,ls)
);
}
);
width = 680;
},
{
anchors = (
{
name = bottom;
pos = (330,0);
},
{
name = top;
pos = (330,700);
}
);
layerId = m004;
shapes = (
{
closed = 1;
nodes = (
(582,0,o),
(640,54,o),
(640,158,cs),
(640,162,ls),
(640,238,o),
(606,286,o),
(528,332,cs),
(478,362,ls),
(444,380,o),
(430,400,o),
(430,428,cs),
(430,432,ls),
(430,462,o),
(452,488,o),
(470,510,cs),
(590,634,l),
(590,700,l),
(84,700,l),
(84,0,l),
(184,0,l),
(184,608,l),
(446,608,l),
(374,532,ls),
(340,498,o),
(324,458,o),
(324,414,cs),
(324,410,ls),
(324,362,o),
(356,316,o),
(410,282,cs),
(470,246,ls),
(518,216,o),
(540,188,o),
(540,158,cs),
(540,154,ls),
(540,108,o),
(508,92,o),
(442,92,cs),
(310,92,l),
(310,0,l),
(448,0,ls)
);
}
);
width = 680;
},
{
anchors = (
{
name = bottom;
pos = (330,0);
},
{
name = top;
pos = (330,700);
}
);
layerId = m007;
shapes = (
{
closed = 1;
nodes = (
(556,0,o),
(630,40,o),
(630,152,cs),
(630,156,ls),
(630,230,o),
(592,276,o),
(520,310,cs),
(474,332,ls),
(412,362,o),
(390,382,o),
(390,418,cs),
(390,422,ls),
(390,462,o),
(420,502,o),
(446,534,cs),
(574,678,l),
(574,700,l),
(100,700,l),
(100,0,l),
(140,0,l),
(140,660,l),
(508,660,l),
(408,550,ls),
(374,510,o),
(350,470,o),
(350,422,cs),
(350,418,ls),
(350,370,o),
(378,332,o),
(452,298,cs),
(500,276,ls),
(566,246,o),
(590,212,o),
(590,156,cs),
(590,152,ls),
(590,70,o),
(532,40,o),
(438,40,cs),
(320,40,l),
(320,0,l),
(440,0,l)
);
}
);
width = 680;
}
);
metricLeft = N;
metricRight = P;
unicode = 7838;
},
{
color = 9;
glyphname = T;
kernLeft = T;
kernRight = T;
lastChange = "2026-04-01 10:01:08 +0000";
layers = (
{
anchors = (
{
name = bottom;
pos = (330,0);
},
{
name = top;
pos = (330,700);
}
);
layerId = m003;
shapes = (
{
closed = 1;
nodes = (
(426,0,l),
(426,540,l),
(640,540,l),
(640,700,l),
(20,700,l),
(20,540,l),
(236,540,l),
(236,0,l)
);
}
);
width = 660;
},
{
anchors = (
{
name = bottom;
pos = (330,0);
},
{
name = top;
pos = (330,700);
}
);
layerId = m004;
shapes = (
{
closed = 1;
nodes = (
(380,0,l),
(380,608,l),
(630,608,l),
(630,700,l),
(30,700,l),
(30,608,l),
(280,608,l),
(280,0,l)
);
}
);
width = 660;
},
{
anchors = (
{
name = bottom;
pos = (330,0);
},
{
name = top;
pos = (330,700);
}
);
layerId = m007;
shapes = (
{
closed = 1;
nodes = (
(350,0,l),
(350,660,l),
(624,660,l),
(624,700,l),
(36,700,l),
(36,660,l),
(310,660,l),
(310,0,l)
);
}
);
width = 660;
}
);
unicode = 84;
userData = {
KernOnName = T;
};
},
{
color = 8;
glyphname = Tbar;
kernLeft = T;
kernRight = T;
lastChange = "2026-04-07 14:26:59 +0000";
layers = (
{
anchors = (
{
name = bottom;
pos = (330,0);
},
{
name = top;
pos = (330,700);
}
);
layerId = m003;
shapes = (
{
closed = 1;
nodes = (
(426,0,l),
(426,310,l),
(490,310,l),
(490,390,l),
(426,390,l),
(426,540,l),
(640,540,l),
(640,700,l),
(20,700,l),
(20,540,l),
(236,540,l),
(236,390,l),
(170,390,l),
(170,310,l),
(236,310,l),
(236,0,l)
);
}
);
width = 660;
},
{
anchors = (
{
name = bottom;
pos = (330,0);
},
{
name = top;
pos = (330,700);
}
);
layerId = m004;
shapes = (
{
closed = 1;
nodes = (
(380,0,l),
(380,314,l),
(490,314,l),
(490,386,l),
(380,386,l),
(380,608,l),
(630,608,l),
(630,700,l),
(30,700,l),
(30,608,l),
(280,608,l),
(280,386,l),
(170,386,l),
(170,314,l),
(280,314,l),
(280,0,l)
);
}
);
width = 660;
},
{
anchors = (
{
name = bottom;
pos = (330,0);
},
{
name = top;
pos = (330,700);
}
);
layerId = m007;
shapes = (
{
closed = 1;
nodes = (
(350,0,l),
(350,330,l),
(490,330,l),
(490,370,l),
(350,370,l),
(350,660,l),
(624,660,l),
(624,700,l),
(36,700,l),
(36,660,l),
(310,660,l),
(310,370,l),
(170,370,l),
(170,330,l),
(310,330,l),
(310,0,l)
);
}
);
width = 660;
}
);
metricLeft = T;
metricRight = T;
unicode = 358;
},
{
color = 8;
glyphname = Tcedilla;
kernLeft = T;
kernRight = T;
lastChange = "2026-04-08 08:30:38 +0000";
layers = (
{
anchors = (
{
name = bottom;
pos = (330,-200);
},
{
name = top;
pos = (330,700);
}
);
layerId = m003;
shapes = (
{
closed = 1;
nodes = (
(318,0,o),
(366,-24,o),
(366,-74,cs),
(366,-78,ls),
(366,-106,o),
(354,-118,o),
(330,-118,cs),
(304,-118,o),
(292,-102,o),
(292,-68,c),
(190,-68,l),
(194,-144,o),
(236,-200,o),
(334,-200,cs),
(420,-200,o),
(468,-152,o),
(468,-82,cs),
(468,-78,ls),
(468,-38,o),
(450,-6,o),
(426,18,c),
(426,540,l),
(640,540,l),
(640,700,l),
(20,700,l),
(20,540,l),
(236,540,l),
(236,0,l)
);
}
);
width = 660;
},
{
anchors = (
{
name = bottom;
pos = (330,-200);
},
{
name = top;
pos = (330,700);
}
);
layerId = m004;
shapes = (
{
closed = 1;
nodes = (
(350,-28,o),
(366,-62,o),
(366,-90,cs),
(366,-94,ls),
(366,-112,o),
(358,-130,o),
(332,-130,cs),
(304,-130,o),
(296,-110,o),
(294,-86,c),
(210,-86,l),
(218,-142,o),
(248,-200,o),
(332,-200,cs),
(412,-200,o),
(448,-154,o),
(448,-98,cs),
(448,-94,ls),
(448,-46,o),
(420,-2,o),
(380,26,c),
(380,608,l),
(630,608,l),
(630,700,l),
(30,700,l),
(30,608,l),
(280,608,l),
(280,0,l)
);
}
);
width = 660;
},
{
anchors = (
{
name = bottom;
pos = (330,-200);
},
{
name = top;
pos = (330,700);
}
);
layerId = m007;
shapes = (
{
closed = 1;
nodes = (
(358,-22,o),
(390,-68,o),
(390,-106,cs),
(390,-110,ls),
(390,-136,o),
(372,-160,o),
(334,-160,cs),
(296,-160,o),
(280,-138,o),
(276,-100,c),
(232,-100,l),
(236,-154,o),
(270,-200,o),
(334,-200,cs),
(398,-200,o),
(430,-160,o),
(430,-110,cs),
(430,-106,ls),
(430,-56,o),
(394,-4,o),
(350,22,c),
(350,660,l),
(624,660,l),
(624,700,l),
(36,700,l),
(36,660,l),
(310,660,l),
(310,0,l)
);
}
);
width = 660;
}
);
unicode = 354;
},
{
glyphname = Tretroflexhook;
kernLeft = T;
kernRight = T;
lastChange = "2026-04-08 08:26:42 +0000";
layers = (
{
anchors = (
{
name = bottom;
pos = (350,-200);
},
{
name = top;
pos = (330,700);
}
);
layerId = m007;
shapes = (
{
closed = 1;
nodes = (
(310,-76,l),
(310,-158,o),
(352,-200,o),
(434,-200,cs),
(502,-200,l),
(502,-160,l),
(438,-160,ls),
(376,-160,o),
(350,-134,o),
(350,-72,c),
(350,660,l),
(624,660,l),
(624,700,l),
(36,700,l),
(36,660,l),
(310,660,l)
);
}
);
width = 660;
},
{
anchors = (
{
name = bottom;
pos = (350,-200);
},
{
name = top;
pos = (330,700);
}
);
layerId = m004;
shapes = (
{
closed = 1;
nodes = (
(280,-68,l),
(280,-156,o),
(322,-200,o),
(410,-200,cs),
(502,-200,l),
(502,-108,l),
(432,-108,ls),
(396,-108,o),
(380,-92,o),
(380,-56,c),
(380,608,l),
(630,608,l),
(630,700,l),
(30,700,l),
(30,608,l),
(280,608,l)
);
}
);
width = 660;
},
{
anchors = (
{
name = bottom;
pos = (350,-200);
},
{
name = top;
pos = (330,700);
}
);
layerId = m003;
shapes = (
{
closed = 1;
nodes = (
(236,-58,l),
(236,-146,o),
(290,-200,o),
(378,-200,cs),
(506,-200,l),
(506,-46,l),
(454,-46,ls),
(436,-46,o),
(426,-36,o),
(426,-18,c),
(426,540,l),
(640,540,l),
(640,700,l),
(20,700,l),
(20,540,l),
(236,540,l)
);
}
);
width = 660;
}
);
metricLeft = T;
metricRight = T;
unicode = 430;
},
{
color = 9;
glyphname = U;
kernLeft = U;
kernRight = U;
lastChange = "2026-04-07 10:21:02 +0000";
layers = (
{
anchors = (
{
name = bottom;
pos = (360,0);
},
{
name = ogonek;
pos = (398,0);
},
{
name = top;
pos = (360,700);
}
);
layerId = m003;
shapes = (
{
closed = 1;
nodes = (
(362,-12,ls),
(552,-12,o),
(668,88,o),
(668,284,cs),
(668,700,l),
(478,700,l),
(478,298,ls),
(478,210,o),
(454,148,o),
(362,148,cs),
(358,148,ls),
(266,148,o),
(242,210,o),
(242,298,cs),
(242,700,l),
(52,700,l),
(52,284,ls),
(52,88,o),
(168,-12,o),
(358,-12,cs)
);
}
);
width = 720;
},
{
anchors = (
{
name = bottom;
pos = (360,0);
},
{
name = ogonek;
pos = (408,0);
},
{
name = top;
pos = (360,700);
}
);
layerId = m004;
shapes = (
{
closed = 1;
nodes = (
(362,-12,ls),
(534,-12,o),
(642,78,o),
(642,268,cs),
(642,700,l),
(542,700,l),
(542,270,ls),
(542,138,o),
(478,80,o),
(362,80,cs),
(358,80,ls),
(242,80,o),
(178,138,o),
(178,270,cs),
(178,700,l),
(78,700,l),
(78,268,ls),
(78,78,o),
(186,-12,o),
(358,-12,cs)
);
}
);
width = 720;
},
{
anchors = (
{
name = bottom;
pos = (360,0);
},
{
name = ogonek;
pos = (410,0);
},
{
name = top;
pos = (360,700);
}
);
layerId = m007;
shapes = (
{
closed = 1;
nodes = (
(362,-12,ls),
(552,-12,o),
(630,102,o),
(630,254,cs),
(630,700,l),
(590,700,l),
(590,258,ls),
(590,122,o),
(526,28,o),
(362,28,cs),
(358,28,ls),
(194,28,o),
(130,122,o),
(130,258,cs),
(130,700,l),
(90,700,l),
(90,254,ls),
(90,102,o),
(168,-12,o),
(358,-12,cs)
);
}
);
width = 720;
}
);
unicode = 85;
},
{
glyphname = Ubar;
kernLeft = I;
kernRight = I;
lastChange = "2026-04-07 14:26:59 +0000";
layers = (
{
anchors = (
{
name = bottom;
pos = (360,0);
},
{
name = ogonek;
pos = (410,0);
},
{
name = top;
pos = (360,700);
}
);
layerId = m007;
shapes = (
{
closed = 1;
nodes = (
(362,-12,ls),
(552,-12,o),
(630,102,o),
(630,254,cs),
(630,330,l),
(720,330,l),
(720,370,l),
(630,370,l),
(630,700,l),
(590,700,l),
(590,370,l),
(130,370,l),
(130,700,l),
(90,700,l),
(90,370,l),
(0,370,l),
(0,330,l),
(90,330,l),
(90,254,ls),
(90,102,o),
(168,-12,o),
(358,-12,cs)
);
},
{
closed = 1;
nodes = (
(130,330,l),
(590,330,l),
(590,258,ls),
(590,122,o),
(526,28,o),
(362,28,cs),
(358,28,ls),
(194,28,o),
(130,122,o),
(130,258,cs)
);
}
);
width = 720;
},
{
anchors = (
{
name = bottom;
pos = (360,0);
},
{
name = ogonek;
pos = (408,0);
},
{
name = top;
pos = (360,700);
}
);
layerId = m004;
shapes = (
{
closed = 1;
nodes = (
(362,-12,ls),
(534,-12,o),
(642,78,o),
(642,268,cs),
(642,314,l),
(720,314,l),
(720,386,l),
(642,386,l),
(642,700,l),
(542,700,l),
(542,386,l),
(178,386,l),
(178,700,l),
(78,700,l),
(78,386,l),
(0,386,l),
(0,314,l),
(78,314,l),
(78,268,ls),
(78,78,o),
(186,-12,o),
(358,-12,cs)
);
},
{
closed = 1;
nodes = (
(178,314,l),
(542,314,l),
(542,270,ls),
(542,138,o),
(478,80,o),
(362,80,cs),
(358,80,ls),
(242,80,o),
(178,138,o),
(178,270,cs)
);
}
);
width = 720;
},
{
anchors = (
{
name = bottom;
pos = (360,0);
},
{
name = ogonek;
pos = (398,0);
},
{
name = top;
pos = (360,700);
}
);
layerId = m003;
shapes = (
{
closed = 1;
nodes = (
(362,-12,ls),
(552,-12,o),
(668,88,o),
(668,284,cs),
(668,310,l),
(720,310,l),
(720,390,l),
(668,390,l),
(668,700,l),
(478,700,l),
(478,390,l),
(242,390,l),
(242,700,l),
(52,700,l),
(52,390,l),
(0,390,l),
(0,310,l),
(52,310,l),
(52,284,ls),
(52,88,o),
(168,-12,o),
(358,-12,cs)
);
},
{
closed = 1;
nodes = (
(242,310,l),
(478,310,l),
(478,298,ls),
(478,210,o),
(454,148,o),
(362,148,cs),
(358,148,ls),
(266,148,o),
(242,210,o),
(242,298,cs)
);
}
);
width = 720;
}
);
unicode = 580;
},
{
color = 8;
glyphname = Uhorn;
kernLeft = U;
kernRight = "U-horn";
lastChange = "2026-04-07 14:26:59 +0000";
layers = (
{
anchors = (
{
name = bottom;
pos = (360,0);
},
{
name = ogonek;
pos = (398,0);
},
{
name = top;
pos = (360,700);
}
);
layerId = m003;
shapes = (
{
closed = 1;
nodes = (
(362,-12,ls),
(552,-12,o),
(668,88,o),
(668,284,cs),
(668,468,l),
(700,468,ls),
(800,468,o),
(860,528,o),
(860,628,cs),
(860,700,l),
(720,700,l),
(720,634,ls),
(720,610,o),
(704,594,o),
(680,594,cs),
(668,594,l),
(668,700,l),
(478,700,l),
(478,298,ls),
(478,210,o),
(454,148,o),
(362,148,cs),
(358,148,ls),
(266,148,o),
(242,210,o),
(242,298,cs),
(242,700,l),
(52,700,l),
(52,284,ls),
(52,88,o),
(168,-12,o),
(358,-12,cs)
);
}
);
width = 880;
},
{
anchors = (
{
name = bottom;
pos = (360,0);
},
{
name = ogonek;
pos = (408,0);
},
{
name = top;
pos = (360,700);
}
);
layerId = m004;
shapes = (
{
closed = 1;
nodes = (
(362,-12,ls),
(534,-12,o),
(642,78,o),
(642,268,cs),
(642,486,l),
(690,486,ls),
(790,486,o),
(850,546,o),
(850,646,cs),
(850,700,l),
(760,700,l),
(760,642,ls),
(760,590,o),
(732,562,o),
(680,562,cs),
(642,562,l),
(642,700,l),
(542,700,l),
(542,270,ls),
(542,138,o),
(478,80,o),
(362,80,cs),
(358,80,ls),
(242,80,o),
(178,138,o),
(178,270,cs),
(178,700,l),
(78,700,l),
(78,268,ls),
(78,78,o),
(186,-12,o),
(358,-12,cs)
);
}
);
width = 880;
},
{
anchors = (
{
name = bottom;
pos = (360,0);
},
{
name = ogonek;
pos = (410,0);
},
{
name = top;
pos = (360,700);
}
);
layerId = m007;
shapes = (
{
closed = 1;
nodes = (
(362,-12,ls),
(552,-12,o),
(630,102,o),
(630,254,cs),
(630,514,l),
(704,514,ls),
(792,514,o),
(844,566,o),
(844,654,cs),
(844,700,l),
(804,700,l),
(804,654,ls),
(804,590,o),
(768,554,o),
(704,554,cs),
(630,554,l),
(630,700,l),
(590,700,l),
(590,258,ls),
(590,122,o),
(526,28,o),
(362,28,cs),
(358,28,ls),
(194,28,o),
(130,122,o),
(130,258,cs),
(130,700,l),
(90,700,l),
(90,254,ls),
(90,102,o),
(168,-12,o),
(358,-12,cs)
);
}
);
width = 880;
}
);
metricLeft = U;
metricRight = T;
unicode = 431;
},
{
color = 8;
glyphname = Uogonek;
kernLeft = U;
kernRight = U;
lastChange = "2026-04-07 14:26:59 +0000";
layers = (
{
anchors = (
{
name = bottom;
pos = (360,-200);
},
{
name = ogonek;
pos = (398,-200);
},
{
name = top;
pos = (360,700);
}
);
layerId = m003;
shapes = (
{
closed = 1;
nodes = (
(492,-200,o),
(534,-144,o),
(538,-68,c),
(436,-68,l),
(436,-102,o),
(424,-118,o),
(398,-118,cs),
(374,-118,o),
(362,-106,o),
(362,-78,cs),
(362,-74,ls),
(362,-42,o),
(382,-24,o),
(420,-8,c),
(574,10,o),
(668,108,o),
(668,284,cs),
(668,700,l),
(478,700,l),
(478,298,ls),
(478,210,o),
(454,148,o),
(362,148,cs),
(358,148,ls),
(266,148,o),
(242,210,o),
(242,298,cs),
(242,700,l),
(52,700,l),
(52,284,ls),
(52,116,o),
(138,18,o),
(282,-6,c),
(268,-26,o),
(260,-50,o),
(260,-78,cs),
(260,-82,ls),
(260,-152,o),
(308,-200,o),
(394,-200,cs)
);
}
);
width = 720;
},
{
anchors = (
{
name = bottom;
pos = (360,-200);
},
{
name = ogonek;
pos = (408,-200);
},
{
name = top;
pos = (360,700);
}
);
layerId = m004;
shapes = (
{
closed = 1;
nodes = (
(490,-200,o),
(520,-142,o),
(528,-86,c),
(444,-86,l),
(442,-110,o),
(434,-130,o),
(406,-130,cs),
(380,-130,o),
(372,-112,o),
(372,-94,cs),
(372,-90,ls),
(372,-64,o),
(386,-34,o),
(428,-8,c),
(562,14,o),
(642,104,o),
(642,268,cs),
(642,700,l),
(542,700,l),
(542,270,ls),
(542,138,o),
(478,80,o),
(362,80,cs),
(358,80,ls),
(242,80,o),
(178,138,o),
(178,270,cs),
(178,700,l),
(78,700,l),
(78,268,ls),
(78,92,o),
(172,2,o),
(320,-10,c),
(300,-36,o),
(290,-64,o),
(290,-94,cs),
(290,-98,ls),
(290,-154,o),
(326,-200,o),
(406,-200,cs)
);
}
);
width = 720;
},
{
anchors = (
{
name = bottom;
pos = (360,-200);
},
{
name = ogonek;
pos = (410,-200);
},
{
name = top;
pos = (360,700);
}
);
layerId = m007;
shapes = (
{
closed = 1;
nodes = (
(470,-200,o),
(504,-154,o),
(508,-100,c),
(464,-100,l),
(460,-138,o),
(444,-160,o),
(406,-160,cs),
(368,-160,o),
(350,-136,o),
(350,-110,cs),
(350,-106,ls),
(350,-72,o),
(374,-34,o),
(410,-10,c),
(566,8,o),
(630,116,o),
(630,254,cs),
(630,700,l),
(590,700,l),
(590,258,ls),
(590,122,o),
(526,28,o),
(362,28,cs),
(358,28,ls),
(194,28,o),
(130,122,o),
(130,258,cs),
(130,700,l),
(90,700,l),
(90,254,ls),
(90,104,o),
(164,-8,o),
(350,-12,c),
(326,-38,o),
(310,-72,o),
(310,-106,cs),
(310,-110,ls),
(310,-160,o),
(342,-200,o),
(406,-200,cs)
);
}
);
width = 720;
}
);
unicode = 370;
},
{
color = 9;
glyphname = V;
kernLeft = V;
kernRight = V;
lastChange = "2026-04-04 15:43:18 +0000";
layers = (
{
anchors = (
{
name = bottom;
pos = (350,0);
},
{
name = top;
pos = (350,700);
}
);
layerId = m003;
shapes = (
{
closed = 1;
nodes = (
(450,0,l),
(684,700,l),
(502,700,l),
(352,188,l),
(202,700,l),
(16,700,l),
(254,0,l)
);
}
);
width = 700;
},
{
anchors = (
{
name = bottom;
pos = (350,0);
},
{
name = top;
pos = (350,700);
}
);
layerId = m004;
shapes = (
{
closed = 1;
nodes = (
(410,0,l),
(670,700,l),
(566,700,l),
(352,102,l),
(140,700,l),
(30,700,l),
(292,0,l)
);
}
);
width = 700;
},
{
anchors = (
{
name = bottom;
pos = (350,0);
},
{
name = top;
pos = (350,700);
}
);
layerId = m007;
shapes = (
{
closed = 1;
nodes = (
(378,0,l),
(664,700,l),
(618,700,l),
(352,46,l),
(82,700,l),
(36,700,l),
(326,0,l)
);
}
);
width = 700;
}
);
metricLeft = X;
metricRight = X;
unicode = 86;
userData = {
KernOnName = V;
};
},
{
glyphname = "Gamma-latin";
kernLeft = Y;
kernRight = Y;
lastChange = "2026-04-01 07:19:43 +0000";
layers = (
{
anchors = (
{
name = bottom;
pos = (340,0);
},
{
name = top;
pos = (340,700);
}
);
layerId = m007;
shapes = (
{
closed = 1;
nodes = (
(446,160,o),
(424,198,o),
(364,280,c),
(644,700,l),
(596,700,l),
(340,312,l),
(84,700,l),
(36,700,l),
(316,280,l),
(256,198,o),
(234,160,o),
(234,104,cs),
(234,36,o),
(272,-12,o),
(340,-12,cs),
(408,-12,o),
(446,36,o),
(446,104,cs)
);
},
{
closed = 1;
nodes = (
(274,140,o),
(290,178,o),
(340,248,c),
(390,178,o),
(406,140,o),
(406,104,cs),
(406,56,o),
(380,28,o),
(340,28,cs),
(300,28,o),
(274,56,o),
(274,104,cs)
);
}
);
width = 680;
},
{
anchors = (
{
name = bottom;
pos = (340,0);
},
{
name = top;
pos = (340,700);
}
);
layerId = m004;
shapes = (
{
closed = 1;
nodes = (
(476,174,o),
(450,224,o),
(398,296,c),
(650,700,l),
(538,700,l),
(340,372,l),
(146,700,l),
(30,700,l),
(282,296,l),
(230,224,o),
(204,174,o),
(204,120,cs),
(204,46,o),
(250,-12,o),
(340,-12,cs),
(430,-12,o),
(476,46,o),
(476,120,cs)
);
},
{
closed = 1;
nodes = (
(302,148,o),
(312,178,o),
(340,218,c),
(370,178,o),
(378,148,o),
(378,122,cs),
(378,96,o),
(364,76,o),
(340,76,cs),
(316,76,o),
(302,96,o),
(302,122,cs)
);
}
);
width = 680;
},
{
anchors = (
{
name = bottom;
pos = (340,0);
},
{
name = top;
pos = (340,700);
}
);
layerId = m003;
shapes = (
{
closed = 1;
nodes = (
(540,224,o),
(514,290,o),
(454,368,c),
(664,700,l),
(472,700,l),
(350,486,l),
(228,700,l),
(16,700,l),
(234,354,l),
(190,294,o),
(156,232,o),
(156,158,cs),
(156,52,o),
(236,-12,o),
(348,-12,cs),
(460,-12,o),
(540,52,o),
(540,168,cs)
);
},
{
closed = 1;
nodes = (
(302,200,o),
(322,234,o),
(340,256,c),
(360,234,o),
(378,200,o),
(378,170,cs),
(378,142,o),
(364,126,o),
(340,126,cs),
(316,126,o),
(302,142,o),
(302,170,cs)
);
}
);
width = 680;
}
);
metricLeft = X;
metricRight = X;
unicode = 404;
},
{
glyphname = Vhook;
kernLeft = U;
kernRight = U;
lastChange = "2026-04-08 08:27:09 +0000";
layers = (
{
anchors = (
{
name = bottom;
pos = (360,0);
},
{
name = ogonek;
pos = (400,0);
},
{
name = top;
pos = (360,700);
}
);
layerId = m007;
shapes = (
{
closed = 1;
nodes = (
(362,-12,ls),
(552,-12,o),
(630,102,o),
(630,254,c),
(630,576,l),
(630,658,o),
(588,700,o),
(506,700,cs),
(438,700,l),
(438,660,l),
(502,660,ls),
(564,660,o),
(590,634,o),
(590,572,c),
(590,258,l),
(590,122,o),
(526,28,o),
(362,28,cs),
(358,28,ls),
(194,28,o),
(130,122,o),
(130,258,cs),
(130,700,l),
(90,700,l),
(90,254,ls),
(90,102,o),
(168,-12,o),
(358,-12,cs)
);
}
);
width = 720;
},
{
anchors = (
{
name = bottom;
pos = (360,0);
},
{
name = ogonek;
pos = (368,0);
},
{
name = top;
pos = (360,700);
}
);
layerId = m004;
shapes = (
{
closed = 1;
nodes = (
(362,-12,ls),
(534,-12,o),
(642,78,o),
(642,268,c),
(642,568,l),
(642,656,o),
(600,700,o),
(512,700,cs),
(420,700,l),
(420,608,l),
(490,608,ls),
(526,608,o),
(542,592,o),
(542,556,c),
(542,270,l),
(542,138,o),
(478,80,o),
(362,80,cs),
(358,80,ls),
(242,80,o),
(178,138,o),
(178,270,cs),
(178,700,l),
(78,700,l),
(78,268,ls),
(78,78,o),
(186,-12,o),
(358,-12,cs)
);
}
);
width = 720;
},
{
anchors = (
{
name = bottom;
pos = (360,0);
},
{
name = ogonek;
pos = (327,0);
},
{
name = top;
pos = (360,700);
}
);
layerId = m003;
shapes = (
{
closed = 1;
nodes = (
(362,-12,ls),
(552,-12,o),
(672,88,o),
(672,284,c),
(672,558,l),
(672,646,o),
(618,700,o),
(530,700,cs),
(402,700,l),
(402,546,l),
(454,546,ls),
(472,546,o),
(482,536,o),
(482,518,c),
(482,298,l),
(482,210,o),
(454,148,o),
(362,148,cs),
(358,148,ls),
(266,148,o),
(238,210,o),
(238,298,cs),
(238,700,l),
(48,700,l),
(48,284,ls),
(48,88,o),
(168,-12,o),
(358,-12,cs)
);
}
);
width = 720;
}
);
unicode = 434;
},
{
color = 9;
glyphname = W;
kernLeft = W;
kernRight = W;
lastChange = "2026-04-04 15:43:39 +0000";
layers = (
{
anchors = (
{
name = bottom;
pos = (500,0);
},
{
name = top;
pos = (500,700);
}
);
layerId = m003;
shapes = (
{
closed = 1;
nodes = (
(384,0,l),
(500,422,l),
(616,0,l),
(796,0,l),
(984,700,l),
(800,700,l),
(698,230,l),
(574,700,l),
(426,700,l),
(308,230,l),
(208,700,l),
(16,700,l),
(204,0,l)
);
}
);
width = 1000;
},
{
anchors = (
{
name = bottom;
pos = (500,0);
},
{
name = top;
pos = (500,700);
}
);
layerId = m004;
shapes = (
{
closed = 1;
nodes = (
(346,0,l),
(500,538,l),
(652,0,l),
(770,0,l),
(970,700,l),
(872,700,l),
(714,102,l),
(556,700,l),
(452,700,l),
(296,102,l),
(136,700,l),
(30,700,l),
(230,0,l)
);
}
);
width = 1000;
},
{
anchors = (
{
name = bottom;
pos = (500,0);
},
{
name = top;
pos = (500,700);
}
);
layerId = m007;
shapes = (
{
closed = 1;
nodes = (
(304,0,l),
(500,640,l),
(696,0,l),
(748,0,l),
(964,700,l),
(918,700,l),
(722,60,l),
(526,700,l),
(474,700,l),
(278,60,l),
(82,700,l),
(36,700,l),
(252,0,l)
);
}
);
width = 1000;
}
);
metricLeft = X;
metricRight = X;
unicode = 87;
},
{
color = 9;
glyphname = X;
kernLeft = X;
kernRight = X;
lastChange = "2026-04-01 07:19:01 +0000";
layers = (
{
anchors = (
{
name = bottom;
pos = (360,0);
},
{
name = top;
pos = (360,700);
}
);
layerId = m003;
shapes = (
{
closed = 1;
nodes = (
(224,0,l),
(350,212,l),
(484,0,l),
(704,0,l),
(482,354,l),
(696,700,l),
(488,700,l),
(362,488,l),
(240,700,l),
(20,700,l),
(238,342,l),
(16,0,l)
);
}
);
width = 720;
},
{
anchors = (
{
name = bottom;
pos = (360,0);
},
{
name = top;
pos = (360,700);
}
);
layerId = m004;
shapes = (
{
closed = 1;
nodes = (
(144,0,l),
(358,282,l),
(570,0,l),
(690,0,l),
(428,352,l),
(680,700,l),
(566,700,l),
(360,418,l),
(158,700,l),
(38,700,l),
(292,346,l),
(30,0,l)
);
}
);
width = 720;
},
{
anchors = (
{
name = bottom;
pos = (360,0);
},
{
name = top;
pos = (360,700);
}
);
layerId = m007;
shapes = (
{
closed = 1;
nodes = (
(86,0,l),
(360,320,l),
(634,0,l),
(684,0,l),
(388,350,l),
(670,700,l),
(620,700,l),
(360,380,l),
(100,700,l),
(50,700,l),
(332,350,l),
(36,0,l)
);
}
);
width = 720;
}
);
unicode = 88;
userData = {
KernOnName = X;
};
},
{
color = 9;
glyphname = Y;
kernLeft = Y;
kernRight = Y;
lastChange = "2026-04-07 11:05:28 +0000";
layers = (
{
anchors = (
{
name = bottom;
pos = (340,0);
},
{
name = top;
pos = (340,700);
}
);
layerId = m003;
shapes = (
{
closed = 1;
nodes = (
(436,0,l),
(436,256,l),
(664,700,l),
(468,700,l),
(350,440,l),
(234,700,l),
(16,700,l),
(244,256,l),
(244,0,l)
);
}
);
width = 680;
},
{
anchors = (
{
name = bottom;
pos = (340,0);
},
{
name = top;
pos = (340,700);
}
);
layerId = m004;
shapes = (
{
closed = 1;
nodes = (
(390,0,l),
(390,280,l),
(650,700,l),
(538,700,l),
(344,376,l),
(146,700,l),
(30,700,l),
(290,280,l),
(290,0,l)
);
}
);
width = 680;
},
{
anchors = (
{
name = bottom;
pos = (340,0);
},
{
name = top;
pos = (340,700);
}
);
layerId = m007;
shapes = (
{
closed = 1;
nodes = (
(360,0,l),
(360,242,l),
(644,700,l),
(596,700,l),
(340,282,l),
(84,700,l),
(36,700,l),
(320,242,l),
(320,0,l)
);
}
);
width = 680;
}
);
metricLeft = X;
metricRight = X;
unicode = 89;
},
{
glyphname = Yhook;
kernLeft = Y;
kernRight = Y;
lastChange = "2026-04-08 08:41:26 +0000";
layers = (
{
anchors = (
{
name = bottom;
pos = (340,0);
},
{
name = top;
pos = (680,900);
}
);
layerId = m007;
shapes = (
{
closed = 1;
nodes = (
(360,0,l),
(360,242,l),
(720,814,l),
(740,846,o),
(758,860,o),
(794,860,cs),
(800,860,l),
(800,900,l),
(784,900,ls),
(744,900,o),
(716,880,o),
(690,842,c),
(340,282,l),
(84,700,l),
(36,700,l),
(320,242,l),
(320,0,l)
);
}
);
width = 680;
},
{
anchors = (
{
name = bottom;
pos = (340,0);
},
{
name = top;
pos = (660,900);
}
);
layerId = m004;
shapes = (
{
closed = 1;
nodes = (
(390,0,l),
(390,280,l),
(696,774,l),
(710,796,o),
(724,812,o),
(758,812,cs),
(800,812,l),
(800,900,l),
(750,900,ls),
(670,900,o),
(640,866,o),
(606,812,c),
(344,376,l),
(146,700,l),
(30,700,l),
(290,280,l),
(290,0,l)
);
}
);
width = 680;
},
{
anchors = (
{
name = bottom;
pos = (340,0);
},
{
name = top;
pos = (640,900);
}
);
layerId = m003;
shapes = (
{
closed = 1;
nodes = (
(436,0,l),
(436,256,l),
(674,718,l),
(692,750,o),
(708,758,o),
(732,758,cs),
(796,758,l),
(796,900,l),
(694,900,ls),
(590,900,o),
(548,864,o),
(512,790,c),
(350,440,l),
(234,700,l),
(16,700,l),
(244,256,l),
(244,0,l)
);
}
);
width = 680;
}
);
metricLeft = Y;
unicode = 435;
},
{
glyphname = Yr;
kernLeft = I;
kernRight = R;
lastChange = "2026-04-08 08:34:16 +0000";
layers = (
{
anchors = (
{
name = bottom;
pos = (340,0);
},
{
name = top;
pos = (120,800);
}
);
layerId = m007;
shapes = (
{
closed = 1;
nodes = (
(140,0,l),
(140,306,l),
(350,306,l),
(568,0,l),
(618,0,l),
(398,306,l),
(526,308,o),
(602,386,o),
(602,500,cs),
(602,504,ls),
(602,626,o),
(522,700,o),
(384,700,cs),
(140,700,l),
(140,800,l),
(100,800,l),
(100,0,l)
);
},
{
closed = 1;
nodes = (
(140,660,l),
(380,660,ls),
(502,660,o),
(562,602,o),
(562,504,cs),
(562,500,ls),
(562,392,o),
(488,346,o),
(380,346,cs),
(140,346,l)
);
}
);
width = 680;
},
{
anchors = (
{
name = bottom;
pos = (340,0);
},
{
name = top;
pos = (134,800);
}
);
layerId = m004;
shapes = (
{
closed = 1;
nodes = (
(184,0,l),
(184,282,l),
(324,282,l),
(514,0,l),
(632,0,l),
(434,290,l),
(544,298,o),
(612,378,o),
(612,490,cs),
(612,494,ls),
(612,622,o),
(526,700,o),
(378,700,cs),
(184,700,l),
(184,800,l),
(84,800,l),
(84,0,l)
);
},
{
closed = 1;
nodes = (
(184,608,l),
(362,608,ls),
(456,608,o),
(512,572,o),
(512,494,cs),
(512,490,ls),
(512,406,o),
(446,376,o),
(362,376,cs),
(184,376,l)
);
}
);
width = 680;
},
{
anchors = (
{
name = bottom;
pos = (340,0);
},
{
name = top;
pos = (150,800);
}
);
layerId = m003;
shapes = (
{
closed = 1;
nodes = (
(246,0,l),
(246,256,l),
(290,256,l),
(442,0,l),
(656,0,l),
(482,276,l),
(560,300,o),
(630,364,o),
(630,478,cs),
(630,482,ls),
(630,616,o),
(540,700,o),
(370,700,cs),
(246,700,l),
(246,800,l),
(56,800,l),
(56,0,l)
);
},
{
closed = 1;
nodes = (
(246,556,l),
(338,556,ls),
(402,556,o),
(440,536,o),
(440,478,cs),
(440,474,ls),
(440,414,o),
(402,396,o),
(338,396,cs),
(246,396,l)
);
}
);
width = 680;
}
);
metricLeft = R;
metricRight = R;
unicode = 422;
},
{
glyphname = Yr.ss01;
kernLeft = I;
kernRight = R;
lastChange = "2026-04-08 08:34:11 +0000";
layers = (
{
anchors = (
{
name = bottom;
pos = (340,0);
},
{
name = top;
pos = (120,800);
}
);
layerId = m007;
shapes = (
{
closed = 1;
nodes = (
(140,0,l),
(140,306,l),
(432,306,ls),
(490,306,o),
(512,282,o),
(512,224,cs),
(512,122,ls),
(512,44,o),
(542,16,o),
(566,0,c),
(618,0,l),
(618,10,l),
(584,24,o),
(552,54,o),
(552,122,cs),
(552,230,ls),
(552,292,o),
(528,322,o),
(494,330,c),
(538,348,o),
(602,394,o),
(602,500,cs),
(602,504,ls),
(602,632,o),
(518,700,o),
(384,700,cs),
(140,700,l),
(140,800,l),
(100,800,l),
(100,0,l)
);
},
{
closed = 1;
nodes = (
(140,660,l),
(380,660,ls),
(502,660,o),
(562,602,o),
(562,504,cs),
(562,500,ls),
(562,394,o),
(490,346,o),
(380,346,cs),
(140,346,l)
);
}
);
width = 680;
},
{
anchors = (
{
name = bottom;
pos = (340,0);
},
{
name = top;
pos = (134,800);
}
);
layerId = m004;
shapes = (
{
closed = 1;
nodes = (
(184,0,l),
(184,282,l),
(392,282,ls),
(450,282,o),
(472,260,o),
(472,202,cs),
(472,114,ls),
(472,44,o),
(488,20,o),
(516,0,c),
(632,0,l),
(632,20,l),
(596,36,o),
(572,56,o),
(572,114,cs),
(572,226,ls),
(572,282,o),
(546,316,o),
(514,326,c),
(558,348,o),
(612,394,o),
(612,490,cs),
(612,494,ls),
(612,622,o),
(526,700,o),
(378,700,cs),
(184,700,l),
(184,800,l),
(84,800,l),
(84,0,l)
);
},
{
closed = 1;
nodes = (
(184,608,l),
(362,608,ls),
(452,608,o),
(512,572,o),
(512,494,cs),
(512,490,ls),
(512,406,o),
(446,376,o),
(362,376,cs),
(184,376,l)
);
}
);
width = 680;
},
{
anchors = (
{
name = bottom;
pos = (340,0);
},
{
name = top;
pos = (150,800);
}
);
layerId = m003;
shapes = (
{
closed = 1;
nodes = (
(246,0,l),
(246,256,l),
(346,256,ls),
(392,256,o),
(410,238,o),
(410,192,cs),
(410,114,ls),
(410,44,o),
(422,18,o),
(452,0,c),
(656,0,l),
(656,40,l),
(620,50,o),
(598,68,o),
(598,118,cs),
(598,222,ls),
(598,272,o),
(574,304,o),
(534,320,c),
(596,350,o),
(630,406,o),
(630,484,cs),
(630,488,ls),
(630,610,o),
(546,700,o),
(370,700,cs),
(246,700,l),
(246,800,l),
(56,800,l),
(56,0,l)
);
},
{
closed = 1;
nodes = (
(246,556,l),
(338,556,ls),
(404,556,o),
(440,536,o),
(440,478,cs),
(440,474,ls),
(440,412,o),
(400,398,o),
(338,398,cs),
(246,398,l)
);
}
);
width = 680;
}
);
metricLeft = R;
metricRight = R;
},
{
color = 9;
glyphname = Z;
kernLeft = Sigma;
kernRight = Sigma;
lastChange = "2026-04-01 09:08:53 +0000";
layers = (
{
anchors = (
{
name = bottom;
pos = (320,0);
},
{
name = top;
pos = (320,700);
}
);
layerId = m003;
shapes = (
{
closed = 1;
nodes = (
(612,0,l),
(612,160,l),
(274,160,l),
(612,576,l),
(612,700,l),
(28,700,l),
(28,542,l),
(366,542,l),
(28,126,l),
(28,0,l)
);
}
);
width = 640;
},
{
anchors = (
{
name = bottom;
pos = (320,0);
},
{
name = top;
pos = (320,700);
}
);
layerId = m004;
shapes = (
{
closed = 1;
nodes = (
(600,0,l),
(600,92,l),
(166,92,l),
(596,620,l),
(596,700,l),
(44,700,l),
(44,608,l),
(470,608,l),
(40,80,l),
(40,0,l)
);
}
);
width = 640;
},
{
anchors = (
{
name = bottom;
pos = (320,0);
},
{
name = top;
pos = (320,700);
}
);
layerId = m007;
shapes = (
{
closed = 1;
nodes = (
(584,0,l),
(584,40,l),
(108,40,l),
(574,664,l),
(574,700,l),
(64,700,l),
(64,660,l),
(522,660,l),
(56,34,l),
(56,0,l)
);
}
);
width = 640;
}
);
metricLeft = Sigma;
metricRight = Sigma;
unicode = 90;
},
{
color = 8;
glyphname = Zstroke;
kernLeft = Sigma;
kernRight = Sigma;
lastChange = "2026-04-07 14:26:59 +0000";
layers = (
{
anchors = (
{
name = bottom;
pos = (320,0);
},
{
name = top;
pos = (320,700);
}
);
layerId = m007;
shapes = (
{
closed = 1;
nodes = (
(584,0,l),
(584,40,l),
(108,40,l),
(324,330,l),
(584,330,l),
(584,370,l),
(354,370,l),
(574,664,l),
(574,700,l),
(64,700,l),
(64,660,l),
(522,660,l),
(306,370,l),
(58,370,l),
(58,330,l),
(276,330,l),
(56,34,l),
(56,0,l)
);
}
);
width = 640;
},
{
anchors = (
{
name = bottom;
pos = (320,0);
},
{
name = top;
pos = (320,700);
}
);
layerId = m004;
shapes = (
{
closed = 1;
nodes = (
(600,0,l),
(600,92,l),
(166,92,l),
(346,314,l),
(592,314,l),
(592,386,l),
(406,386,l),
(596,620,l),
(596,700,l),
(44,700,l),
(44,608,l),
(470,608,l),
(290,386,l),
(50,386,l),
(50,314,l),
(230,314,l),
(40,80,l),
(40,0,l)
);
}
);
width = 640;
},
{
anchors = (
{
name = bottom;
pos = (320,0);
},
{
name = top;
pos = (320,700);
}
);
layerId = m003;
shapes = (
{
closed = 1;
nodes = (
(612,0,l),
(612,160,l),
(274,160,l),
(396,310,l),
(614,310,l),
(614,390,l),
(460,390,l),
(612,576,l),
(612,700,l),
(28,700,l),
(28,542,l),
(366,542,l),
(242,390,l),
(28,390,l),
(28,310,l),
(178,310,l),
(28,126,l),
(28,0,l)
);
}
);
width = 640;
}
);
unicode = 437;
},
{
color = 8;
glyphname = Saltillo;
kernLeft = I;
kernRight = I;
lastChange = "2026-03-28 05:23:15 +0000";
layers = (
{
anchors = (
{
name = bottom;
pos = (140,0);
},
{
name = top;
pos = (140,700);
}
);
layerId = m003;
shapes = (
{
closed = 1;
nodes = (
(236,240,l),
(236,580,l),
(236,700,l),
(44,700,l),
(44,580,l),
(44,240,l)
);
}
);
width = 280;
},
{
anchors = (
{
name = bottom;
pos = (140,0);
},
{
name = top;
pos = (140,700);
}
);
layerId = m004;
shapes = (
{
closed = 1;
nodes = (
(190,240,l),
(190,580,l),
(190,700,l),
(90,700,l),
(90,580,l),
(90,240,l)
);
}
);
width = 280;
},
{
anchors = (
{
name = bottom;
pos = (140,0);
},
{
name = top;
pos = (140,700);
}
);
layerId = m007;
shapes = (
{
closed = 1;
nodes = (
(160,240,l),
(160,580,l),
(160,700,l),
(120,700,l),
(120,580,l),
(120,240,l)
);
}
);
width = 280;
}
);
unicode = 42891;
},
{
color = 9;
glyphname = a;
kernLeft = a;
kernRight = a;
lastChange = "2026-04-08 08:03:27 +0000";
layers = (
{
anchors = (
{
name = bottom;
pos = (260,0);
},
{
name = ogonek;
pos = (436,0);
},
{
name = top;
pos = (260,500);
}
);
layerId = m003;
shapes = (
{
closed = 1;
nodes = (
(484,306,l),
(484,436,o),
(402,512,o),
(262,512,cs),
(258,512,ls),
(116,512,o),
(44,422,o),
(38,330,c),
(194,330,l),
(196,368,o),
(216,392,o),
(258,392,cs),
(262,392,ls),
(298,392,o),
(326,370,o),
(326,318,cs),
(326,298,l),
(244,298,ls),
(106,298,o),
(26,246,o),
(26,146,cs),
(26,142,ls),
(26,56,o),
(82,-8,o),
(190,-8,cs),
(194,-8,ls),
(250,-8,o),
(312,16,o),
(340,84,c),
(340,0,l),
(484,0,l)
);
},
{
closed = 1;
nodes = (
(184,158,ls),
(184,186,o),
(202,202,o),
(242,202,cs),
(326,202,l),
(326,190,ls),
(326,132,o),
(290,116,o),
(240,116,cs),
(236,116,ls),
(208,116,o),
(184,130,o),
(184,154,cs)
);
}
);
width = 520;
},
{
anchors = (
{
name = bottom;
pos = (260,0);
},
{
name = ogonek;
pos = (422,0);
},
{
name = top;
pos = (260,500);
}
);
layerId = m004;
shapes = (
{
closed = 1;
nodes = (
(458,308,l),
(458,448,o),
(376,512,o),
(260,512,cs),
(256,512,ls),
(128,512,o),
(66,426,o),
(62,350,c),
(158,350,l),
(162,394,o),
(196,428,o),
(256,428,cs),
(260,428,ls),
(324,428,o),
(362,394,o),
(362,320,cs),
(362,290,l),
(280,290,ls),
(126,290,o),
(40,256,o),
(40,136,cs),
(40,132,ls),
(40,46,o),
(102,-8,o),
(204,-8,cs),
(208,-8,ls),
(282,-8,o),
(338,20,o),
(368,84,c),
(368,0,l),
(458,0,l)
);
},
{
closed = 1;
nodes = (
(136,142,ls),
(136,204,o),
(194,210,o),
(298,210,cs),
(362,210,l),
(362,204,ls),
(362,128,o),
(318,76,o),
(226,76,cs),
(222,76,ls),
(172,76,o),
(136,92,o),
(136,138,cs)
);
}
);
width = 520;
},
{
anchors = (
{
name = bottom;
pos = (260,0);
},
{
name = ogonek;
pos = (428,0);
},
{
name = top;
pos = (260,500);
}
);
layerId = m007;
shapes = (
{
closed = 1;
nodes = (
(448,324,l),
(448,446,o),
(378,512,o),
(260,512,cs),
(256,512,ls),
(150,512,o),
(78,446,o),
(72,360,c),
(112,360,l),
(118,426,o),
(172,472,o),
(256,472,cs),
(260,472,ls),
(352,472,o),
(408,424,o),
(408,326,cs),
(408,270,l),
(296,270,ls),
(142,270,o),
(50,244,o),
(50,132,cs),
(50,128,ls),
(50,34,o),
(122,-8,o),
(214,-8,cs),
(218,-8,ls),
(310,-8,o),
(376,32,o),
(408,96,c),
(408,0,l),
(448,0,l)
);
},
{
closed = 1;
nodes = (
(90,132,ls),
(90,214,o),
(164,230,o),
(298,230,cs),
(408,230,l),
(408,218,ls),
(408,106,o),
(330,32,o),
(218,32,cs),
(214,32,ls),
(142,32,o),
(90,64,o),
(90,128,cs)
);
}
);
width = 520;
}
);
metricRight = upsilon;
unicode = 97;
userData = {
KernOnName = a;
};
},
{
glyphname = a.cv01;
kernLeft = o;
kernRight = n;
lastChange = "2026-04-07 14:26:59 +0000";
layers = (
{
anchors = (
{
name = bottom;
pos = (290,0);
},
{
name = ogonek;
pos = (456,0);
},
{
name = top;
pos = (290,500);
}
);
layerId = m003;
shapes = (
{
closed = 1;
nodes = (
(346,436,l),
(322,476,o),
(280,512,o),
(218,512,cs),
(214,512,ls),
(100,512,o),
(28,420,o),
(28,252,cs),
(28,248,ls),
(28,80,o),
(100,-12,o),
(214,-12,cs),
(218,-12,ls),
(280,-12,o),
(322,24,o),
(346,64,c),
(346,0,l),
(526,0,l),
(526,500,l),
(346,500,l)
);
},
{
closed = 1;
nodes = (
(230,130,o),
(206,172,o),
(206,248,cs),
(206,252,ls),
(206,328,o),
(230,368,o),
(274,368,cs),
(278,368,ls),
(322,368,o),
(346,328,o),
(346,252,cs),
(346,248,ls),
(346,172,o),
(322,130,o),
(278,130,cs),
(274,130,ls)
);
}
);
width = 570;
},
{
anchors = (
{
name = bottom;
pos = (290,0);
},
{
name = ogonek;
pos = (466,0);
},
{
name = top;
pos = (290,500);
}
);
layerId = m004;
shapes = (
{
closed = 1;
nodes = (
(404,440,l),
(376,480,o),
(328,512,o),
(258,512,cs),
(254,512,ls),
(136,512,o),
(44,422,o),
(44,252,cs),
(44,248,ls),
(44,78,o),
(136,-12,o),
(254,-12,cs),
(258,-12,ls),
(328,-12,o),
(376,20,o),
(404,60,c),
(404,0,l),
(500,0,l),
(500,500,l),
(404,500,l)
);
},
{
closed = 1;
nodes = (
(192,76,o),
(138,134,o),
(138,248,cs),
(138,252,ls),
(138,366,o),
(192,424,o),
(268,424,cs),
(272,424,ls),
(352,424,o),
(404,366,o),
(404,252,cs),
(404,248,ls),
(404,134,o),
(352,76,o),
(272,76,cs),
(268,76,ls)
);
}
);
width = 570;
},
{
anchors = (
{
name = bottom;
pos = (290,0);
},
{
name = ogonek;
pos = (464,0);
},
{
name = top;
pos = (290,500);
}
);
layerId = m007;
shapes = (
{
closed = 1;
nodes = (
(444,414,l),
(410,476,o),
(350,512,o),
(272,512,cs),
(268,512,ls),
(140,512,o),
(56,418,o),
(56,252,cs),
(56,248,ls),
(56,82,o),
(140,-12,o),
(268,-12,cs),
(272,-12,ls),
(350,-12,o),
(410,24,o),
(444,86,c),
(444,0,l),
(484,0,l),
(484,500,l),
(444,500,l)
);
},
{
closed = 1;
nodes = (
(158,28,o),
(96,108,o),
(96,248,cs),
(96,252,ls),
(96,392,o),
(158,472,o),
(268,472,cs),
(272,472,ls),
(382,472,o),
(444,392,o),
(444,252,cs),
(444,248,ls),
(444,108,o),
(382,28,o),
(272,28,cs),
(268,28,ls)
);
}
);
width = 570;
}
);
metricLeft = o;
metricRight = u;
},
{
glyphname = a.ss01;
kernLeft = a;
kernRight = a;
lastChange = "2026-04-08 08:03:31 +0000";
layers = (
{
anchors = (
{
name = bottom;
pos = (260,0);
},
{
name = ogonek;
pos = (458,0);
},
{
name = top;
pos = (260,500);
}
);
layerId = m003;
shapes = (
{
closed = 1;
nodes = (
(194,-8,ls),
(250,-8,o),
(312,16,o),
(340,84,c),
(358,0,l),
(510,0,l),
(484,110,l),
(484,306,l),
(484,436,o),
(402,512,o),
(262,512,cs),
(258,512,ls),
(116,512,o),
(44,422,o),
(38,330,c),
(194,330,l),
(196,368,o),
(216,392,o),
(258,392,cs),
(262,392,ls),
(298,392,o),
(326,370,o),
(326,318,cs),
(326,298,l),
(244,298,ls),
(106,298,o),
(26,246,o),
(26,146,cs),
(26,142,ls),
(26,56,o),
(82,-8,o),
(190,-8,cs)
);
},
{
closed = 1;
nodes = (
(184,158,ls),
(184,186,o),
(202,202,o),
(242,202,cs),
(326,202,l),
(326,190,ls),
(326,132,o),
(290,116,o),
(240,116,cs),
(236,116,ls),
(208,116,o),
(184,130,o),
(184,154,cs)
);
}
);
width = 520;
},
{
anchors = (
{
name = bottom;
pos = (260,0);
},
{
name = ogonek;
pos = (456,0);
},
{
name = top;
pos = (260,500);
}
);
layerId = m004;
shapes = (
{
closed = 1;
nodes = (
(208,-8,ls),
(284,-8,o),
(338,20,o),
(368,86,c),
(394,0,l),
(494,0,l),
(458,132,l),
(458,308,l),
(458,448,o),
(376,512,o),
(260,512,cs),
(256,512,ls),
(128,512,o),
(66,426,o),
(62,350,c),
(158,350,l),
(162,394,o),
(196,428,o),
(256,428,cs),
(260,428,ls),
(324,428,o),
(362,394,o),
(362,320,cs),
(362,290,l),
(280,290,ls),
(126,290,o),
(40,256,o),
(40,136,cs),
(40,132,ls),
(40,46,o),
(102,-8,o),
(204,-8,cs)
);
},
{
closed = 1;
nodes = (
(136,142,ls),
(136,204,o),
(194,210,o),
(298,210,cs),
(362,210,l),
(362,204,ls),
(362,128,o),
(318,76,o),
(226,76,cs),
(222,76,ls),
(172,76,o),
(136,92,o),
(136,138,cs)
);
}
);
width = 520;
},
{
anchors = (
{
name = bottom;
pos = (260,0);
},
{
name = ogonek;
pos = (464,0);
},
{
name = top;
pos = (260,500);
}
);
layerId = m007;
shapes = (
{
closed = 1;
nodes = (
(218,-8,ls),
(312,-8,o),
(382,36,o),
(412,102,c),
(442,0,l),
(484,0,l),
(448,126,l),
(448,324,l),
(448,446,o),
(378,512,o),
(260,512,cs),
(256,512,ls),
(150,512,o),
(78,446,o),
(72,360,c),
(112,360,l),
(118,426,o),
(172,472,o),
(256,472,cs),
(260,472,ls),
(352,472,o),
(408,424,o),
(408,326,cs),
(408,270,l),
(296,270,ls),
(142,270,o),
(50,244,o),
(50,132,cs),
(50,128,ls),
(50,34,o),
(122,-8,o),
(214,-8,cs)
);
},
{
closed = 1;
nodes = (
(90,132,ls),
(90,214,o),
(164,230,o),
(298,230,cs),
(408,230,l),
(408,218,ls),
(408,106,o),
(330,32,o),
(218,32,cs),
(214,32,ls),
(142,32,o),
(90,64,o),
(90,128,cs)
);
}
);
width = 520;
}
);
metricLeft = a;
userData = {
KernOnName = a;
};
},
{
glyphname = a.ss01.cv01;
kernLeft = o;
kernRight = n;
lastChange = "2026-04-08 08:58:38 +0000";
layers = (
{
anchors = (
{
name = bottom;
pos = (290,0);
},
{
name = ogonek;
pos = (484,0);
},
{
name = top;
pos = (290,500);
}
);
layerId = m003;
shapes = (
{
closed = 1;
nodes = (
(218,-12,ls),
(290,-12,o),
(338,38,o),
(358,88,c),
(384,0,l),
(560,0,l),
(528,100,l),
(528,500,l),
(346,500,l),
(346,436,l),
(322,476,o),
(280,512,o),
(218,512,cs),
(214,512,ls),
(100,512,o),
(28,420,o),
(28,252,cs),
(28,248,ls),
(28,80,o),
(100,-12,o),
(214,-12,cs)
);
},
{
closed = 1;
nodes = (
(230,130,o),
(206,172,o),
(206,248,cs),
(206,252,ls),
(206,328,o),
(230,368,o),
(274,368,cs),
(278,368,ls),
(322,368,o),
(346,328,o),
(346,252,cs),
(346,248,ls),
(346,172,o),
(322,130,o),
(278,130,cs),
(274,130,ls)
);
}
);
width = 570;
},
{
anchors = (
{
name = bottom;
pos = (290,0);
},
{
name = ogonek;
pos = (506,0);
},
{
name = top;
pos = (290,500);
}
);
layerId = m004;
shapes = (
{
closed = 1;
nodes = (
(258,-12,ls),
(336,-12,o),
(386,26,o),
(410,76,c),
(436,0,l),
(544,0,l),
(498,122,l),
(498,500,l),
(404,500,l),
(404,440,l),
(376,480,o),
(328,512,o),
(258,512,cs),
(254,512,ls),
(136,512,o),
(44,422,o),
(44,252,cs),
(44,248,ls),
(44,78,o),
(136,-12,o),
(254,-12,cs)
);
},
{
closed = 1;
nodes = (
(192,76,o),
(138,134,o),
(138,248,cs),
(138,252,ls),
(138,366,o),
(192,424,o),
(268,424,cs),
(272,424,ls),
(352,424,o),
(404,366,o),
(404,252,cs),
(404,248,ls),
(404,134,o),
(352,76,o),
(272,76,cs),
(268,76,ls)
);
}
);
width = 570;
},
{
anchors = (
{
name = bottom;
pos = (290,0);
},
{
name = ogonek;
pos = (514,0);
},
{
name = top;
pos = (290,500);
}
);
layerId = m007;
shapes = (
{
closed = 1;
nodes = (
(272,-12,ls),
(354,-12,o),
(416,28,o),
(450,100,c),
(492,0,l),
(534,0,l),
(484,126,l),
(484,500,l),
(444,500,l),
(444,414,l),
(410,476,o),
(350,512,o),
(272,512,cs),
(268,512,ls),
(140,512,o),
(56,418,o),
(56,252,cs),
(56,248,ls),
(56,82,o),
(140,-12,o),
(268,-12,cs)
);
},
{
closed = 1;
nodes = (
(158,28,o),
(96,108,o),
(96,248,cs),
(96,252,ls),
(96,392,o),
(158,472,o),
(268,472,cs),
(272,472,ls),
(382,472,o),
(444,392,o),
(444,252,cs),
(444,248,ls),
(444,108,o),
(382,28,o),
(272,28,cs),
(268,28,ls)
);
}
);
width = 570;
}
);
metricLeft = o;
},
{
glyphname = a.ss02;
kernLeft = a;
kernRight = "a-tail";
lastChange = "2026-04-08 08:03:45 +0000";
layers = (
{
anchors = (
{
name = bottom;
pos = (260,0);
},
{
name = ogonek;
pos = (466,0);
},
{
name = top;
pos = (260,500);
}
);
layerId = m003;
shapes = (
{
closed = 1;
nodes = (
(194,-8,ls),
(250,-8,o),
(314,16,o),
(342,90,c),
(342,68,ls),
(342,28,o),
(362,0,o),
(420,0,cs),
(524,0,l),
(524,128,l),
(504,128,ls),
(490,128,o),
(484,132,o),
(484,148,c),
(484,306,l),
(484,436,o),
(402,512,o),
(262,512,cs),
(258,512,ls),
(116,512,o),
(44,422,o),
(38,330,c),
(194,330,l),
(196,368,o),
(216,392,o),
(258,392,cs),
(262,392,ls),
(298,392,o),
(326,370,o),
(326,318,cs),
(326,298,l),
(244,298,ls),
(106,298,o),
(26,246,o),
(26,146,cs),
(26,142,ls),
(26,56,o),
(82,-8,o),
(190,-8,cs)
);
},
{
closed = 1;
nodes = (
(184,158,ls),
(184,186,o),
(202,202,o),
(242,202,cs),
(326,202,l),
(326,190,ls),
(326,132,o),
(290,116,o),
(240,116,cs),
(236,116,ls),
(208,116,o),
(184,130,o),
(184,154,cs)
);
}
);
width = 540;
},
{
anchors = (
{
name = bottom;
pos = (260,0);
},
{
name = ogonek;
pos = (466,0);
},
{
name = top;
pos = (260,500);
}
);
layerId = m004;
shapes = (
{
closed = 1;
nodes = (
(208,-8,ls),
(284,-8,o),
(340,20,o),
(370,88,c),
(370,72,ls),
(370,30,o),
(390,0,o),
(446,0,cs),
(510,0,l),
(510,78,l),
(494,78,ls),
(470,78,o),
(458,90,o),
(458,114,c),
(458,308,l),
(458,448,o),
(376,512,o),
(260,512,cs),
(256,512,ls),
(128,512,o),
(66,426,o),
(62,350,c),
(158,350,l),
(162,394,o),
(196,428,o),
(256,428,cs),
(260,428,ls),
(324,428,o),
(362,394,o),
(362,320,cs),
(362,290,l),
(280,290,ls),
(126,290,o),
(40,256,o),
(40,136,cs),
(40,132,ls),
(40,46,o),
(102,-8,o),
(204,-8,cs)
);
},
{
closed = 1;
nodes = (
(136,142,ls),
(136,204,o),
(194,210,o),
(298,210,cs),
(362,210,l),
(362,204,ls),
(362,128,o),
(318,76,o),
(226,76,cs),
(222,76,ls),
(172,76,o),
(136,92,o),
(136,138,cs)
);
}
);
width = 540;
},
{
anchors = (
{
name = bottom;
pos = (260,0);
},
{
name = ogonek;
pos = (474,0);
},
{
name = top;
pos = (260,500);
}
);
layerId = m007;
shapes = (
{
closed = 1;
nodes = (
(218,-8,ls),
(310,-8,o),
(376,32,o),
(408,96,c),
(408,78,ls),
(408,28,o),
(436,0,o),
(486,0,cs),
(504,0,l),
(504,40,l),
(492,40,ls),
(462,40,o),
(448,54,o),
(448,84,c),
(448,324,l),
(448,446,o),
(378,512,o),
(260,512,cs),
(256,512,ls),
(150,512,o),
(78,446,o),
(72,360,c),
(112,360,l),
(118,426,o),
(172,472,o),
(256,472,cs),
(260,472,ls),
(352,472,o),
(408,424,o),
(408,326,cs),
(408,270,l),
(296,270,ls),
(142,270,o),
(50,244,o),
(50,132,cs),
(50,128,ls),
(50,34,o),
(122,-8,o),
(214,-8,cs)
);
},
{
closed = 1;
nodes = (
(90,132,ls),
(90,214,o),
(164,230,o),
(298,230,cs),
(408,230,l),
(408,218,ls),
(408,106,o),
(330,32,o),
(218,32,cs),
(214,32,ls),
(142,32,o),
(90,64,o),
(90,128,cs)
);
}
);
width = 540;
}
);
metricLeft = a;
metricRight = tau;
userData = {
KernOnName = a;
};
},
{
glyphname = a.ss02.cv01;
kernLeft = o;
kernRight = "n-tail";
lastChange = "2026-04-07 14:26:59 +0000";
layers = (
{
anchors = (
{
name = bottom;
pos = (290,0);
},
{
name = ogonek;
pos = (518,0);
},
{
name = top;
pos = (290,500);
}
);
layerId = m003;
shapes = (
{
closed = 1;
nodes = (
(218,-12,ls),
(288,-12,o),
(334,34,o),
(354,80,c),
(358,32,o),
(392,0,o),
(442,0,cs),
(574,0,l),
(574,128,l),
(548,128,ls),
(534,128,o),
(528,132,o),
(528,148,cs),
(528,500,l),
(346,500,l),
(346,436,l),
(322,476,o),
(280,512,o),
(218,512,cs),
(214,512,ls),
(100,512,o),
(28,420,o),
(28,252,cs),
(28,248,ls),
(28,80,o),
(100,-12,o),
(214,-12,cs)
);
},
{
closed = 1;
nodes = (
(230,130,o),
(206,172,o),
(206,248,cs),
(206,252,ls),
(206,328,o),
(230,368,o),
(274,368,cs),
(278,368,ls),
(322,368,o),
(346,328,o),
(346,252,cs),
(346,248,ls),
(346,172,o),
(322,130,o),
(278,130,cs),
(274,130,ls)
);
}
);
width = 590;
},
{
anchors = (
{
name = bottom;
pos = (290,0);
},
{
name = ogonek;
pos = (514,0);
},
{
name = top;
pos = (290,500);
}
);
layerId = m004;
shapes = (
{
closed = 1;
nodes = (
(258,-12,ls),
(334,-12,o),
(384,26,o),
(412,74,c),
(414,26,o),
(440,0,o),
(488,0,cs),
(560,0,l),
(560,78,l),
(528,78,ls),
(508,78,o),
(500,86,o),
(500,106,cs),
(500,500,l),
(404,500,l),
(404,440,l),
(376,480,o),
(328,512,o),
(258,512,cs),
(254,512,ls),
(136,512,o),
(44,422,o),
(44,252,cs),
(44,248,ls),
(44,78,o),
(136,-12,o),
(254,-12,cs)
);
},
{
closed = 1;
nodes = (
(192,76,o),
(138,134,o),
(138,248,cs),
(138,252,ls),
(138,366,o),
(192,424,o),
(268,424,cs),
(272,424,ls),
(352,424,o),
(404,366,o),
(404,252,cs),
(404,248,ls),
(404,134,o),
(352,76,o),
(272,76,cs),
(268,76,ls)
);
}
);
width = 590;
},
{
anchors = (
{
name = bottom;
pos = (290,0);
},
{
name = ogonek;
pos = (534,0);
},
{
name = top;
pos = (290,500);
}
);
layerId = m007;
shapes = (
{
closed = 1;
nodes = (
(272,-12,ls),
(350,-12,o),
(410,24,o),
(444,86,c),
(444,28,o),
(472,0,o),
(532,0,cs),
(554,0,l),
(554,40,l),
(532,40,ls),
(500,40,o),
(484,56,o),
(484,88,cs),
(484,500,l),
(444,500,l),
(444,414,l),
(410,476,o),
(350,512,o),
(272,512,cs),
(268,512,ls),
(140,512,o),
(56,418,o),
(56,252,cs),
(56,248,ls),
(56,82,o),
(140,-12,o),
(268,-12,cs)
);
},
{
closed = 1;
nodes = (
(158,28,o),
(96,108,o),
(96,248,cs),
(96,252,ls),
(96,392,o),
(158,472,o),
(268,472,cs),
(272,472,ls),
(382,472,o),
(444,392,o),
(444,252,cs),
(444,248,ls),
(444,108,o),
(382,28,o),
(272,28,cs),
(268,28,ls)
);
}
);
width = 590;
}
);
metricLeft = o;
metricRight = tau;
},
{
color = 8;
glyphname = aogonek;
kernLeft = a;
kernRight = "a-des";
lastChange = "2026-04-08 08:21:19 +0000";
layers = (
{
anchors = (
{
name = bottom;
pos = (260,-200);
},
{
name = ogonek;
pos = (436,-200);
},
{
name = top;
pos = (260,500);
}
);
layerId = m003;
shapes = (
{
closed = 1;
nodes = (
(484,306,l),
(484,436,o),
(402,512,o),
(262,512,cs),
(258,512,ls),
(116,512,o),
(44,422,o),
(38,330,c),
(194,330,l),
(196,364,o),
(216,388,o),
(258,388,cs),
(262,388,ls),
(298,388,o),
(326,366,o),
(326,318,cs),
(326,298,l),
(244,298,ls),
(106,298,o),
(26,246,o),
(26,146,cs),
(26,142,ls),
(26,56,o),
(82,-8,o),
(190,-8,cs),
(194,-8,ls),
(250,-8,o),
(312,16,o),
(340,84,c),
(340,18,l),
(316,-6,o),
(298,-38,o),
(298,-78,cs),
(298,-82,ls),
(298,-152,o),
(346,-200,o),
(432,-200,cs),
(530,-200,o),
(572,-144,o),
(576,-68,c),
(474,-68,l),
(474,-102,o),
(462,-118,o),
(436,-118,cs),
(412,-118,o),
(400,-106,o),
(400,-78,cs),
(400,-74,ls),
(400,-36,o),
(430,-16,o),
(482,0,c),
(484,0,l)
);
},
{
closed = 1;
nodes = (
(184,158,ls),
(184,186,o),
(202,202,o),
(242,202,cs),
(326,202,l),
(326,190,ls),
(326,132,o),
(290,116,o),
(240,116,cs),
(236,116,ls),
(208,116,o),
(184,130,o),
(184,154,cs)
);
}
);
width = 520;
},
{
anchors = (
{
name = bottom;
pos = (260,-200);
},
{
name = ogonek;
pos = (422,-200);
},
{
name = top;
pos = (260,500);
}
);
layerId = m004;
shapes = (
{
closed = 1;
nodes = (
(458,308,l),
(458,448,o),
(376,512,o),
(260,512,cs),
(256,512,ls),
(128,512,o),
(66,426,o),
(62,350,c),
(158,350,l),
(162,394,o),
(196,428,o),
(256,428,cs),
(260,428,ls),
(324,428,o),
(362,394,o),
(362,320,cs),
(362,290,l),
(280,290,ls),
(126,290,o),
(40,256,o),
(40,136,cs),
(40,132,ls),
(40,46,o),
(102,-8,o),
(204,-8,cs),
(208,-8,ls),
(282,-8,o),
(338,20,o),
(368,84,c),
(368,22,l),
(330,-6,o),
(304,-48,o),
(304,-94,cs),
(304,-98,ls),
(304,-154,o),
(340,-200,o),
(420,-200,cs),
(504,-200,o),
(534,-142,o),
(542,-86,c),
(458,-86,l),
(456,-110,o),
(448,-130,o),
(420,-130,cs),
(394,-130,o),
(386,-112,o),
(386,-94,cs),
(386,-90,ls),
(386,-62,o),
(402,-28,o),
(454,0,c),
(458,0,l)
);
},
{
closed = 1;
nodes = (
(136,142,ls),
(136,204,o),
(194,210,o),
(298,210,cs),
(362,210,l),
(362,204,ls),
(362,128,o),
(318,76,o),
(226,76,cs),
(222,76,ls),
(172,76,o),
(136,92,o),
(136,138,cs)
);
}
);
width = 520;
},
{
anchors = (
{
name = bottom;
pos = (260,-200);
},
{
name = ogonek;
pos = (428,-200);
},
{
name = top;
pos = (260,500);
}
);
layerId = m007;
shapes = (
{
closed = 1;
nodes = (
(448,324,l),
(448,446,o),
(378,512,o),
(260,512,cs),
(256,512,ls),
(150,512,o),
(78,446,o),
(72,360,c),
(112,360,l),
(118,426,o),
(172,472,o),
(256,472,cs),
(260,472,ls),
(352,472,o),
(408,424,o),
(408,326,cs),
(408,270,l),
(296,270,ls),
(142,270,o),
(50,244,o),
(50,132,cs),
(50,128,ls),
(50,34,o),
(122,-8,o),
(214,-8,cs),
(218,-8,ls),
(310,-8,o),
(376,32,o),
(408,96,c),
(408,22,l),
(364,-4,o),
(328,-56,o),
(328,-106,cs),
(328,-110,ls),
(328,-160,o),
(360,-200,o),
(424,-200,cs),
(488,-200,o),
(522,-154,o),
(526,-100,c),
(482,-100,l),
(478,-138,o),
(462,-160,o),
(424,-160,cs),
(386,-160,o),
(368,-136,o),
(368,-110,cs),
(368,-106,ls),
(368,-68,o),
(400,-22,o),
(444,0,c),
(448,0,l)
);
},
{
closed = 1;
nodes = (
(90,132,ls),
(90,214,o),
(164,230,o),
(298,230,cs),
(408,230,l),
(408,218,ls),
(408,106,o),
(330,32,o),
(218,32,cs),
(214,32,ls),
(142,32,o),
(90,64,o),
(90,128,cs)
);
}
);
width = 520;
}
);
unicode = 261;
},
{
glyphname = aogonek.cv01;
kernLeft = o;
kernRight = "n-des";
lastChange = "2026-04-07 14:26:59 +0000";
layers = (
{
anchors = (
{
name = bottom;
pos = (280,-200);
},
{
name = ogonek;
pos = (456,-200);
},
{
name = top;
pos = (280,500);
}
);
layerId = m003;
shapes = (
{
closed = 1;
nodes = (
(346,436,l),
(322,476,o),
(280,512,o),
(218,512,cs),
(214,512,ls),
(100,512,o),
(28,420,o),
(28,252,cs),
(28,248,ls),
(28,80,o),
(100,-12,o),
(214,-12,cs),
(218,-12,ls),
(280,-12,o),
(322,24,o),
(346,64,c),
(346,2,l),
(330,-18,o),
(318,-46,o),
(318,-78,cs),
(318,-82,ls),
(318,-152,o),
(366,-200,o),
(452,-200,cs),
(550,-200,o),
(592,-144,o),
(596,-68,c),
(494,-68,l),
(494,-102,o),
(482,-118,o),
(456,-118,cs),
(432,-118,o),
(420,-106,o),
(420,-78,cs),
(420,-74,ls),
(420,-36,o),
(450,-16,o),
(502,0,c),
(526,0,l),
(526,500,l),
(346,500,l)
);
},
{
closed = 1;
nodes = (
(230,130,o),
(206,172,o),
(206,248,cs),
(206,252,ls),
(206,328,o),
(230,368,o),
(274,368,cs),
(278,368,ls),
(322,368,o),
(346,328,o),
(346,252,cs),
(346,248,ls),
(346,172,o),
(322,130,o),
(278,130,cs),
(274,130,ls)
);
}
);
width = 570;
},
{
anchors = (
{
name = bottom;
pos = (280,-200);
},
{
name = ogonek;
pos = (466,-200);
},
{
name = top;
pos = (280,500);
}
);
layerId = m004;
shapes = (
{
closed = 1;
nodes = (
(404,440,l),
(376,480,o),
(328,512,o),
(258,512,cs),
(254,512,ls),
(136,512,o),
(44,422,o),
(44,252,cs),
(44,248,ls),
(44,78,o),
(136,-12,o),
(254,-12,cs),
(258,-12,ls),
(328,-12,o),
(376,20,o),
(404,60,c),
(404,16,l),
(370,-12,o),
(348,-50,o),
(348,-94,cs),
(348,-98,ls),
(348,-154,o),
(384,-200,o),
(464,-200,cs),
(548,-200,o),
(578,-142,o),
(586,-86,c),
(502,-86,l),
(500,-110,o),
(492,-130,o),
(464,-130,cs),
(438,-130,o),
(430,-112,o),
(430,-94,cs),
(430,-90,ls),
(430,-62,o),
(446,-28,o),
(498,0,c),
(500,0,l),
(500,500,l),
(404,500,l)
);
},
{
closed = 1;
nodes = (
(192,76,o),
(138,134,o),
(138,248,cs),
(138,252,ls),
(138,366,o),
(192,424,o),
(268,424,cs),
(272,424,ls),
(352,424,o),
(404,366,o),
(404,252,cs),
(404,248,ls),
(404,134,o),
(352,76,o),
(272,76,cs),
(268,76,ls)
);
}
);
width = 570;
},
{
anchors = (
{
name = bottom;
pos = (280,-200);
},
{
name = ogonek;
pos = (464,-200);
},
{
name = top;
pos = (280,500);
}
);
layerId = m007;
shapes = (
{
closed = 1;
nodes = (
(444,414,l),
(410,476,o),
(350,512,o),
(272,512,cs),
(268,512,ls),
(140,512,o),
(56,418,o),
(56,252,cs),
(56,248,ls),
(56,82,o),
(140,-12,o),
(268,-12,cs),
(272,-12,ls),
(350,-12,o),
(410,24,o),
(444,86,c),
(444,22,l),
(400,-4,o),
(364,-56,o),
(364,-106,cs),
(364,-110,ls),
(364,-160,o),
(396,-200,o),
(460,-200,cs),
(524,-200,o),
(558,-154,o),
(562,-100,c),
(518,-100,l),
(514,-138,o),
(498,-160,o),
(460,-160,cs),
(422,-160,o),
(404,-136,o),
(404,-110,cs),
(404,-106,ls),
(404,-68,o),
(436,-22,o),
(480,0,c),
(484,0,l),
(484,500,l),
(444,500,l)
);
},
{
closed = 1;
nodes = (
(158,28,o),
(96,108,o),
(96,248,cs),
(96,252,ls),
(96,392,o),
(158,472,o),
(268,472,cs),
(272,472,ls),
(382,472,o),
(444,392,o),
(444,252,cs),
(444,248,ls),
(444,108,o),
(382,28,o),
(272,28,cs),
(268,28,ls)
);
}
);
width = 570;
}
);
},
{
glyphname = aogonek.ss01;
kernLeft = a;
kernRight = "a-des";
lastChange = "2026-04-08 08:21:24 +0000";
layers = (
{
anchors = (
{
name = bottom;
pos = (260,-200);
},
{
name = ogonek;
pos = (458,-200);
},
{
name = top;
pos = (260,500);
}
);
layerId = m003;
shapes = (
{
closed = 1;
nodes = (
(194,-8,ls),
(250,-8,o),
(312,16,o),
(340,84,c),
(356,12,l),
(334,-12,o),
(320,-42,o),
(320,-78,cs),
(320,-82,ls),
(320,-152,o),
(368,-200,o),
(454,-200,cs),
(552,-200,o),
(594,-144,o),
(598,-68,c),
(496,-68,l),
(496,-102,o),
(484,-118,o),
(458,-118,cs),
(434,-118,o),
(422,-106,o),
(422,-78,cs),
(422,-74,ls),
(422,-36,o),
(452,-16,o),
(504,0,c),
(510,0,l),
(484,110,l),
(484,306,l),
(484,436,o),
(402,512,o),
(262,512,cs),
(258,512,ls),
(116,512,o),
(44,422,o),
(38,330,c),
(194,330,l),
(196,364,o),
(216,388,o),
(258,388,cs),
(262,388,ls),
(298,388,o),
(326,366,o),
(326,318,cs),
(326,298,l),
(244,298,ls),
(106,298,o),
(26,246,o),
(26,146,cs),
(26,142,ls),
(26,56,o),
(82,-8,o),
(190,-8,cs)
);
},
{
closed = 1;
nodes = (
(184,158,ls),
(184,186,o),
(202,202,o),
(242,202,cs),
(326,202,l),
(326,190,ls),
(326,132,o),
(290,116,o),
(240,116,cs),
(236,116,ls),
(208,116,o),
(184,130,o),
(184,154,cs)
);
}
);
width = 520;
},
{
anchors = (
{
name = bottom;
pos = (260,-200);
},
{
name = ogonek;
pos = (456,-200);
},
{
name = top;
pos = (260,500);
}
);
layerId = m004;
shapes = (
{
closed = 1;
nodes = (
(208,-8,ls),
(284,-8,o),
(338,20,o),
(368,86,c),
(390,14,l),
(358,-14,o),
(338,-52,o),
(338,-94,cs),
(338,-98,ls),
(338,-154,o),
(374,-200,o),
(454,-200,cs),
(538,-200,o),
(568,-142,o),
(576,-86,c),
(492,-86,l),
(490,-110,o),
(482,-130,o),
(454,-130,cs),
(428,-130,o),
(420,-112,o),
(420,-94,cs),
(420,-90,ls),
(420,-62,o),
(436,-28,o),
(488,0,c),
(494,0,l),
(458,132,l),
(458,308,l),
(458,448,o),
(376,512,o),
(260,512,cs),
(256,512,ls),
(128,512,o),
(66,426,o),
(62,350,c),
(158,350,l),
(162,394,o),
(196,428,o),
(256,428,cs),
(260,428,ls),
(324,428,o),
(362,394,o),
(362,320,cs),
(362,290,l),
(280,290,ls),
(126,290,o),
(40,256,o),
(40,136,cs),
(40,132,ls),
(40,46,o),
(102,-8,o),
(204,-8,cs)
);
},
{
closed = 1;
nodes = (
(136,142,ls),
(136,204,o),
(194,210,o),
(298,210,cs),
(362,210,l),
(362,204,ls),
(362,128,o),
(318,76,o),
(226,76,cs),
(222,76,ls),
(172,76,o),
(136,92,o),
(136,138,cs)
);
}
);
width = 520;
},
{
anchors = (
{
name = bottom;
pos = (260,-200);
},
{
name = ogonek;
pos = (464,-200);
},
{
name = top;
pos = (260,500);
}
);
layerId = m007;
shapes = (
{
closed = 1;
nodes = (
(218,-8,ls),
(312,-8,o),
(382,36,o),
(412,102,c),
(436,18,l),
(396,-10,o),
(364,-58,o),
(364,-106,cs),
(364,-110,ls),
(364,-160,o),
(396,-200,o),
(460,-200,cs),
(524,-200,o),
(558,-154,o),
(562,-100,c),
(518,-100,l),
(514,-138,o),
(498,-160,o),
(460,-160,cs),
(422,-160,o),
(404,-136,o),
(404,-110,cs),
(404,-106,ls),
(404,-68,o),
(436,-22,o),
(480,0,c),
(484,0,l),
(448,126,l),
(448,324,l),
(448,446,o),
(378,512,o),
(260,512,cs),
(256,512,ls),
(150,512,o),
(78,446,o),
(72,360,c),
(112,360,l),
(118,426,o),
(172,472,o),
(256,472,cs),
(260,472,ls),
(352,472,o),
(408,424,o),
(408,326,cs),
(408,270,l),
(296,270,ls),
(142,270,o),
(50,244,o),
(50,132,cs),
(50,128,ls),
(50,34,o),
(122,-8,o),
(214,-8,cs)
);
},
{
closed = 1;
nodes = (
(90,132,ls),
(90,214,o),
(164,230,o),
(298,230,cs),
(408,230,l),
(408,218,ls),
(408,106,o),
(330,32,o),
(218,32,cs),
(214,32,ls),
(142,32,o),
(90,64,o),
(90,128,cs)
);
}
);
width = 520;
}
);
},
{
glyphname = aogonek.ss01.cv01;
kernLeft = o;
kernRight = "n-des";
lastChange = "2026-04-07 14:26:59 +0000";
layers = (
{
anchors = (
{
name = bottom;
pos = (280,-200);
},
{
name = ogonek;
pos = (484,-200);
},
{
name = top;
pos = (280,500);
}
);
layerId = m003;
shapes = (
{
closed = 1;
nodes = (
(218,-12,ls),
(290,-12,o),
(338,38,o),
(358,88,c),
(380,10,l),
(360,-12,o),
(346,-42,o),
(346,-78,cs),
(346,-82,ls),
(346,-152,o),
(394,-200,o),
(480,-200,cs),
(578,-200,o),
(620,-144,o),
(624,-68,c),
(522,-68,l),
(522,-102,o),
(510,-118,o),
(484,-118,cs),
(460,-118,o),
(448,-106,o),
(448,-78,cs),
(448,-74,ls),
(448,-36,o),
(478,-16,o),
(530,0,c),
(560,0,l),
(528,100,l),
(528,500,l),
(346,500,l),
(346,436,l),
(322,476,o),
(280,512,o),
(218,512,cs),
(214,512,ls),
(100,512,o),
(28,420,o),
(28,252,cs),
(28,248,ls),
(28,80,o),
(100,-12,o),
(214,-12,cs)
);
},
{
closed = 1;
nodes = (
(230,130,o),
(206,172,o),
(206,248,cs),
(206,252,ls),
(206,328,o),
(230,368,o),
(274,368,cs),
(278,368,ls),
(322,368,o),
(346,328,o),
(346,252,cs),
(346,248,ls),
(346,172,o),
(322,130,o),
(278,130,cs),
(274,130,ls)
);
}
);
width = 570;
},
{
anchors = (
{
name = bottom;
pos = (280,-200);
},
{
name = ogonek;
pos = (506,-200);
},
{
name = top;
pos = (280,500);
}
);
layerId = m004;
shapes = (
{
closed = 1;
nodes = (
(258,-12,ls),
(336,-12,o),
(386,26,o),
(414,76,c),
(436,10,l),
(406,-18,o),
(388,-54,o),
(388,-94,cs),
(388,-98,ls),
(388,-154,o),
(424,-200,o),
(504,-200,cs),
(588,-200,o),
(618,-142,o),
(626,-86,c),
(542,-86,l),
(540,-110,o),
(532,-130,o),
(504,-130,cs),
(478,-130,o),
(470,-112,o),
(470,-94,cs),
(470,-90,ls),
(470,-62,o),
(486,-28,o),
(538,0,c),
(544,0,l),
(498,122,l),
(498,500,l),
(404,500,l),
(404,440,l),
(376,480,o),
(328,512,o),
(258,512,cs),
(254,512,ls),
(136,512,o),
(44,422,o),
(44,252,cs),
(44,248,ls),
(44,78,o),
(136,-12,o),
(254,-12,cs)
);
},
{
closed = 1;
nodes = (
(192,76,o),
(138,134,o),
(138,248,cs),
(138,252,ls),
(138,366,o),
(192,424,o),
(268,424,cs),
(272,424,ls),
(352,424,o),
(404,366,o),
(404,252,cs),
(404,248,ls),
(404,134,o),
(352,76,o),
(272,76,cs),
(268,76,ls)
);
}
);
width = 570;
},
{
anchors = (
{
name = bottom;
pos = (280,-200);
},
{
name = ogonek;
pos = (514,-200);
},
{
name = top;
pos = (280,500);
}
);
layerId = m007;
shapes = (
{
closed = 1;
nodes = (
(272,-12,ls),
(354,-12,o),
(416,28,o),
(450,100,c),
(486,16,l),
(444,-12,o),
(414,-58,o),
(414,-106,cs),
(414,-110,ls),
(414,-160,o),
(446,-200,o),
(510,-200,cs),
(574,-200,o),
(608,-154,o),
(612,-100,c),
(568,-100,l),
(564,-138,o),
(548,-160,o),
(510,-160,cs),
(472,-160,o),
(454,-136,o),
(454,-110,cs),
(454,-106,ls),
(454,-68,o),
(486,-22,o),
(530,0,c),
(534,0,l),
(484,126,l),
(484,500,l),
(444,500,l),
(444,414,l),
(410,476,o),
(350,512,o),
(272,512,cs),
(268,512,ls),
(140,512,o),
(56,418,o),
(56,252,cs),
(56,248,ls),
(56,82,o),
(140,-12,o),
(268,-12,cs)
);
},
{
closed = 1;
nodes = (
(158,28,o),
(96,108,o),
(96,248,cs),
(96,252,ls),
(96,392,o),
(158,472,o),
(268,472,cs),
(272,472,ls),
(382,472,o),
(444,392,o),
(444,252,cs),
(444,248,ls),
(444,108,o),
(382,28,o),
(272,28,cs),
(268,28,ls)
);
}
);
width = 570;
}
);
},
{
glyphname = aogonek.ss02;
kernLeft = a;
kernRight = "a-tail-des";
lastChange = "2026-04-08 08:21:29 +0000";
layers = (
{
anchors = (
{
name = bottom;
pos = (260,-200);
},
{
name = ogonek;
pos = (466,-200);
},
{
name = top;
pos = (260,500);
}
);
layerId = m003;
shapes = (
{
closed = 1;
nodes = (
(194,-8,ls),
(250,-8,o),
(314,16,o),
(342,90,c),
(342,68,ls),
(342,44,o),
(350,26,o),
(366,14,c),
(344,-10,o),
(328,-40,o),
(328,-78,cs),
(328,-82,ls),
(328,-152,o),
(376,-200,o),
(462,-200,cs),
(560,-200,o),
(602,-144,o),
(606,-68,c),
(504,-68,l),
(504,-102,o),
(492,-118,o),
(466,-118,cs),
(442,-118,o),
(430,-106,o),
(430,-78,cs),
(430,-74,ls),
(430,-36,o),
(460,-16,o),
(512,0,c),
(524,0,l),
(524,128,l),
(504,128,ls),
(490,128,o),
(484,132,o),
(484,148,c),
(484,306,l),
(484,436,o),
(402,512,o),
(262,512,cs),
(258,512,ls),
(116,512,o),
(44,422,o),
(38,330,c),
(194,330,l),
(196,364,o),
(216,388,o),
(258,388,cs),
(262,388,ls),
(298,388,o),
(326,366,o),
(326,318,cs),
(326,298,l),
(244,298,ls),
(106,298,o),
(26,246,o),
(26,146,cs),
(26,142,ls),
(26,56,o),
(82,-8,o),
(190,-8,cs)
);
},
{
closed = 1;
nodes = (
(184,158,ls),
(184,186,o),
(202,202,o),
(242,202,cs),
(326,202,l),
(326,190,ls),
(326,132,o),
(290,116,o),
(240,116,cs),
(236,116,ls),
(208,116,o),
(184,130,o),
(184,154,cs)
);
}
);
width = 540;
},
{
anchors = (
{
name = bottom;
pos = (260,-200);
},
{
name = ogonek;
pos = (466,-200);
},
{
name = top;
pos = (260,500);
}
);
layerId = m004;
shapes = (
{
closed = 1;
nodes = (
(208,-8,ls),
(284,-8,o),
(340,20,o),
(370,88,c),
(370,72,ls),
(370,46,o),
(378,24,o),
(398,12,c),
(368,-16,o),
(348,-54,o),
(348,-94,cs),
(348,-98,ls),
(348,-154,o),
(384,-200,o),
(464,-200,cs),
(548,-200,o),
(578,-142,o),
(586,-86,c),
(502,-86,l),
(500,-110,o),
(492,-130,o),
(464,-130,cs),
(438,-130,o),
(430,-112,o),
(430,-94,cs),
(430,-90,ls),
(430,-62,o),
(446,-28,o),
(498,0,c),
(510,0,l),
(510,78,l),
(494,78,ls),
(470,78,o),
(458,90,o),
(458,114,c),
(458,308,l),
(458,448,o),
(376,512,o),
(260,512,cs),
(256,512,ls),
(128,512,o),
(66,426,o),
(62,350,c),
(158,350,l),
(162,394,o),
(196,428,o),
(256,428,cs),
(260,428,ls),
(324,428,o),
(362,394,o),
(362,320,cs),
(362,290,l),
(280,290,ls),
(126,290,o),
(40,256,o),
(40,136,cs),
(40,132,ls),
(40,46,o),
(102,-8,o),
(204,-8,cs)
);
},
{
closed = 1;
nodes = (
(136,142,ls),
(136,204,o),
(194,210,o),
(298,210,cs),
(362,210,l),
(362,204,ls),
(362,128,o),
(318,76,o),
(226,76,cs),
(222,76,ls),
(172,76,o),
(136,92,o),
(136,138,cs)
);
}
);
width = 540;
},
{
anchors = (
{
name = bottom;
pos = (260,-200);
},
{
name = ogonek;
pos = (474,-200);
},
{
name = top;
pos = (260,500);
}
);
layerId = m007;
shapes = (
{
closed = 1;
nodes = (
(218,-8,ls),
(310,-8,o),
(376,32,o),
(408,96,c),
(408,78,ls),
(408,46,o),
(418,24,o),
(438,12,c),
(402,-16,o),
(374,-60,o),
(374,-106,cs),
(374,-110,ls),
(374,-160,o),
(406,-200,o),
(470,-200,cs),
(534,-200,o),
(568,-154,o),
(572,-100,c),
(528,-100,l),
(524,-138,o),
(508,-160,o),
(470,-160,cs),
(432,-160,o),
(414,-136,o),
(414,-110,cs),
(414,-106,ls),
(414,-68,o),
(446,-22,o),
(490,0,c),
(504,0,l),
(504,40,l),
(492,40,ls),
(462,40,o),
(448,54,o),
(448,84,c),
(448,324,l),
(448,446,o),
(378,512,o),
(260,512,cs),
(256,512,ls),
(150,512,o),
(78,446,o),
(72,360,c),
(112,360,l),
(118,426,o),
(172,472,o),
(256,472,cs),
(260,472,ls),
(352,472,o),
(408,424,o),
(408,326,cs),
(408,270,l),
(296,270,ls),
(142,270,o),
(50,244,o),
(50,132,cs),
(50,128,ls),
(50,34,o),
(122,-8,o),
(214,-8,cs)
);
},
{
closed = 1;
nodes = (
(90,132,ls),
(90,214,o),
(164,230,o),
(298,230,cs),
(408,230,l),
(408,218,ls),
(408,106,o),
(330,32,o),
(218,32,cs),
(214,32,ls),
(142,32,o),
(90,64,o),
(90,128,cs)
);
}
);
width = 540;
}
);
},
{
glyphname = aogonek.ss02.cv01;
kernLeft = o;
kernRight = "n-tail-des";
lastChange = "2026-04-07 14:26:59 +0000";
layers = (
{
anchors = (
{
name = bottom;
pos = (280,-200);
},
{
name = ogonek;
pos = (518,-200);
},
{
name = top;
pos = (280,500);
}
);
layerId = m003;
shapes = (
{
closed = 1;
nodes = (
(218,-12,ls),
(288,-12,o),
(334,34,o),
(354,80,c),
(356,44,o),
(378,16,o),
(410,6,c),
(392,-16,o),
(380,-44,o),
(380,-78,cs),
(380,-82,ls),
(380,-152,o),
(428,-200,o),
(514,-200,cs),
(612,-200,o),
(654,-144,o),
(658,-68,c),
(556,-68,l),
(556,-102,o),
(544,-118,o),
(518,-118,cs),
(494,-118,o),
(482,-106,o),
(482,-78,cs),
(482,-74,ls),
(482,-36,o),
(512,-16,o),
(564,0,c),
(574,0,l),
(574,128,l),
(548,128,ls),
(534,128,o),
(528,132,o),
(528,148,cs),
(528,500,l),
(346,500,l),
(346,436,l),
(322,476,o),
(280,512,o),
(218,512,cs),
(214,512,ls),
(100,512,o),
(28,420,o),
(28,252,cs),
(28,248,ls),
(28,80,o),
(100,-12,o),
(214,-12,cs)
);
},
{
closed = 1;
nodes = (
(230,130,o),
(206,172,o),
(206,248,cs),
(206,252,ls),
(206,328,o),
(230,368,o),
(274,368,cs),
(278,368,ls),
(322,368,o),
(346,328,o),
(346,252,cs),
(346,248,ls),
(346,172,o),
(322,130,o),
(278,130,cs),
(274,130,ls)
);
}
);
width = 590;
},
{
anchors = (
{
name = bottom;
pos = (280,-200);
},
{
name = ogonek;
pos = (514,-200);
},
{
name = top;
pos = (280,500);
}
);
layerId = m004;
shapes = (
{
closed = 1;
nodes = (
(258,-12,ls),
(334,-12,o),
(384,26,o),
(412,74,c),
(412,44,o),
(424,22,o),
(444,10,c),
(414,-18,o),
(396,-54,o),
(396,-94,cs),
(396,-98,ls),
(396,-154,o),
(432,-200,o),
(512,-200,cs),
(596,-200,o),
(626,-142,o),
(634,-86,c),
(550,-86,l),
(548,-110,o),
(540,-130,o),
(512,-130,cs),
(486,-130,o),
(478,-112,o),
(478,-94,cs),
(478,-90,ls),
(478,-62,o),
(494,-28,o),
(546,0,c),
(560,0,l),
(560,78,l),
(528,78,ls),
(508,78,o),
(500,86,o),
(500,106,cs),
(500,500,l),
(404,500,l),
(404,440,l),
(376,480,o),
(328,512,o),
(258,512,cs),
(254,512,ls),
(136,512,o),
(44,422,o),
(44,252,cs),
(44,248,ls),
(44,78,o),
(136,-12,o),
(254,-12,cs)
);
},
{
closed = 1;
nodes = (
(192,76,o),
(138,134,o),
(138,248,cs),
(138,252,ls),
(138,366,o),
(192,424,o),
(268,424,cs),
(272,424,ls),
(352,424,o),
(404,366,o),
(404,252,cs),
(404,248,ls),
(404,134,o),
(352,76,o),
(272,76,cs),
(268,76,ls)
);
}
);
width = 590;
},
{
anchors = (
{
name = bottom;
pos = (280,-200);
},
{
name = ogonek;
pos = (534,-200);
},
{
name = top;
pos = (280,500);
}
);
layerId = m007;
shapes = (
{
closed = 1;
nodes = (
(272,-12,ls),
(350,-12,o),
(410,24,o),
(444,86,c),
(444,44,o),
(460,16,o),
(492,6,c),
(458,-22,o),
(434,-64,o),
(434,-106,cs),
(434,-110,ls),
(434,-160,o),
(466,-200,o),
(530,-200,cs),
(594,-200,o),
(628,-154,o),
(632,-100,c),
(588,-100,l),
(584,-138,o),
(568,-160,o),
(530,-160,cs),
(492,-160,o),
(474,-136,o),
(474,-110,cs),
(474,-106,ls),
(474,-68,o),
(506,-22,o),
(550,0,c),
(554,0,l),
(554,40,l),
(532,40,ls),
(500,40,o),
(484,56,o),
(484,88,cs),
(484,500,l),
(444,500,l),
(444,414,l),
(410,476,o),
(350,512,o),
(272,512,cs),
(268,512,ls),
(140,512,o),
(56,418,o),
(56,252,cs),
(56,248,ls),
(56,82,o),
(140,-12,o),
(268,-12,cs)
);
},
{
closed = 1;
nodes = (
(158,28,o),
(96,108,o),
(96,248,cs),
(96,252,ls),
(96,392,o),
(158,472,o),
(268,472,cs),
(272,472,ls),
(382,472,o),
(444,392,o),
(444,252,cs),
(444,248,ls),
(444,108,o),
(382,28,o),
(272,28,cs),
(268,28,ls)
);
}
);
width = 590;
}
);
},
{
color = 8;
glyphname = ae;
kernLeft = a;
kernRight = o;
lastChange = "2026-04-08 18:12:31 +0000";
layers = (
{
anchors = (
{
name = bottom;
pos = (410,0);
},
{
name = ogonek;
pos = (519,0);
},
{
name = top;
pos = (410,500);
}
);
guides = (
{
pos = (-8,170);
},
{
pos = (-8,330);
}
);
layerId = m003;
shapes = (
{
closed = 1;
nodes = (
(200,-12,ls),
(282,-12,o),
(346,24,o),
(374,78,c),
(412,24,o),
(468,-12,o),
(562,-12,cs),
(566,-12,ls),
(702,-12,o),
(774,66,o),
(790,170,c),
(628,170,l),
(624,136,o),
(602,118,o),
(560,118,cs),
(556,118,ls),
(512,118,o),
(482,144,o),
(476,202,c),
(792,202,l),
(792,252,ls),
(792,432,o),
(694,512,o),
(558,512,cs),
(554,512,ls),
(500,512,o),
(442,492,o),
(412,454,c),
(388,484,o),
(332,512,o),
(260,512,cs),
(256,512,ls),
(112,512,o),
(44,422,o),
(38,330,c),
(198,330,l),
(198,364,o),
(220,388,o),
(256,388,cs),
(260,388,ls),
(294,388,o),
(318,368,o),
(318,320,cs),
(318,298,l),
(244,298,ls),
(106,298,o),
(26,252,o),
(26,146,cs),
(26,142,ls),
(26,44,o),
(88,-12,o),
(196,-12,cs)
);
},
{
closed = 1;
nodes = (
(182,158,ls),
(182,184,o),
(202,202,o),
(248,202,cs),
(318,202,l),
(318,190,ls),
(318,150,o),
(290,110,o),
(242,110,cs),
(238,110,ls),
(200,110,o),
(182,126,o),
(182,154,cs)
);
},
{
closed = 1;
nodes = (
(480,350,o),
(506,386,o),
(552,386,cs),
(556,386,ls),
(598,386,o),
(626,356,o),
(626,298,c),
(476,298,l)
);
}
);
width = 820;
},
{
anchors = (
{
name = bottom;
pos = (410,0);
},
{
name = ogonek;
pos = (561,0);
},
{
name = top;
pos = (410,500);
}
);
guides = (
{
pos = (-8,150);
},
{
pos = (-8,350);
}
);
layerId = m004;
shapes = (
{
closed = 1;
nodes = (
(216,-12,ls),
(304,-12,o),
(360,26,o),
(388,88,c),
(420,24,o),
(482,-12,o),
(570,-12,cs),
(574,-12,ls),
(698,-12,o),
(764,64,o),
(768,150,c),
(674,150,l),
(664,94,o),
(628,72,o),
(570,72,cs),
(566,72,ls),
(490,72,o),
(452,124,o),
(446,210,c),
(776,210,l),
(776,256,ls),
(776,412,o),
(710,512,o),
(568,512,cs),
(564,512,ls),
(498,512,o),
(442,486,o),
(408,442,c),
(380,488,o),
(330,512,o),
(256,512,cs),
(252,512,ls),
(140,512,o),
(62,450,o),
(62,350,c),
(158,350,l),
(158,384,o),
(174,428,o),
(254,428,cs),
(258,428,ls),
(316,428,o),
(352,406,o),
(352,328,cs),
(352,290,l),
(282,290,ls),
(140,290,o),
(40,264,o),
(40,134,cs),
(40,130,ls),
(40,42,o),
(110,-12,o),
(212,-12,cs)
);
},
{
closed = 1;
nodes = (
(132,140,ls),
(132,198,o),
(182,210,o),
(294,210,cs),
(352,210,l),
(352,202,ls),
(352,138,o),
(314,72,o),
(228,72,cs),
(224,72,ls),
(160,72,o),
(132,96,o),
(132,136,cs)
);
},
{
closed = 1;
nodes = (
(452,372,o),
(486,428,o),
(566,428,cs),
(570,428,ls),
(642,428,o),
(684,380,o),
(684,290,c),
(446,290,l)
);
}
);
width = 820;
},
{
anchors = (
{
name = bottom;
pos = (410,0);
},
{
name = ogonek;
pos = (590,0);
},
{
name = top;
pos = (410,500);
}
);
guides = (
{
pos = (-8,360);
},
{
pos = (-8,140);
}
);
layerId = m007;
shapes = (
{
closed = 1;
nodes = (
(214,-12,ls),
(320,-12,o),
(376,46,o),
(396,116,c),
(424,32,o),
(484,-12,o),
(576,-12,cs),
(580,-12,ls),
(718,-12,o),
(752,88,o),
(758,140,c),
(716,140,l),
(708,80,o),
(670,28,o),
(578,28,cs),
(574,28,ls),
(456,28,o),
(418,118,o),
(416,230,c),
(764,230,l),
(764,256,ls),
(764,406,o),
(708,512,o),
(574,512,cs),
(570,512,ls),
(486,512,o),
(426,462,o),
(404,406,c),
(390,470,o),
(334,512,o),
(250,512,cs),
(246,512,ls),
(140,512,o),
(72,450,o),
(72,360,c),
(112,360,l),
(112,432,o),
(156,472,o),
(246,472,cs),
(250,472,ls),
(342,472,o),
(378,420,o),
(378,336,cs),
(378,270,l),
(288,270,ls),
(156,270,o),
(50,256,o),
(50,128,cs),
(50,124,ls),
(50,36,o),
(112,-12,o),
(210,-12,cs)
);
},
{
closed = 1;
nodes = (
(90,128,ls),
(90,224,o),
(172,230,o),
(290,230,cs),
(378,230,l),
(378,218,ls),
(378,108,o),
(320,28,o),
(218,28,cs),
(214,28,ls),
(136,28,o),
(90,62,o),
(90,124,cs)
);
},
{
closed = 1;
nodes = (
(418,394,o),
(470,472,o),
(570,472,cs),
(574,472,ls),
(682,472,o),
(724,384,o),
(724,270,c),
(416,270,l)
);
}
);
width = 820;
}
);
metricLeft = a;
metricRight = o;
unicode = 230;
},
{
color = 9;
glyphname = b;
kernLeft = I;
kernRight = o;
lastChange = "2026-04-07 14:26:59 +0000";
layers = (
{
anchors = (
{
name = bottom;
pos = (280,0);
},
{
name = top;
pos = (132,700);
}
);
layerId = m003;
shapes = (
{
closed = 1;
nodes = (
(224,64,l),
(248,24,o),
(290,-12,o),
(352,-12,cs),
(356,-12,ls),
(470,-12,o),
(542,80,o),
(542,248,cs),
(542,252,ls),
(542,420,o),
(470,512,o),
(356,512,cs),
(352,512,ls),
(290,512,o),
(248,476,o),
(224,436,c),
(224,700,l),
(44,700,l),
(44,0,l),
(224,0,l)
);
},
{
closed = 1;
nodes = (
(292,130,ls),
(248,130,o),
(224,172,o),
(224,248,cs),
(224,252,ls),
(224,328,o),
(248,368,o),
(292,368,cs),
(296,368,ls),
(340,368,o),
(364,328,o),
(364,252,cs),
(364,248,ls),
(364,172,o),
(340,130,o),
(296,130,cs)
);
}
);
width = 570;
},
{
anchors = (
{
name = bottom;
pos = (280,0);
},
{
name = top;
pos = (118,700);
}
);
layerId = m004;
shapes = (
{
closed = 1;
nodes = (
(166,60,l),
(194,20,o),
(242,-12,o),
(312,-12,cs),
(316,-12,ls),
(434,-12,o),
(526,78,o),
(526,248,cs),
(526,252,ls),
(526,422,o),
(434,512,o),
(316,512,cs),
(312,512,ls),
(242,512,o),
(194,480,o),
(166,440,c),
(166,700,l),
(70,700,l),
(70,0,l),
(166,0,l)
);
},
{
closed = 1;
nodes = (
(298,76,ls),
(218,76,o),
(166,134,o),
(166,248,cs),
(166,252,ls),
(166,366,o),
(218,424,o),
(298,424,cs),
(302,424,ls),
(378,424,o),
(432,366,o),
(432,252,cs),
(432,248,ls),
(432,134,o),
(378,76,o),
(302,76,cs)
);
}
);
width = 570;
},
{
anchors = (
{
name = bottom;
pos = (280,0);
},
{
name = top;
pos = (106,700);
}
);
layerId = m007;
shapes = (
{
closed = 1;
nodes = (
(126,86,l),
(160,24,o),
(220,-12,o),
(298,-12,cs),
(302,-12,ls),
(430,-12,o),
(514,82,o),
(514,248,cs),
(514,252,ls),
(514,418,o),
(430,512,o),
(302,512,cs),
(298,512,ls),
(220,512,o),
(160,476,o),
(126,414,c),
(126,700,l),
(86,700,l),
(86,0,l),
(126,0,l)
);
},
{
closed = 1;
nodes = (
(298,28,ls),
(188,28,o),
(126,108,o),
(126,248,cs),
(126,252,ls),
(126,392,o),
(188,472,o),
(298,472,cs),
(302,472,ls),
(412,472,o),
(474,392,o),
(474,252,cs),
(474,248,ls),
(474,108,o),
(412,28,o),
(302,28,cs)
);
}
);
width = 570;
}
);
metricLeft = n;
metricRight = o;
unicode = 98;
},
{
color = 9;
glyphname = c;
kernLeft = o;
kernRight = c;
lastChange = "2026-04-07 10:17:19 +0000";
layers = (
{
anchors = (
{
name = bottom;
pos = (270,0);
},
{
name = top;
pos = (270,500);
}
);
guides = (
{
pos = (-8,330);
},
{
pos = (-8,170);
}
);
layerId = m003;
shapes = (
{
closed = 1;
nodes = (
(400,-12,o),
(476,70,o),
(484,170,c),
(314,170,l),
(314,148,o),
(300,128,o),
(272,128,cs),
(268,128,ls),
(224,128,o),
(204,168,o),
(204,248,cs),
(204,252,ls),
(204,332,o),
(226,372,o),
(268,372,cs),
(272,372,ls),
(300,372,o),
(314,352,o),
(314,330,c),
(484,330,l),
(476,430,o),
(400,512,o),
(272,512,cs),
(268,512,ls),
(124,512,o),
(28,412,o),
(28,252,cs),
(28,248,ls),
(28,88,o),
(126,-12,o),
(268,-12,cs),
(272,-12,ls)
);
}
);
width = 500;
},
{
anchors = (
{
name = bottom;
pos = (266,0);
},
{
name = top;
pos = (270,500);
}
);
guides = (
{
pos = (-8,350);
},
{
pos = (-8,150);
}
);
layerId = m004;
shapes = (
{
closed = 1;
nodes = (
(396,-12,o),
(464,70,o),
(468,150,c),
(376,150,l),
(372,110,o),
(338,76,o),
(276,76,cs),
(272,76,ls),
(190,76,o),
(140,136,o),
(140,248,cs),
(140,252,ls),
(140,364,o),
(190,424,o),
(272,424,cs),
(276,424,ls),
(338,424,o),
(372,390,o),
(376,350,c),
(468,350,l),
(464,430,o),
(396,512,o),
(276,512,cs),
(272,512,ls),
(150,512,o),
(44,426,o),
(44,252,cs),
(44,248,ls),
(44,74,o),
(152,-12,o),
(272,-12,cs),
(276,-12,ls)
);
}
);
width = 500;
},
{
anchors = (
{
name = bottom;
pos = (262,0);
},
{
name = top;
pos = (270,500);
}
);
guides = (
{
pos = (-8,360);
},
{
pos = (-8,140);
}
);
layerId = m007;
shapes = (
{
closed = 1;
nodes = (
(392,-12,o),
(454,60,o),
(460,140,c),
(420,140,l),
(414,88,o),
(376,28,o),
(276,28,cs),
(272,28,ls),
(170,28,o),
(96,104,o),
(96,248,cs),
(96,252,ls),
(96,396,o),
(170,472,o),
(272,472,cs),
(276,472,ls),
(376,472,o),
(414,412,o),
(420,360,c),
(460,360,l),
(454,440,o),
(392,512,o),
(276,512,cs),
(272,512,ls),
(150,512,o),
(56,424,o),
(56,252,cs),
(56,248,ls),
(56,76,o),
(150,-12,o),
(272,-12,cs),
(276,-12,ls)
);
}
);
width = 500;
}
);
metricLeft = o;
unicode = 99;
userData = {
KernOnName = c;
};
},
